UnuarangaKuriero-BoldItalic.ufo
<glyph name="Schwa" format="1">
  <advance width="1228"/>
  <unicode hex="018F"/>
  <outline>
    <contour>
      <point x="946" y="695" type="line"/>
      <point x="946" y="712" type="line" smooth="yes"/>
      <point x="946" y="800"/>
      <point x="926.167" y="867"/>
      <point x="886.5" y="913" type="curve" smooth="yes"/>
      <point x="846.833" y="959"/>
      <point x="788" y="982"/>
      <point x="710" y="982" type="curve" smooth="yes"/>
      <point x="679.333" y="982"/>
      <point x="649.667" y="979.667"/>
      <point x="621" y="975" type="curve" smooth="yes"/>
      <point x="592.333" y="970.333"/>
      <point x="563.667" y="963.833"/>
      <point x="535" y="955.5" type="curve" smooth="yes"/>
      <point x="506.333" y="947.167"/>
      <point x="477.5" y="937"/>
      <point x="448.5" y="925" type="curve" smooth="yes"/>
      <point x="419.5" y="913"/>
      <point x="389.333" y="899.667"/>
      <point x="358" y="885" type="curve" smooth="yes"/>
      <point x="336" y="875"/>
      <point x="316.667" y="875.667"/>
      <point x="300" y="887" type="curve" smooth="yes"/>
      <point x="283.333" y="898.333"/>
      <point x="269.333" y="923.333"/>
      <point x="258" y="962" type="curve" smooth="yes"/>
      <point x="246.667" y="1002"/>
      <point x="244.167" y="1032.83"/>
      <point x="250.5" y="1054.5" type="curve" smooth="yes"/>
      <point x="256.833" y="1076.17"/>
      <point x="271.667" y="1092.33"/>
      <point x="295" y="1103" type="curve" smooth="yes"/>
      <point x="371.667" y="1137.67"/>
      <point x="447" y="1164"/>
      <point x="521" y="1182" type="curve" smooth="yes"/>
      <point x="595" y="1200"/>
      <point x="668" y="1209"/>
      <point x="740" y="1209" type="curve" smooth="yes"/>
      <point x="812" y="1209"/>
      <point x="877" y="1197.33"/>
      <point x="935" y="1174" type="curve" smooth="yes"/>
      <point x="993" y="1150.67"/>
      <point x="1042.5" y="1117.67"/>
      <point x="1083.5" y="1075" type="curve" smooth="yes"/>
      <point x="1124.5" y="1032.33"/>
      <point x="1156.17" y="980.5"/>
      <point x="1178.5" y="919.5" type="curve" smooth="yes"/>
      <point x="1200.83" y="858.5"/>
      <point x="1212" y="790.667"/>
      <point x="1212" y="716" type="curve" smooth="yes"/>
      <point x="1212" y="668.667"/>
      <point x="1207.83" y="620.167"/>
      <point x="1199.5" y="570.5" type="curve" smooth="yes"/>
      <point x="1191.17" y="520.833"/>
      <point x="1178.5" y="472"/>
      <point x="1161.5" y="424" type="curve" smooth="yes"/>
      <point x="1144.5" y="376"/>
      <point x="1123.5" y="330.167"/>
      <point x="1098.5" y="286.5" type="curve" smooth="yes"/>
      <point x="1073.5" y="242.833"/>
      <point x="1044.67" y="203"/>
      <point x="1012" y="167" type="curve" smooth="yes"/>
      <point x="955.333" y="104.333"/>
      <point x="888.667" y="57.1667"/>
      <point x="812" y="25.5" type="curve" smooth="yes"/>
      <point x="735.333" y="-6.16667"/>
      <point x="652.333" y="-22"/>
      <point x="563" y="-22" type="curve" smooth="yes"/>
      <point x="489" y="-22"/>
      <point x="422.167" y="-10.3333"/>
      <point x="362.5" y="13" type="curve" smooth="yes"/>
      <point x="302.833" y="36.3333"/>
      <point x="252.167" y="69.3333"/>
      <point x="210.5" y="112" type="curve" smooth="yes"/>
      <point x="168.833" y="154.667"/>
      <point x="136.833" y="206.333"/>
      <point x="114.5" y="267" type="curve" smooth="yes"/>
      <point x="92.1667" y="327.667"/>
      <point x="81" y="395.667"/>
      <point x="81" y="471" type="curve" smooth="yes"/>
      <point x="81" y="486.333"/>
      <point x="81.3333" y="506.667"/>
      <point x="82" y="532" type="curve" smooth="yes"/>
      <point x="82.6667" y="557.333"/>
      <point x="85.8333" y="582"/>
      <point x="91.5" y="606" type="curve" smooth="yes"/>
      <point x="97.1667" y="630"/>
      <point x="106.167" y="650.833"/>
      <point x="118.5" y="668.5" type="curve" smooth="yes"/>
      <point x="130.833" y="686.167"/>
      <point x="148.667" y="695"/>
      <point x="172" y="695" type="curve" smooth="yes"/>
    </contour>
    <contour>
      <point x="840" y="340" type="curve" smooth="yes"/>
      <point x="853.333" y="358"/>
      <point x="865.167" y="378"/>
      <point x="875.5" y="400" type="curve" smooth="yes"/>
      <point x="885.833" y="422"/>
      <point x="895.333" y="445.333"/>
      <point x="904" y="470" type="curve"/>
      <point x="347" y="470" type="line"/>
      <point x="347.667" y="383.333"/>
      <point x="367.833" y="317.5"/>
      <point x="407.5" y="272.5" type="curve" smooth="yes"/>
      <point x="447.167" y="227.5"/>
      <point x="505.667" y="205"/>
      <point x="583" y="205" type="curve" smooth="yes"/>
      <point x="637.667" y="205"/>
      <point x="686.167" y="216.5"/>
      <point x="728.5" y="239.5" type="curve" smooth="yes"/>
      <point x="770.833" y="262.5"/>
      <point x="808" y="296"/>
    </contour>
  </outline>
</glyph>
<glyph name="schwa" format="1">
  <advance width="1228"/>
  <unicode hex="0259"/>
  <outline>
    <contour>
      <point x="876" y="555" type="line"/>
      <point x="870" y="607"/>
      <point x="850" y="647.333"/>
      <point x="816" y="676" type="curve" smooth="yes"/>
      <point x="782" y="704.667"/>
      <point x="736" y="719"/>
      <point x="678" y="719" type="curve" smooth="yes"/>
      <point x="624" y="719"/>
      <point x="569" y="710.5"/>
      <point x="513" y="693.5" type="curve" smooth="yes"/>
      <point x="457" y="676.5"/>
      <point x="402" y="653.667"/>
      <point x="348" y="625" type="curve" smooth="yes"/>
      <point x="326.667" y="613.667"/>
      <point x="307.333" y="613.667"/>
      <point x="290" y="625" type="curve" smooth="yes"/>
      <point x="272.667" y="636.333"/>
      <point x="257" y="661"/>
      <point x="243" y="699" type="curve" smooth="yes"/>
      <point x="228.333" y="738.333"/>
      <point x="224" y="769"/>
      <point x="230" y="791" type="curve" smooth="yes"/>
      <point x="236" y="813"/>
      <point x="250.333" y="829.667"/>
      <point x="273" y="841" type="curve" smooth="yes"/>
      <point x="339.667" y="873"/>
      <point x="410.333" y="898.5"/>
      <point x="485" y="917.5" type="curve" smooth="yes"/>
      <point x="559.667" y="936.5"/>
      <point x="632.333" y="946"/>
      <point x="703" y="946" type="curve" smooth="yes"/>
      <point x="771.667" y="946"/>
      <point x="833.167" y="935.667"/>
      <point x="887.5" y="915" type="curve" smooth="yes"/>
      <point x="941.833" y="894.333"/>
      <point x="988" y="865.667"/>
      <point x="1026" y="829" type="curve" smooth="yes"/>
      <point x="1064" y="792.333"/>
      <point x="1093.17" y="748.833"/>
      <point x="1113.5" y="698.5" type="curve" smooth="yes"/>
      <point x="1133.83" y="648.167"/>
      <point x="1144" y="593.667"/>
      <point x="1144" y="535" type="curve" smooth="yes"/>
      <point x="1144" y="491"/>
      <point x="1138.5" y="446.667"/>
      <point x="1127.5" y="402" type="curve" smooth="yes"/>
      <point x="1116.5" y="357.333"/>
      <point x="1100.17" y="314.333"/>
      <point x="1078.5" y="273" type="curve" smooth="yes"/>
      <point x="1056.83" y="231.667"/>
      <point x="1029.83" y="193"/>
      <point x="997.5" y="157" type="curve" smooth="yes"/>
      <point x="965.167" y="121"/>
      <point x="928.167" y="89.8333"/>
      <point x="886.5" y="63.5" type="curve" smooth="yes"/>
      <point x="844.833" y="37.1667"/>
      <point x="798.167" y="16.3333"/>
      <point x="746.5" y="1" type="curve" smooth="yes"/>
      <point x="694.833" y="-14.3333"/>
      <point x="638.667" y="-22"/>
      <point x="578" y="-22" type="curve" smooth="yes"/>
      <point x="508" y="-22"/>
      <point x="445" y="-11.8333"/>
      <point x="389" y="8.5" type="curve" smooth="yes"/>
      <point x="333" y="28.8333"/>
      <point x="285.333" y="56.8333"/>
      <point x="246" y="92.5" type="curve" smooth="yes"/>
      <point x="206.667" y="128.167"/>
      <point x="176.333" y="170.5"/>
      <point x="155" y="219.5" type="curve" smooth="yes"/>
      <point x="133.667" y="268.5"/>
      <point x="122.667" y="322"/>
      <point x="122" y="380" type="curve" smooth="yes"/>
      <point x="120" y="393.333"/>
      <point x="119.833" y="410"/>
      <point x="121.5" y="430" type="curve" smooth="yes"/>
      <point x="123.167" y="450"/>
      <point x="127.333" y="469.167"/>
      <point x="134" y="487.5" type="curve" smooth="yes"/>
      <point x="140.667" y="505.833"/>
      <point x="150" y="521.667"/>
      <point x="162" y="535" type="curve" smooth="yes"/>
      <point x="174" y="548.333"/>
      <point x="189.667" y="555"/>
      <point x="209" y="555" type="curve" smooth="yes"/>
    </contour>
    <contour>
      <point x="588" y="205" type="curve" smooth="yes"/>
      <point x="618.667" y="205"/>
      <point x="647" y="209"/>
      <point x="673" y="217" type="curve" smooth="yes"/>
      <point x="699" y="225"/>
      <point x="722.333" y="236"/>
      <point x="743" y="250" type="curve" smooth="yes"/>
      <point x="763.667" y="264"/>
      <point x="782" y="280.333"/>
      <point x="798" y="299" type="curve" smooth="yes"/>
      <point x="814" y="317.667"/>
      <point x="827.667" y="338"/>
      <point x="839" y="360" type="curve"/>
      <point x="391" y="360" type="line"/>
      <point x="398.333" y="310.667"/>
      <point x="418.833" y="272.5"/>
      <point x="452.5" y="245.5" type="curve" smooth="yes"/>
      <point x="486.167" y="218.5"/>
      <point x="531.333" y="205"/>
    </contour>
  </outline>
</glyph>
<glyph name="Iocyrillic" format="1">
  <advance width="1228"/>
  <unicode hex="0401"/>
  <outline>
    <contour>
      <point x="323" y="982" type="line"/>
      <point x="226" y="982" type="line" smooth="yes"/>
      <point x="214.667" y="982"/>
      <point x="205.333" y="983.333"/>
      <point x="198" y="986" type="curve" smooth="yes"/>
      <point x="190.667" y="988.667"/>
      <point x="185" y="993.667"/>
      <point x="181" y="1001" type="curve" smooth="yes"/>
      <point x="177" y="1008.33"/>
      <point x="175" y="1018.67"/>
      <point x="175" y="1032" type="curve" smooth="yes"/>
      <point x="175" y="1045.33"/>
      <point x="177" y="1062.67"/>
      <point x="181" y="1084" type="curve" smooth="yes"/>
      <point x="185" y="1105.33"/>
      <point x="189.333" y="1122.67"/>
      <point x="194" y="1136" type="curve" smooth="yes"/>
      <point x="198.667" y="1149.33"/>
      <point x="204.167" y="1159.83"/>
      <point x="210.5" y="1167.5" type="curve" smooth="yes"/>
      <point x="216.833" y="1175.17"/>
      <point x="224.167" y="1180.33"/>
      <point x="232.5" y="1183" type="curve" smooth="yes"/>
      <point x="240.833" y="1185.67"/>
      <point x="250.667" y="1187"/>
      <point x="262" y="1187" type="curve" smooth="yes"/>
      <point x="1174" y="1187" type="line" smooth="yes"/>
      <point x="1197.33" y="1187"/>
      <point x="1213.17" y="1182"/>
      <point x="1221.5" y="1172" type="curve" smooth="yes"/>
      <point x="1229.83" y="1162"/>
      <point x="1231.67" y="1145.33"/>
      <point x="1227" y="1122" type="curve" smooth="yes"/>
      <point x="1174" y="820" type="line" smooth="yes"/>
      <point x="1170" y="797.333"/>
      <point x="1157.5" y="781.167"/>
      <point x="1136.5" y="771.5" type="curve" smooth="yes"/>
      <point x="1115.5" y="761.833"/>
      <point x="1083.67" y="757"/>
      <point x="1041" y="757" type="curve" smooth="yes"/>
      <point x="998.333" y="757"/>
      <point x="970.5" y="761.833"/>
      <point x="957.5" y="771.5" type="curve" smooth="yes"/>
      <point x="944.5" y="781.167"/>
      <point x="940" y="797.333"/>
      <point x="944" y="820" type="curve" smooth="yes"/>
      <point x="971" y="972" type="line"/>
      <point x="571" y="972" type="line"/>
      <point x="526" y="719" type="line"/>
      <point x="770" y="719" type="line" smooth="yes"/>
      <point x="781.333" y="719"/>
      <point x="790.667" y="717.333"/>
      <point x="798" y="714" type="curve" smooth="yes"/>
      <point x="805.333" y="710.667"/>
      <point x="810.833" y="705"/>
      <point x="814.5" y="697" type="curve" smooth="yes"/>
      <point x="818.167" y="689"/>
      <point x="820" y="678"/>
      <point x="820" y="664" type="curve" smooth="yes"/>
      <point x="820" y="650"/>
      <point x="818" y="632.333"/>
      <point x="814" y="611" type="curve" smooth="yes"/>
      <point x="806.667" y="569"/>
      <point x="796.833" y="540.667"/>
      <point x="784.5" y="526" type="curve" smooth="yes"/>
      <point x="772.167" y="511.333"/>
      <point x="754.667" y="504"/>
      <point x="732" y="504" type="curve" smooth="yes"/>
      <point x="488" y="504" type="line"/>
      <point x="437" y="215" type="line"/>
      <point x="847" y="215" type="line"/>
      <point x="883" y="417" type="line" smooth="yes"/>
      <point x="887" y="439.667"/>
      <point x="899.333" y="455.833"/>
      <point x="920" y="465.5" type="curve" smooth="yes"/>
      <point x="940.667" y="475.167"/>
      <point x="974" y="480"/>
      <point x="1020" y="480" type="curve" smooth="yes"/>
      <point x="1042.67" y="480"/>
      <point x="1061.17" y="478.833"/>
      <point x="1075.5" y="476.5" type="curve" smooth="yes"/>
      <point x="1089.83" y="474.167"/>
      <point x="1100.83" y="470.5"/>
      <point x="1108.5" y="465.5" type="curve" smooth="yes"/>
      <point x="1116.17" y="460.5"/>
      <point x="1121" y="454"/>
      <point x="1123" y="446" type="curve" smooth="yes"/>
      <point x="1125" y="438"/>
      <point x="1125" y="428.333"/>
      <point x="1123" y="417" type="curve" smooth="yes"/>
      <point x="1061" y="65" type="line" smooth="yes"/>
      <point x="1057" y="41.6667"/>
      <point x="1049.17" y="25"/>
      <point x="1037.5" y="15" type="curve" smooth="yes"/>
      <point x="1025.83" y="5"/>
      <point x="1008.33" y="0"/>
      <point x="985" y="0" type="curve" smooth="yes"/>
      <point x="53" y="0" type="line" smooth="yes"/>
      <point x="41.6667" y="0"/>
      <point x="32.1667" y="1.33333"/>
      <point x="24.5" y="4" type="curve" smooth="yes"/>
      <point x="16.8333" y="6.66667"/>
      <point x="11.1667" y="11.6667"/>
      <point x="7.5" y="19" type="curve" smooth="yes"/>
      <point x="3.83333" y="26.3333"/>
      <point x="1.83333" y="36.6667"/>
      <point x="1.5" y="50" type="curve" smooth="yes"/>
      <point x="1.16667" y="63.3333"/>
      <point x="3" y="80.6667"/>
      <point x="7" y="102" type="curve" smooth="yes"/>
      <point x="11" y="123.333"/>
      <point x="15.3333" y="140.667"/>
      <point x="20" y="154" type="curve" smooth="yes"/>
      <point x="24.6667" y="167.333"/>
      <point x="30.1667" y="177.833"/>
      <point x="36.5" y="185.5" type="curve" smooth="yes"/>
      <point x="42.8333" y="193.167"/>
      <point x="50.3333" y="198.333"/>
      <point x="59" y="201" type="curve" smooth="yes"/>
      <point x="67.6667" y="203.667"/>
      <point x="77.6667" y="205"/>
      <point x="89" y="205" type="curve" smooth="yes"/>
      <point x="186" y="205" type="line"/>
    </contour>
    <contour>
      <point x="412" y="1408" type="curve" smooth="yes"/>
      <point x="415.333" y="1428.67"/>
      <point x="422.5" y="1448.17"/>
      <point x="433.5" y="1466.5" type="curve" smooth="yes"/>
      <point x="444.5" y="1484.83"/>
      <point x="458" y="1500.67"/>
      <point x="474" y="1514" type="curve" smooth="yes"/>
      <point x="490" y="1527.33"/>
      <point x="507.833" y="1538"/>
      <point x="527.5" y="1546" type="curve" smooth="yes"/>
      <point x="547.167" y="1554"/>
      <point x="567.333" y="1558"/>
      <point x="588" y="1558" type="curve" smooth="yes"/>
      <point x="608.667" y="1558"/>
      <point x="627.5" y="1554"/>
      <point x="644.5" y="1546" type="curve" smooth="yes"/>
      <point x="661.5" y="1538"/>
      <point x="675.5" y="1527.33"/>
      <point x="686.5" y="1514" type="curve" smooth="yes"/>
      <point x="697.5" y="1500.67"/>
      <point x="705.333" y="1484.83"/>
      <point x="710" y="1466.5" type="curve" smooth="yes"/>
      <point x="714.667" y="1448.17"/>
      <point x="715.333" y="1428.67"/>
      <point x="712" y="1408" type="curve" smooth="yes"/>
      <point x="708" y="1387.33"/>
      <point x="700.5" y="1367.83"/>
      <point x="689.5" y="1349.5" type="curve" smooth="yes"/>
      <point x="678.5" y="1331.17"/>
      <point x="665" y="1315.33"/>
      <point x="649" y="1302" type="curve" smooth="yes"/>
      <point x="633" y="1288.67"/>
      <point x="615.167" y="1278"/>
      <point x="595.5" y="1270" type="curve" smooth="yes"/>
      <point x="575.833" y="1262"/>
      <point x="555.667" y="1258"/>
      <point x="535" y="1258" type="curve" smooth="yes"/>
      <point x="514.333" y="1258"/>
      <point x="495.5" y="1262"/>
      <point x="478.5" y="1270" type="curve" smooth="yes"/>
      <point x="461.5" y="1278"/>
      <point x="447.5" y="1288.67"/>
      <point x="436.5" y="1302" type="curve" smooth="yes"/>
      <point x="425.5" y="1315.33"/>
      <point x="417.667" y="1331.17"/>
      <point x="413" y="1349.5" type="curve" smooth="yes"/>
      <point x="408.333" y="1367.83"/>
      <point x="408" y="1387.33"/>
    </contour>
    <contour>
      <point x="872" y="1408" type="curve" smooth="yes"/>
      <point x="875.333" y="1428.67"/>
      <point x="882.5" y="1448.17"/>
      <point x="893.5" y="1466.5" type="curve" smooth="yes"/>
      <point x="904.5" y="1484.83"/>
      <point x="918" y="1500.67"/>
      <point x="934" y="1514" type="curve" smooth="yes"/>
      <point x="950" y="1527.33"/>
      <point x="967.833" y="1538"/>
      <point x="987.5" y="1546" type="curve" smooth="yes"/>
      <point x="1007.17" y="1554"/>
      <point x="1027.33" y="1558"/>
      <point x="1048" y="1558" type="curve" smooth="yes"/>
      <point x="1068.67" y="1558"/>
      <point x="1087.5" y="1554"/>
      <point x="1104.5" y="1546" type="curve" smooth="yes"/>
      <point x="1121.5" y="1538"/>
      <point x="1135.5" y="1527.33"/>
      <point x="1146.5" y="1514" type="curve" smooth="yes"/>
      <point x="1157.5" y="1500.67"/>
      <point x="1165.33" y="1484.83"/>
      <point x="1170" y="1466.5" type="curve" smooth="yes"/>
      <point x="1174.67" y="1448.17"/>
      <point x="1175.33" y="1428.67"/>
      <point x="1172" y="1408" type="curve" smooth="yes"/>
      <point x="1168" y="1387.33"/>
      <point x="1160.5" y="1367.83"/>
      <point x="1149.5" y="1349.5" type="curve" smooth="yes"/>
      <point x="1138.5" y="1331.17"/>
      <point x="1125" y="1315.33"/>
      <point x="1109" y="1302" type="curve" smooth="yes"/>
      <point x="1093" y="1288.67"/>
      <point x="1075.17" y="1278"/>
      <point x="1055.5" y="1270" type="curve" smooth="yes"/>
      <point x="1035.83" y="1262"/>
      <point x="1015.67" y="1258"/>
      <point x="995" y="1258" type="curve" smooth="yes"/>
      <point x="974.333" y="1258"/>
      <point x="955.5" y="1262"/>
      <point x="938.5" y="1270" type="curve" smooth="yes"/>
      <point x="921.5" y="1278"/>
      <point x="907.5" y="1288.67"/>
      <point x="896.5" y="1302" type="curve" smooth="yes"/>
      <point x="885.5" y="1315.33"/>
      <point x="877.667" y="1331.17"/>
      <point x="873" y="1349.5" type="curve" smooth="yes"/>
      <point x="868.333" y="1367.83"/>
      <point x="868" y="1387.33"/>
    </contour>
  </outline>
</glyph>
<glyph name="Djecyrillic" format="1">
  <advance width="1228"/>
  <unicode hex="0402"/>
  <outline>
    <contour>
      <point x="927" y="338" type="curve" smooth="yes"/>
      <point x="933.667" y="374"/>
      <point x="925.667" y="403.5"/>
      <point x="903" y="426.5" type="curve" smooth="yes"/>
      <point x="880.333" y="449.5"/>
      <point x="841.667" y="461"/>
      <point x="787" y="461" type="curve" smooth="yes"/>
      <point x="753" y="461"/>
      <point x="720.667" y="457.333"/>
      <point x="690" y="450" type="curve" smooth="yes"/>
      <point x="659.333" y="442.667"/>
      <point x="630.333" y="433"/>
      <point x="603" y="421" type="curve"/>
      <point x="565" y="205" type="line"/>
      <point x="602" y="205" type="line" smooth="yes"/>
      <point x="613.333" y="205"/>
      <point x="622.667" y="203.667"/>
      <point x="630" y="201" type="curve" smooth="yes"/>
      <point x="637.333" y="198.333"/>
      <point x="642.833" y="193.167"/>
      <point x="646.5" y="185.5" type="curve" smooth="yes"/>
      <point x="650.167" y="177.833"/>
      <point x="652" y="167.333"/>
      <point x="652" y="154" type="curve" smooth="yes"/>
      <point x="652" y="140.667"/>
      <point x="650" y="123.333"/>
      <point x="646" y="102" type="curve" smooth="yes"/>
      <point x="642" y="80.6667"/>
      <point x="637.833" y="63.3333"/>
      <point x="633.5" y="50" type="curve" smooth="yes"/>
      <point x="629.167" y="36.6667"/>
      <point x="623.833" y="26.3333"/>
      <point x="617.5" y="19" type="curve" smooth="yes"/>
      <point x="611.167" y="11.6667"/>
      <point x="603.833" y="6.66667"/>
      <point x="595.5" y="4" type="curve" smooth="yes"/>
      <point x="587.167" y="1.33333"/>
      <point x="577.333" y="0"/>
      <point x="566" y="0" type="curve" smooth="yes"/>
      <point x="188" y="0" type="line" smooth="yes"/>
      <point x="176.667" y="0"/>
      <point x="167.167" y="1.33333"/>
      <point x="159.5" y="4" type="curve" smooth="yes"/>
      <point x="151.833" y="6.66667"/>
      <point x="146.167" y="11.6667"/>
      <point x="142.5" y="19" type="curve" smooth="yes"/>
      <point x="138.833" y="26.3333"/>
      <point x="136.833" y="36.6667"/>
      <point x="136.5" y="50" type="curve" smooth="yes"/>
      <point x="136.167" y="63.3333"/>
      <point x="138" y="80.6667"/>
      <point x="142" y="102" type="curve" smooth="yes"/>
      <point x="146" y="123.333"/>
      <point x="150.333" y="140.667"/>
      <point x="155" y="154" type="curve" smooth="yes"/>
      <point x="159.667" y="167.333"/>
      <point x="165.167" y="177.833"/>
      <point x="171.5" y="185.5" type="curve" smooth="yes"/>
      <point x="177.833" y="193.167"/>
      <point x="185.333" y="198.333"/>
      <point x="194" y="201" type="curve" smooth="yes"/>
      <point x="202.667" y="203.667"/>
      <point x="212.667" y="205"/>
      <point x="224" y="205" type="curve" smooth="yes"/>
      <point x="315" y="205" type="line"/>
      <point x="450" y="972" type="line"/>
      <point x="349" y="972" type="line"/>
      <point x="301" y="700" type="line" smooth="yes"/>
      <point x="297" y="677.333"/>
      <point x="285" y="661.167"/>
      <point x="265" y="651.5" type="curve" smooth="yes"/>
      <point x="245" y="641.833"/>
      <point x="216" y="637"/>
      <point x="178" y="637" type="curve" smooth="yes"/>
      <point x="140.667" y="637"/>
      <point x="115.833" y="641.833"/>
      <point x="103.5" y="651.5" type="curve" smooth="yes"/>
      <point x="91.1667" y="661.167"/>
      <point x="87" y="677.333"/>
      <point x="91" y="700" type="curve" smooth="yes"/>
      <point x="165" y="1122" type="line" smooth="yes"/>
      <point x="169.667" y="1145.33"/>
      <point x="177.833" y="1162"/>
      <point x="189.5" y="1172" type="curve" smooth="yes"/>
      <point x="201.167" y="1182"/>
      <point x="218.667" y="1187"/>
      <point x="242" y="1187" type="curve" smooth="yes"/>
      <point x="984" y="1187" type="line" smooth="yes"/>
      <point x="1007.33" y="1187"/>
      <point x="1023.17" y="1182"/>
      <point x="1031.5" y="1172" type="curve" smooth="yes"/>
      <point x="1039.83" y="1162"/>
      <point x="1041.67" y="1145.33"/>
      <point x="1037" y="1122" type="curve" smooth="yes"/>
      <point x="981" y="800" type="line" smooth="yes"/>
      <point x="977" y="777.333"/>
      <point x="964.833" y="761.167"/>
      <point x="944.5" y="751.5" type="curve" smooth="yes"/>
      <point x="924.167" y="741.833"/>
      <point x="895" y="737"/>
      <point x="857" y="737" type="curve" smooth="yes"/>
      <point x="819.667" y="737"/>
      <point x="795" y="741.833"/>
      <point x="783" y="751.5" type="curve" smooth="yes"/>
      <point x="771" y="761.167"/>
      <point x="767" y="777.333"/>
      <point x="771" y="800" type="curve" smooth="yes"/>
      <point x="801" y="972" type="line"/>
      <point x="700" y="972" type="line"/>
      <point x="643" y="647" type="line"/>
      <point x="673.667" y="659"/>
      <point x="706.5" y="669"/>
      <point x="741.5" y="677" type="curve" smooth="yes"/>
      <point x="776.5" y="685"/>
      <point x="813.333" y="689"/>
      <point x="852" y="689" type="curve" smooth="yes"/>
      <point x="911.333" y="689"/>
      <point x="963.667" y="681.333"/>
      <point x="1009" y="666" type="curve" smooth="yes"/>
      <point x="1054.33" y="650.667"/>
      <point x="1091.17" y="629"/>
      <point x="1119.5" y="601" type="curve" smooth="yes"/>
      <point x="1147.83" y="573"/>
      <point x="1167.5" y="538.833"/>
      <point x="1178.5" y="498.5" type="curve" smooth="yes"/>
      <point x="1189.5" y="458.167"/>
      <point x="1190.67" y="413"/>
      <point x="1182" y="363" type="curve" smooth="yes"/>
      <point x="1158.67" y="233"/>
      <point x="1109.67" y="136.333"/>
      <point x="1035" y="73" type="curve" smooth="yes"/>
      <point x="960.333" y="9.66667"/>
      <point x="861.667" y="-22"/>
      <point x="739" y="-22" type="curve" smooth="yes"/>
      <point x="727.667" y="-22"/>
      <point x="718.333" y="-20.6667"/>
      <point x="711" y="-18" type="curve" smooth="yes"/>
      <point x="703.667" y="-15.3333"/>
      <point x="698.167" y="-10"/>
      <point x="694.5" y="-2" type="curve" smooth="yes"/>
      <point x="690.833" y="6"/>
      <point x="689" y="17.3333"/>
      <point x="689" y="32" type="curve" smooth="yes"/>
      <point x="689" y="46.6667"/>
      <point x="691" y="66"/>
      <point x="695" y="90" type="curve" smooth="yes"/>
      <point x="699" y="114"/>
      <point x="703.5" y="133.333"/>
      <point x="708.5" y="148" type="curve" smooth="yes"/>
      <point x="713.5" y="162.667"/>
      <point x="719.333" y="174"/>
      <point x="726" y="182" type="curve" smooth="yes"/>
      <point x="732.667" y="190"/>
      <point x="740.167" y="195.5"/>
      <point x="748.5" y="198.5" type="curve" smooth="yes"/>
      <point x="756.833" y="201.5"/>
      <point x="766.667" y="203"/>
      <point x="778" y="203" type="curve" smooth="yes"/>
      <point x="820" y="203"/>
      <point x="853.167" y="213.5"/>
      <point x="877.5" y="234.5" type="curve" smooth="yes"/>
      <point x="901.833" y="255.5"/>
      <point x="918.333" y="290"/>
    </contour>
  </outline>
</glyph>
<glyph name="Gjecyrillic" format="1">
  <advance width="1228"/>
  <unicode hex="0403"/>
  <outline>
    <contour>
      <point x="353" y="982" type="line"/>
      <point x="226" y="982" type="line" smooth="yes"/>
      <point x="214.667" y="982"/>
      <point x="205.333" y="983.333"/>
      <point x="198" y="986" type="curve" smooth="yes"/>
      <point x="190.667" y="988.667"/>
      <point x="185" y="993.667"/>
      <point x="181" y="1001" type="curve" smooth="yes"/>
      <point x="177" y="1008.33"/>
      <point x="175" y="1018.67"/>
      <point x="175" y="1032" type="curve" smooth="yes"/>
      <point x="175" y="1045.33"/>
      <point x="177" y="1062.67"/>
      <point x="181" y="1084" type="curve" smooth="yes"/>
      <point x="185" y="1105.33"/>
      <point x="189.333" y="1122.67"/>
      <point x="194" y="1136" type="curve" smooth="yes"/>
      <point x="198.667" y="1149.33"/>
      <point x="204.167" y="1159.83"/>
      <point x="210.5" y="1167.5" type="curve" smooth="yes"/>
      <point x="216.833" y="1175.17"/>
      <point x="224.167" y="1180.33"/>
      <point x="232.5" y="1183" type="curve" smooth="yes"/>
      <point x="240.833" y="1185.67"/>
      <point x="250.667" y="1187"/>
      <point x="262" y="1187" type="curve" smooth="yes"/>
      <point x="1194" y="1187" type="line" smooth="yes"/>
      <point x="1217.33" y="1187"/>
      <point x="1233.17" y="1182"/>
      <point x="1241.5" y="1172" type="curve" smooth="yes"/>
      <point x="1249.83" y="1162"/>
      <point x="1251.67" y="1145.33"/>
      <point x="1247" y="1122" type="curve" smooth="yes"/>
      <point x="1173" y="700" type="line" smooth="yes"/>
      <point x="1169" y="677.333"/>
      <point x="1156.5" y="661.167"/>
      <point x="1135.5" y="651.5" type="curve" smooth="yes"/>
      <point x="1114.5" y="641.833"/>
      <point x="1082.67" y="637"/>
      <point x="1040" y="637" type="curve" smooth="yes"/>
      <point x="997.333" y="637"/>
      <point x="969.5" y="641.833"/>
      <point x="956.5" y="651.5" type="curve" smooth="yes"/>
      <point x="943.5" y="661.167"/>
      <point x="939" y="677.333"/>
      <point x="943" y="700" type="curve" smooth="yes"/>
      <point x="991" y="972" type="line"/>
      <point x="601" y="972" type="line"/>
      <point x="466" y="205" type="line"/>
      <point x="623" y="205" type="line" smooth="yes"/>
      <point x="634.333" y="205"/>
      <point x="643.667" y="203.667"/>
      <point x="651" y="201" type="curve" smooth="yes"/>
      <point x="658.333" y="198.333"/>
      <point x="663.833" y="193.167"/>
      <point x="667.5" y="185.5" type="curve" smooth="yes"/>
      <point x="671.167" y="177.833"/>
      <point x="673" y="167.333"/>
      <point x="673" y="154" type="curve" smooth="yes"/>
      <point x="673" y="140.667"/>
      <point x="671" y="123.333"/>
      <point x="667" y="102" type="curve" smooth="yes"/>
      <point x="663" y="80.6667"/>
      <point x="658.833" y="63.3333"/>
      <point x="654.5" y="50" type="curve" smooth="yes"/>
      <point x="650.167" y="36.6667"/>
      <point x="644.833" y="26.3333"/>
      <point x="638.5" y="19" type="curve" smooth="yes"/>
      <point x="632.167" y="11.6667"/>
      <point x="624.833" y="6.66667"/>
      <point x="616.5" y="4" type="curve" smooth="yes"/>
      <point x="608.167" y="1.33333"/>
      <point x="598.333" y="0"/>
      <point x="587" y="0" type="curve" smooth="yes"/>
      <point x="53" y="0" type="line" smooth="yes"/>
      <point x="41.6667" y="0"/>
      <point x="32.1667" y="1.33333"/>
      <point x="24.5" y="4" type="curve" smooth="yes"/>
      <point x="16.8333" y="6.66667"/>
      <point x="11.1667" y="11.6667"/>
      <point x="7.5" y="19" type="curve" smooth="yes"/>
      <point x="3.83333" y="26.3333"/>
      <point x="1.83333" y="36.6667"/>
      <point x="1.5" y="50" type="curve" smooth="yes"/>
      <point x="1.16667" y="63.3333"/>
      <point x="3" y="80.6667"/>
      <point x="7" y="102" type="curve" smooth="yes"/>
      <point x="11" y="123.333"/>
      <point x="15.3333" y="140.667"/>
      <point x="20" y="154" type="curve" smooth="yes"/>
      <point x="24.6667" y="167.333"/>
      <point x="30.1667" y="177.833"/>
      <point x="36.5" y="185.5" type="curve" smooth="yes"/>
      <point x="42.8333" y="193.167"/>
      <point x="50.3333" y="198.333"/>
      <point x="59" y="201" type="curve" smooth="yes"/>
      <point x="67.6667" y="203.667"/>
      <point x="77.6667" y="205"/>
      <point x="89" y="205" type="curve" smooth="yes"/>
      <point x="216" y="205" type="line"/>
    </contour>
    <contour>
      <point x="989" y="1655" type="line" smooth="yes"/>
      <point x="1007.67" y="1665.67"/>
      <point x="1027.33" y="1664.5"/>
      <point x="1048" y="1651.5" type="curve" smooth="yes"/>
      <point x="1068.67" y="1638.5"/>
      <point x="1089" y="1609.33"/>
      <point x="1109" y="1564" type="curve" smooth="yes"/>
      <point x="1129" y="1518"/>
      <point x="1137.83" y="1483.83"/>
      <point x="1135.5" y="1461.5" type="curve" smooth="yes"/>
      <point x="1133.17" y="1439.17"/>
      <point x="1123.33" y="1425.67"/>
      <point x="1106" y="1421" type="curve" smooth="yes"/>
      <point x="626" y="1296" type="line" smooth="yes"/>
      <point x="610" y="1291.33"/>
      <point x="596" y="1292.83"/>
      <point x="584" y="1300.5" type="curve" smooth="yes"/>
      <point x="572" y="1308.17"/>
      <point x="563.333" y="1319.67"/>
      <point x="558" y="1335" type="curve" smooth="yes"/>
      <point x="552.667" y="1349.67"/>
      <point x="551.833" y="1363.5"/>
      <point x="555.5" y="1376.5" type="curve" smooth="yes"/>
      <point x="559.167" y="1389.5"/>
      <point x="567.667" y="1400"/>
      <point x="581" y="1408" type="curve" smooth="yes"/>
    </contour>
  </outline>
</glyph>
<glyph name="Ecyrillic" format="1">
  <advance width="1228"/>
  <unicode hex="0404"/>
  <outline>
    <contour>
      <point x="1025" y="84" type="curve" smooth="yes"/>
      <point x="948.333" y="49.3333"/>
      <point x="873" y="23"/>
      <point x="799" y="5" type="curve" smooth="yes"/>
      <point x="725" y="-13"/>
      <point x="652" y="-22"/>
      <point x="580" y="-22" type="curve" smooth="yes"/>
      <point x="497.333" y="-22"/>
      <point x="424.667" y="-7.66667"/>
      <point x="362" y="21" type="curve" smooth="yes"/>
      <point x="299.333" y="49.6667"/>
      <point x="248.5" y="90.5"/>
      <point x="209.5" y="143.5" type="curve" smooth="yes"/>
      <point x="170.5" y="196.5"/>
      <point x="144.5" y="261"/>
      <point x="131.5" y="337" type="curve" smooth="yes"/>
      <point x="118.5" y="413"/>
      <point x="120.333" y="498.667"/>
      <point x="137" y="594" type="curve" smooth="yes"/>
      <point x="153.667" y="688.667"/>
      <point x="181.833" y="774"/>
      <point x="221.5" y="850" type="curve" smooth="yes"/>
      <point x="261.167" y="926"/>
      <point x="308.833" y="990.667"/>
      <point x="364.5" y="1044" type="curve" smooth="yes"/>
      <point x="420.167" y="1097.33"/>
      <point x="482.333" y="1138.17"/>
      <point x="551" y="1166.5" type="curve" smooth="yes"/>
      <point x="619.667" y="1194.83"/>
      <point x="691.667" y="1209"/>
      <point x="767" y="1209" type="curve" smooth="yes"/>
      <point x="829.667" y="1209"/>
      <point x="880" y="1197.67"/>
      <point x="918" y="1175" type="curve" smooth="yes"/>
      <point x="956" y="1152.33"/>
      <point x="984.667" y="1121.67"/>
      <point x="1004" y="1083" type="curve"/>
      <point x="1016" y="1146" type="line" smooth="yes"/>
      <point x="1020" y="1168.67"/>
      <point x="1032.5" y="1184.83"/>
      <point x="1053.5" y="1194.5" type="curve" smooth="yes"/>
      <point x="1074.5" y="1204.17"/>
      <point x="1106.33" y="1209"/>
      <point x="1149" y="1209" type="curve" smooth="yes"/>
      <point x="1191.67" y="1209"/>
      <point x="1219.5" y="1204.17"/>
      <point x="1232.5" y="1194.5" type="curve" smooth="yes"/>
      <point x="1245.5" y="1184.83"/>
      <point x="1250" y="1168.67"/>
      <point x="1246" y="1146" type="curve" smooth="yes"/>
      <point x="1178" y="762" type="line" smooth="yes"/>
      <point x="1174" y="739.333"/>
      <point x="1161.17" y="723.167"/>
      <point x="1139.5" y="713.5" type="curve" smooth="yes"/>
      <point x="1117.83" y="703.833"/>
      <point x="1083" y="699"/>
      <point x="1035" y="699" type="curve" smooth="yes"/>
      <point x="1011" y="699"/>
      <point x="991.667" y="700.167"/>
      <point x="977" y="702.5" type="curve" smooth="yes"/>
      <point x="962.333" y="704.833"/>
      <point x="951" y="708.5"/>
      <point x="943" y="713.5" type="curve" smooth="yes"/>
      <point x="935" y="718.5"/>
      <point x="930" y="725"/>
      <point x="928" y="733" type="curve" smooth="yes"/>
      <point x="926" y="741"/>
      <point x="926" y="750.667"/>
      <point x="928" y="762" type="curve" smooth="yes"/>
      <point x="934" y="794"/>
      <point x="934.833" y="823.5"/>
      <point x="930.5" y="850.5" type="curve" smooth="yes"/>
      <point x="926.167" y="877.5"/>
      <point x="917" y="900.833"/>
      <point x="903" y="920.5" type="curve" smooth="yes"/>
      <point x="889" y="940.167"/>
      <point x="869.833" y="955.333"/>
      <point x="845.5" y="966" type="curve" smooth="yes"/>
      <point x="821.167" y="976.667"/>
      <point x="791.667" y="982"/>
      <point x="757" y="982" type="curve" smooth="yes"/>
      <point x="676.333" y="982"/>
      <point x="608.5" y="957.5"/>
      <point x="553.5" y="908.5" type="curve" smooth="yes"/>
      <point x="498.5" y="859.5"/>
      <point x="457" y="788.333"/>
      <point x="429" y="695" type="curve"/>
      <point x="797" y="695" type="line" smooth="yes"/>
      <point x="808.333" y="695"/>
      <point x="817.667" y="693.5"/>
      <point x="825" y="690.5" type="curve" smooth="yes"/>
      <point x="832.333" y="687.5"/>
      <point x="837.833" y="682"/>
      <point x="841.5" y="674" type="curve" smooth="yes"/>
      <point x="845.167" y="666"/>
      <point x="846.833" y="654.667"/>
      <point x="846.5" y="640" type="curve" smooth="yes"/>
      <point x="846.167" y="625.333"/>
      <point x="844" y="606"/>
      <point x="840" y="582" type="curve" smooth="yes"/>
      <point x="836" y="558"/>
      <point x="831.5" y="538.667"/>
      <point x="826.5" y="524" type="curve" smooth="yes"/>
      <point x="821.5" y="509.333"/>
      <point x="815.667" y="498"/>
      <point x="809" y="490" type="curve" smooth="yes"/>
      <point x="802.333" y="482"/>
      <point x="794.833" y="476.667"/>
      <point x="786.5" y="474" type="curve" smooth="yes"/>
      <point x="778.167" y="471.333"/>
      <point x="768.333" y="470"/>
      <point x="757" y="470" type="curve" smooth="yes"/>
      <point x="393" y="470" type="line"/>
      <point x="393" y="384"/>
      <point x="413.167" y="318.333"/>
      <point x="453.5" y="273" type="curve" smooth="yes"/>
      <point x="493.833" y="227.667"/>
      <point x="552.667" y="205"/>
      <point x="630" y="205" type="curve" smooth="yes"/>
      <point x="660.667" y="205"/>
      <point x="690.667" y="207.167"/>
      <point x="720" y="211.5" type="curve" smooth="yes"/>
      <point x="749.333" y="215.833"/>
      <point x="778.5" y="222.167"/>
      <point x="807.5" y="230.5" type="curve" smooth="yes"/>
      <point x="836.5" y="238.833"/>
      <point x="865.833" y="248.833"/>
      <point x="895.5" y="260.5" type="curve" smooth="yes"/>
      <point x="925.167" y="272.167"/>
      <point x="955.667" y="285.333"/>
      <point x="987" y="300" type="curve" smooth="yes"/>
      <point x="1009" y="310"/>
      <point x="1028.5" y="310"/>
      <point x="1045.5" y="300" type="curve" smooth="yes"/>
      <point x="1062.5" y="290"/>
      <point x="1074.67" y="265"/>
      <point x="1082" y="225" type="curve" smooth="yes"/>
      <point x="1089.33" y="184.333"/>
      <point x="1087.5" y="153.333"/>
      <point x="1076.5" y="132" type="curve" smooth="yes"/>
      <point x="1065.5" y="110.667"/>
      <point x="1048.33" y="94.6667"/>
    </contour>
  </outline>
</glyph>
<glyph name="Dzecyrillic" format="1">
  <advance width="1228"/>
  <unicode hex="0405"/>
  <outline>
    <contour>
      <point x="326" y="41" type="line" smooth="yes"/>
      <point x="322" y="18.3333"/>
      <point x="311.167" y="2.16667"/>
      <point x="293.5" y="-7.5" type="curve" smooth="yes"/>
      <point x="275.833" y="-17.1667"/>
      <point x="245.667" y="-22"/>
      <point x="203" y="-22" type="curve" smooth="yes"/>
      <point x="160.333" y="-22"/>
      <point x="130.833" y="-17.1667"/>
      <point x="114.5" y="-7.5" type="curve" smooth="yes"/>
      <point x="98.1667" y="2.16667"/>
      <point x="92" y="18.3333"/>
      <point x="96" y="41" type="curve" smooth="yes"/>
      <point x="155" y="375" type="line" smooth="yes"/>
      <point x="159" y="397.667"/>
      <point x="169" y="413.833"/>
      <point x="185" y="423.5" type="curve" smooth="yes"/>
      <point x="201" y="433.167"/>
      <point x="225.333" y="438"/>
      <point x="258" y="438" type="curve" smooth="yes"/>
      <point x="281.333" y="438"/>
      <point x="299.167" y="435"/>
      <point x="311.5" y="429" type="curve" smooth="yes"/>
      <point x="323.833" y="423"/>
      <point x="332.667" y="412.667"/>
      <point x="338" y="398" type="curve" smooth="yes"/>
      <point x="362" y="329.333"/>
      <point x="395.333" y="277.667"/>
      <point x="438" y="243" type="curve" smooth="yes"/>
      <point x="480.667" y="208.333"/>
      <point x="536.333" y="191"/>
      <point x="605" y="191" type="curve" smooth="yes"/>
      <point x="665.667" y="191"/>
      <point x="713" y="203.167"/>
      <point x="747" y="227.5" type="curve" smooth="yes"/>
      <point x="781" y="251.833"/>
      <point x="801.667" y="285"/>
      <point x="809" y="327" type="curve" smooth="yes"/>
      <point x="814.333" y="355"/>
      <point x="811.333" y="378"/>
      <point x="800" y="396" type="curve" smooth="yes"/>
      <point x="788.667" y="414"/>
      <point x="771.667" y="429"/>
      <point x="749" y="441" type="curve" smooth="yes"/>
      <point x="724.333" y="453.667"/>
      <point x="695" y="464"/>
      <point x="661" y="472" type="curve" smooth="yes"/>
      <point x="627" y="480"/>
      <point x="591.333" y="488"/>
      <point x="554" y="496" type="curve" smooth="yes"/>
      <point x="516.667" y="504"/>
      <point x="479.333" y="513.333"/>
      <point x="442" y="524" type="curve" smooth="yes"/>
      <point x="404.667" y="534.667"/>
      <point x="370.667" y="549"/>
      <point x="340" y="567" type="curve" smooth="yes"/>
      <point x="318.667" y="579"/>
      <point x="299.667" y="593.333"/>
      <point x="283" y="610" type="curve" smooth="yes"/>
      <point x="266.333" y="626.667"/>
      <point x="252.833" y="646.167"/>
      <point x="242.5" y="668.5" type="curve" smooth="yes"/>
      <point x="232.167" y="690.833"/>
      <point x="225.5" y="716.667"/>
      <point x="222.5" y="746" type="curve" smooth="yes"/>
      <point x="219.5" y="775.333"/>
      <point x="221.333" y="808.667"/>
      <point x="228" y="846" type="curve" smooth="yes"/>
      <point x="237.333" y="898.667"/>
      <point x="255.333" y="947.333"/>
      <point x="282" y="992" type="curve" smooth="yes"/>
      <point x="308.667" y="1036.67"/>
      <point x="341.833" y="1075"/>
      <point x="381.5" y="1107" type="curve" smooth="yes"/>
      <point x="421.167" y="1139"/>
      <point x="466.5" y="1164"/>
      <point x="517.5" y="1182" type="curve" smooth="yes"/>
      <point x="568.5" y="1200"/>
      <point x="623" y="1209"/>
      <point x="681" y="1209" type="curve" smooth="yes"/>
      <point x="735" y="1209"/>
      <point x="782.833" y="1200.33"/>
      <point x="824.5" y="1183" type="curve" smooth="yes"/>
      <point x="866.167" y="1165.67"/>
      <point x="901" y="1141"/>
      <point x="929" y="1109" type="curve"/>
      <point x="936" y="1146" type="line" smooth="yes"/>
      <point x="940" y="1168.67"/>
      <point x="950.833" y="1184.83"/>
      <point x="968.5" y="1194.5" type="curve" smooth="yes"/>
      <point x="986.167" y="1204.17"/>
      <point x="1016.33" y="1209"/>
      <point x="1059" y="1209" type="curve" smooth="yes"/>
      <point x="1101.67" y="1209"/>
      <point x="1131.17" y="1204.17"/>
      <point x="1147.5" y="1194.5" type="curve" smooth="yes"/>
      <point x="1163.83" y="1184.83"/>
      <point x="1170" y="1168.67"/>
      <point x="1166" y="1146" type="curve" smooth="yes"/>
      <point x="1117" y="872" type="line" smooth="yes"/>
      <point x="1113" y="849.333"/>
      <point x="1103" y="833.167"/>
      <point x="1087" y="823.5" type="curve" smooth="yes"/>
      <point x="1071" y="813.833"/>
      <point x="1046.67" y="809"/>
      <point x="1014" y="809" type="curve" smooth="yes"/>
      <point x="991.333" y="809"/>
      <point x="974.333" y="811.667"/>
      <point x="963" y="817" type="curve" smooth="yes"/>
      <point x="951.667" y="822.333"/>
      <point x="943.333" y="830.333"/>
      <point x="938" y="841" type="curve" smooth="yes"/>
      <point x="916" y="889"/>
      <point x="883" y="926.833"/>
      <point x="839" y="954.5" type="curve" smooth="yes"/>
      <point x="795" y="982.167"/>
      <point x="739.667" y="996"/>
      <point x="673" y="996" type="curve" smooth="yes"/>
      <point x="623" y="996"/>
      <point x="582.333" y="983.333"/>
      <point x="551" y="958" type="curve" smooth="yes"/>
      <point x="519.667" y="932.667"/>
      <point x="500.667" y="901"/>
      <point x="494" y="863" type="curve" smooth="yes"/>
      <point x="490.667" y="843"/>
      <point x="494.167" y="826.833"/>
      <point x="504.5" y="814.5" type="curve" smooth="yes"/>
      <point x="514.833" y="802.167"/>
      <point x="530" y="791.667"/>
      <point x="550" y="783" type="curve" smooth="yes"/>
      <point x="574" y="773"/>
      <point x="603.667" y="764.833"/>
      <point x="639" y="758.5" type="curve" smooth="yes"/>
      <point x="674.333" y="752.167"/>
      <point x="711.333" y="745"/>
      <point x="750" y="737" type="curve" smooth="yes"/>
      <point x="788.667" y="729"/>
      <point x="827.5" y="719"/>
      <point x="866.5" y="707" type="curve" smooth="yes"/>
      <point x="905.5" y="695"/>
      <point x="940.667" y="678.333"/>
      <point x="972" y="657" type="curve" smooth="yes"/>
      <point x="992" y="643"/>
      <point x="1010.17" y="626.5"/>
      <point x="1026.5" y="607.5" type="curve" smooth="yes"/>
      <point x="1042.83" y="588.5"/>
      <point x="1056" y="566.333"/>
      <point x="1066" y="541" type="curve" smooth="yes"/>
      <point x="1076" y="515.667"/>
      <point x="1082.17" y="486.667"/>
      <point x="1084.5" y="454" type="curve" smooth="yes"/>
      <point x="1086.83" y="421.333"/>
      <point x="1084.33" y="384.667"/>
      <point x="1077" y="344" type="curve" smooth="yes"/>
      <point x="1067.67" y="290"/>
      <point x="1050.5" y="240.5"/>
      <point x="1025.5" y="195.5" type="curve" smooth="yes"/>
      <point x="1000.5" y="150.5"/>
      <point x="968" y="112"/>
      <point x="928" y="80" type="curve" smooth="yes"/>
      <point x="888" y="48"/>
      <point x="840.5" y="23"/>
      <point x="785.5" y="5" type="curve" smooth="yes"/>
      <point x="730.5" y="-13"/>
      <point x="668" y="-22"/>
      <point x="598" y="-22" type="curve" smooth="yes"/>
      <point x="486.667" y="-22"/>
      <point x="398" y="11.6667"/>
      <point x="332" y="79" type="curve"/>
    </contour>
  </outline>
</glyph>
<glyph name="Icyrillic" format="1">
  <advance width="1228"/>
  <unicode hex="0406"/>
  <outline>
    <contour>
      <point x="592" y="982" type="line"/>
      <point x="356" y="982" type="line" smooth="yes"/>
      <point x="344.667" y="982"/>
      <point x="335.333" y="983.333"/>
      <point x="328" y="986" type="curve" smooth="yes"/>
      <point x="320.667" y="988.667"/>
      <point x="315" y="993.667"/>
      <point x="311" y="1001" type="curve" smooth="yes"/>
      <point x="307" y="1008.33"/>
      <point x="305" y="1018.67"/>
      <point x="305" y="1032" type="curve" smooth="yes"/>
      <point x="305" y="1045.33"/>
      <point x="307" y="1062.67"/>
      <point x="311" y="1084" type="curve" smooth="yes"/>
      <point x="315" y="1105.33"/>
      <point x="319.333" y="1122.67"/>
      <point x="324" y="1136" type="curve" smooth="yes"/>
      <point x="328.667" y="1149.33"/>
      <point x="334.167" y="1159.83"/>
      <point x="340.5" y="1167.5" type="curve" smooth="yes"/>
      <point x="346.833" y="1175.17"/>
      <point x="354.167" y="1180.33"/>
      <point x="362.5" y="1183" type="curve" smooth="yes"/>
      <point x="370.833" y="1185.67"/>
      <point x="380.667" y="1187"/>
      <point x="392" y="1187" type="curve" smooth="yes"/>
      <point x="1114" y="1187" type="line" smooth="yes"/>
      <point x="1125.33" y="1187"/>
      <point x="1134.67" y="1185.67"/>
      <point x="1142" y="1183" type="curve" smooth="yes"/>
      <point x="1149.33" y="1180.33"/>
      <point x="1155" y="1175.17"/>
      <point x="1159" y="1167.5" type="curve" smooth="yes"/>
      <point x="1163" y="1159.83"/>
      <point x="1165" y="1149.33"/>
      <point x="1165" y="1136" type="curve" smooth="yes"/>
      <point x="1165" y="1122.67"/>
      <point x="1163" y="1105.33"/>
      <point x="1159" y="1084" type="curve" smooth="yes"/>
      <point x="1155" y="1062.67"/>
      <point x="1150.67" y="1045.33"/>
      <point x="1146" y="1032" type="curve" smooth="yes"/>
      <point x="1141.33" y="1018.67"/>
      <point x="1135.83" y="1008.33"/>
      <point x="1129.5" y="1001" type="curve" smooth="yes"/>
      <point x="1123.17" y="993.667"/>
      <point x="1115.83" y="988.667"/>
      <point x="1107.5" y="986" type="curve" smooth="yes"/>
      <point x="1099.17" y="983.333"/>
      <point x="1089.33" y="982"/>
      <point x="1078" y="982" type="curve" smooth="yes"/>
      <point x="842" y="982" type="line"/>
      <point x="705" y="205" type="line"/>
      <point x="961" y="205" type="line" smooth="yes"/>
      <point x="972.333" y="205"/>
      <point x="981.667" y="203.667"/>
      <point x="989" y="201" type="curve" smooth="yes"/>
      <point x="996.333" y="198.333"/>
      <point x="1001.83" y="193.167"/>
      <point x="1005.5" y="185.5" type="curve" smooth="yes"/>
      <point x="1009.17" y="177.833"/>
      <point x="1011" y="167.333"/>
      <point x="1011" y="154" type="curve" smooth="yes"/>
      <point x="1011" y="140.667"/>
      <point x="1009" y="123.333"/>
      <point x="1005" y="102" type="curve" smooth="yes"/>
      <point x="1001" y="80.6667"/>
      <point x="996.833" y="63.3333"/>
      <point x="992.5" y="50" type="curve" smooth="yes"/>
      <point x="988.167" y="36.6667"/>
      <point x="982.833" y="26.3333"/>
      <point x="976.5" y="19" type="curve" smooth="yes"/>
      <point x="970.167" y="11.6667"/>
      <point x="962.833" y="6.66667"/>
      <point x="954.5" y="4" type="curve" smooth="yes"/>
      <point x="946.167" y="1.33333"/>
      <point x="936.333" y="0"/>
      <point x="925" y="0" type="curve" smooth="yes"/>
      <point x="163" y="0" type="line" smooth="yes"/>
      <point x="151.667" y="0"/>
      <point x="142.167" y="1.33333"/>
      <point x="134.5" y="4" type="curve" smooth="yes"/>
      <point x="126.833" y="6.66667"/>
      <point x="121.167" y="11.6667"/>
      <point x="117.5" y="19" type="curve" smooth="yes"/>
      <point x="113.833" y="26.3333"/>
      <point x="111.833" y="36.6667"/>
      <point x="111.5" y="50" type="curve" smooth="yes"/>
      <point x="111.167" y="63.3333"/>
      <point x="113" y="80.6667"/>
      <point x="117" y="102" type="curve" smooth="yes"/>
      <point x="121" y="123.333"/>
      <point x="125.333" y="140.667"/>
      <point x="130" y="154" type="curve" smooth="yes"/>
      <point x="134.667" y="167.333"/>
      <point x="140.167" y="177.833"/>
      <point x="146.5" y="185.5" type="curve" smooth="yes"/>
      <point x="152.833" y="193.167"/>
      <point x="160.333" y="198.333"/>
      <point x="169" y="201" type="curve" smooth="yes"/>
      <point x="177.667" y="203.667"/>
      <point x="187.667" y="205"/>
      <point x="199" y="205" type="curve" smooth="yes"/>
      <point x="455" y="205" type="line"/>
    </contour>
  </outline>
</glyph>
<glyph name="Yicyrillic" format="1">
  <advance width="1228"/>
  <unicode hex="0407"/>
  <outline>
    <contour>
      <point x="592" y="982" type="line"/>
      <point x="356" y="982" type="line" smooth="yes"/>
      <point x="344.667" y="982"/>
      <point x="335.333" y="983.333"/>
      <point x="328" y="986" type="curve" smooth="yes"/>
      <point x="320.667" y="988.667"/>
      <point x="315" y="993.667"/>
      <point x="311" y="1001" type="curve" smooth="yes"/>
      <point x="307" y="1008.33"/>
      <point x="305" y="1018.67"/>
      <point x="305" y="1032" type="curve" smooth="yes"/>
      <point x="305" y="1045.33"/>
      <point x="307" y="1062.67"/>
      <point x="311" y="1084" type="curve" smooth="yes"/>
      <point x="315" y="1105.33"/>
      <point x="319.333" y="1122.67"/>
      <point x="324" y="1136" type="curve" smooth="yes"/>
      <point x="328.667" y="1149.33"/>
      <point x="334.167" y="1159.83"/>
      <point x="340.5" y="1167.5" type="curve" smooth="yes"/>
      <point x="346.833" y="1175.17"/>
      <point x="354.167" y="1180.33"/>
      <point x="362.5" y="1183" type="curve" smooth="yes"/>
      <point x="370.833" y="1185.67"/>
      <point x="380.667" y="1187"/>
      <point x="392" y="1187" type="curve" smooth="yes"/>
      <point x="1114" y="1187" type="line" smooth="yes"/>
      <point x="1125.33" y="1187"/>
      <point x="1134.67" y="1185.67"/>
      <point x="1142" y="1183" type="curve" smooth="yes"/>
      <point x="1149.33" y="1180.33"/>
      <point x="1155" y="1175.17"/>
      <point x="1159" y="1167.5" type="curve" smooth="yes"/>
      <point x="1163" y="1159.83"/>
      <point x="1165" y="1149.33"/>
      <point x="1165" y="1136" type="curve" smooth="yes"/>
      <point x="1165" y="1122.67"/>
      <point x="1163" y="1105.33"/>
      <point x="1159" y="1084" type="curve" smooth="yes"/>
      <point x="1155" y="1062.67"/>
      <point x="1150.67" y="1045.33"/>
      <point x="1146" y="1032" type="curve" smooth="yes"/>
      <point x="1141.33" y="1018.67"/>
      <point x="1135.83" y="1008.33"/>
      <point x="1129.5" y="1001" type="curve" smooth="yes"/>
      <point x="1123.17" y="993.667"/>
      <point x="1115.83" y="988.667"/>
      <point x="1107.5" y="986" type="curve" smooth="yes"/>
      <point x="1099.17" y="983.333"/>
      <point x="1089.33" y="982"/>
      <point x="1078" y="982" type="curve" smooth="yes"/>
      <point x="842" y="982" type="line"/>
      <point x="705" y="205" type="line"/>
      <point x="961" y="205" type="line" smooth="yes"/>
      <point x="972.333" y="205"/>
      <point x="981.667" y="203.667"/>
      <point x="989" y="201" type="curve" smooth="yes"/>
      <point x="996.333" y="198.333"/>
      <point x="1001.83" y="193.167"/>
      <point x="1005.5" y="185.5" type="curve" smooth="yes"/>
      <point x="1009.17" y="177.833"/>
      <point x="1011" y="167.333"/>
      <point x="1011" y="154" type="curve" smooth="yes"/>
      <point x="1011" y="140.667"/>
      <point x="1009" y="123.333"/>
      <point x="1005" y="102" type="curve" smooth="yes"/>
      <point x="1001" y="80.6667"/>
      <point x="996.833" y="63.3333"/>
      <point x="992.5" y="50" type="curve" smooth="yes"/>
      <point x="988.167" y="36.6667"/>
      <point x="982.833" y="26.3333"/>
      <point x="976.5" y="19" type="curve" smooth="yes"/>
      <point x="970.167" y="11.6667"/>
      <point x="962.833" y="6.66667"/>
      <point x="954.5" y="4" type="curve" smooth="yes"/>
      <point x="946.167" y="1.33333"/>
      <point x="936.333" y="0"/>
      <point x="925" y="0" type="curve" smooth="yes"/>
      <point x="163" y="0" type="line" smooth="yes"/>
      <point x="151.667" y="0"/>
      <point x="142.167" y="1.33333"/>
      <point x="134.5" y="4" type="curve" smooth="yes"/>
      <point x="126.833" y="6.66667"/>
      <point x="121.167" y="11.6667"/>
      <point x="117.5" y="19" type="curve" smooth="yes"/>
      <point x="113.833" y="26.3333"/>
      <point x="111.833" y="36.6667"/>
      <point x="111.5" y="50" type="curve" smooth="yes"/>
      <point x="111.167" y="63.3333"/>
      <point x="113" y="80.6667"/>
      <point x="117" y="102" type="curve" smooth="yes"/>
      <point x="121" y="123.333"/>
      <point x="125.333" y="140.667"/>
      <point x="130" y="154" type="curve" smooth="yes"/>
      <point x="134.667" y="167.333"/>
      <point x="140.167" y="177.833"/>
      <point x="146.5" y="185.5" type="curve" smooth="yes"/>
      <point x="152.833" y="193.167"/>
      <point x="160.333" y="198.333"/>
      <point x="169" y="201" type="curve" smooth="yes"/>
      <point x="177.667" y="203.667"/>
      <point x="187.667" y="205"/>
      <point x="199" y="205" type="curve" smooth="yes"/>
      <point x="455" y="205" type="line"/>
    </contour>
    <contour>
      <point x="412" y="1408" type="curve" smooth="yes"/>
      <point x="415.333" y="1428.67"/>
      <point x="422.5" y="1448.17"/>
      <point x="433.5" y="1466.5" type="curve" smooth="yes"/>
      <point x="444.5" y="1484.83"/>
      <point x="458" y="1500.67"/>
      <point x="474" y="1514" type="curve" smooth="yes"/>
      <point x="490" y="1527.33"/>
      <point x="507.833" y="1538"/>
      <point x="527.5" y="1546" type="curve" smooth="yes"/>
      <point x="547.167" y="1554"/>
      <point x="567.333" y="1558"/>
      <point x="588" y="1558" type="curve" smooth="yes"/>
      <point x="608.667" y="1558"/>
      <point x="627.5" y="1554"/>
      <point x="644.5" y="1546" type="curve" smooth="yes"/>
      <point x="661.5" y="1538"/>
      <point x="675.5" y="1527.33"/>
      <point x="686.5" y="1514" type="curve" smooth="yes"/>
      <point x="697.5" y="1500.67"/>
      <point x="705.333" y="1484.83"/>
      <point x="710" y="1466.5" type="curve" smooth="yes"/>
      <point x="714.667" y="1448.17"/>
      <point x="715.333" y="1428.67"/>
      <point x="712" y="1408" type="curve" smooth="yes"/>
      <point x="708" y="1387.33"/>
      <point x="700.5" y="1367.83"/>
      <point x="689.5" y="1349.5" type="curve" smooth="yes"/>
      <point x="678.5" y="1331.17"/>
      <point x="665" y="1315.33"/>
      <point x="649" y="1302" type="curve" smooth="yes"/>
      <point x="633" y="1288.67"/>
      <point x="615.167" y="1278"/>
      <point x="595.5" y="1270" type="curve" smooth="yes"/>
      <point x="575.833" y="1262"/>
      <point x="555.667" y="1258"/>
      <point x="535" y="1258" type="curve" smooth="yes"/>
      <point x="514.333" y="1258"/>
      <point x="495.5" y="1262"/>
      <point x="478.5" y="1270" type="curve" smooth="yes"/>
      <point x="461.5" y="1278"/>
      <point x="447.5" y="1288.67"/>
      <point x="436.5" y="1302" type="curve" smooth="yes"/>
      <point x="425.5" y="1315.33"/>
      <point x="417.667" y="1331.17"/>
      <point x="413" y="1349.5" type="curve" smooth="yes"/>
      <point x="408.333" y="1367.83"/>
      <point x="408" y="1387.33"/>
    </contour>
    <contour>
      <point x="872" y="1408" type="curve" smooth="yes"/>
      <point x="875.333" y="1428.67"/>
      <point x="882.5" y="1448.17"/>
      <point x="893.5" y="1466.5" type="curve" smooth="yes"/>
      <point x="904.5" y="1484.83"/>
      <point x="918" y="1500.67"/>
      <point x="934" y="1514" type="curve" smooth="yes"/>
      <point x="950" y="1527.33"/>
      <point x="967.833" y="1538"/>
      <point x="987.5" y="1546" type="curve" smooth="yes"/>
      <point x="1007.17" y="1554"/>
      <point x="1027.33" y="1558"/>
      <point x="1048" y="1558" type="curve" smooth="yes"/>
      <point x="1068.67" y="1558"/>
      <point x="1087.5" y="1554"/>
      <point x="1104.5" y="1546" type="curve" smooth="yes"/>
      <point x="1121.5" y="1538"/>
      <point x="1135.5" y="1527.33"/>
      <point x="1146.5" y="1514" type="curve" smooth="yes"/>
      <point x="1157.5" y="1500.67"/>
      <point x="1165.33" y="1484.83"/>
      <point x="1170" y="1466.5" type="curve" smooth="yes"/>
      <point x="1174.67" y="1448.17"/>
      <point x="1175.33" y="1428.67"/>
      <point x="1172" y="1408" type="curve" smooth="yes"/>
      <point x="1168" y="1387.33"/>
      <point x="1160.5" y="1367.83"/>
      <point x="1149.5" y="1349.5" type="curve" smooth="yes"/>
      <point x="1138.5" y="1331.17"/>
      <point x="1125" y="1315.33"/>
      <point x="1109" y="1302" type="curve" smooth="yes"/>
      <point x="1093" y="1288.67"/>
      <point x="1075.17" y="1278"/>
      <point x="1055.5" y="1270" type="curve" smooth="yes"/>
      <point x="1035.83" y="1262"/>
      <point x="1015.67" y="1258"/>
      <point x="995" y="1258" type="curve" smooth="yes"/>
      <point x="974.333" y="1258"/>
      <point x="955.5" y="1262"/>
      <point x="938.5" y="1270" type="curve" smooth="yes"/>
      <point x="921.5" y="1278"/>
      <point x="907.5" y="1288.67"/>
      <point x="896.5" y="1302" type="curve" smooth="yes"/>
      <point x="885.5" y="1315.33"/>
      <point x="877.667" y="1331.17"/>
      <point x="873" y="1349.5" type="curve" smooth="yes"/>
      <point x="868.333" y="1367.83"/>
      <point x="868" y="1387.33"/>
    </contour>
  </outline>
</glyph>
<glyph name="Jecyrillic" format="1">
  <advance width="1228"/>
  <unicode hex="0408"/>
  <outline>
    <contour>
      <point x="476" y="982" type="line" smooth="yes"/>
      <point x="464.667" y="982"/>
      <point x="455.333" y="983.333"/>
      <point x="448" y="986" type="curve" smooth="yes"/>
      <point x="440.667" y="988.667"/>
      <point x="435" y="993.667"/>
      <point x="431" y="1001" type="curve" smooth="yes"/>
      <point x="427" y="1008.33"/>
      <point x="425" y="1018.67"/>
      <point x="425" y="1032" type="curve" smooth="yes"/>
      <point x="425" y="1045.33"/>
      <point x="427" y="1062.67"/>
      <point x="431" y="1084" type="curve" smooth="yes"/>
      <point x="435" y="1105.33"/>
      <point x="439.333" y="1122.67"/>
      <point x="444" y="1136" type="curve" smooth="yes"/>
      <point x="448.667" y="1149.33"/>
      <point x="454.167" y="1159.83"/>
      <point x="460.5" y="1167.5" type="curve" smooth="yes"/>
      <point x="466.833" y="1175.17"/>
      <point x="474.167" y="1180.33"/>
      <point x="482.5" y="1183" type="curve" smooth="yes"/>
      <point x="490.833" y="1185.67"/>
      <point x="500.667" y="1187"/>
      <point x="512" y="1187" type="curve" smooth="yes"/>
      <point x="1254" y="1187" type="line" smooth="yes"/>
      <point x="1265.33" y="1187"/>
      <point x="1274.67" y="1185.67"/>
      <point x="1282" y="1183" type="curve" smooth="yes"/>
      <point x="1289.33" y="1180.33"/>
      <point x="1295" y="1175.17"/>
      <point x="1299" y="1167.5" type="curve" smooth="yes"/>
      <point x="1303" y="1159.83"/>
      <point x="1305" y="1149.33"/>
      <point x="1305" y="1136" type="curve" smooth="yes"/>
      <point x="1305" y="1122.67"/>
      <point x="1303" y="1105.33"/>
      <point x="1299" y="1084" type="curve" smooth="yes"/>
      <point x="1295" y="1062.67"/>
      <point x="1290.67" y="1045.33"/>
      <point x="1286" y="1032" type="curve" smooth="yes"/>
      <point x="1281.33" y="1018.67"/>
      <point x="1275.83" y="1008.33"/>
      <point x="1269.5" y="1001" type="curve" smooth="yes"/>
      <point x="1263.17" y="993.667"/>
      <point x="1255.83" y="988.667"/>
      <point x="1247.5" y="986" type="curve" smooth="yes"/>
      <point x="1239.17" y="983.333"/>
      <point x="1229.33" y="982"/>
      <point x="1218" y="982" type="curve" smooth="yes"/>
      <point x="1032" y="982" type="line"/>
      <point x="923" y="363" type="line" smooth="yes"/>
      <point x="899.667" y="233"/>
      <point x="846.5" y="136.333"/>
      <point x="763.5" y="73" type="curve" smooth="yes"/>
      <point x="680.5" y="9.66667"/>
      <point x="569.333" y="-22"/>
      <point x="430" y="-22" type="curve" smooth="yes"/>
      <point x="272.667" y="-22"/>
      <point x="151.667" y="27"/>
      <point x="67" y="125" type="curve" smooth="yes"/>
      <point x="57.6667" y="135"/>
      <point x="55" y="151.667"/>
      <point x="59" y="175" type="curve" smooth="yes"/>
      <point x="116" y="499" type="line" smooth="yes"/>
      <point x="120" y="521.667"/>
      <point x="133" y="537.833"/>
      <point x="155" y="547.5" type="curve" smooth="yes"/>
      <point x="177" y="557.167"/>
      <point x="212" y="562"/>
      <point x="260" y="562" type="curve" smooth="yes"/>
      <point x="284" y="562"/>
      <point x="303.333" y="560.833"/>
      <point x="318" y="558.5" type="curve" smooth="yes"/>
      <point x="332.667" y="556.167"/>
      <point x="343.833" y="552.5"/>
      <point x="351.5" y="547.5" type="curve" smooth="yes"/>
      <point x="359.167" y="542.5"/>
      <point x="364" y="536"/>
      <point x="366" y="528" type="curve" smooth="yes"/>
      <point x="368" y="520"/>
      <point x="368" y="510.333"/>
      <point x="366" y="499" type="curve" smooth="yes"/>
      <point x="321" y="239" type="line"/>
      <point x="362.333" y="216.333"/>
      <point x="415.667" y="205"/>
      <point x="481" y="205" type="curve" smooth="yes"/>
      <point x="535" y="205"/>
      <point x="578.167" y="219"/>
      <point x="610.5" y="247" type="curve" smooth="yes"/>
      <point x="642.833" y="275"/>
      <point x="664.667" y="320.333"/>
      <point x="676" y="383" type="curve" smooth="yes"/>
      <point x="782" y="982" type="line"/>
    </contour>
  </outline>
</glyph>
<glyph name="Ljecyrillic" format="1">
  <advance width="1228"/>
  <unicode hex="0409"/>
  <outline>
    <contour>
      <point x="541" y="0" type="line" smooth="yes"/>
      <point x="529.667" y="0"/>
      <point x="520.167" y="1.33333"/>
      <point x="512.5" y="4" type="curve" smooth="yes"/>
      <point x="504.833" y="6.66667"/>
      <point x="499.167" y="11.6667"/>
      <point x="495.5" y="19" type="curve" smooth="yes"/>
      <point x="491.833" y="26.3333"/>
      <point x="489.833" y="36.6667"/>
      <point x="489.5" y="50" type="curve" smooth="yes"/>
      <point x="489.167" y="63.3333"/>
      <point x="491" y="80.6667"/>
      <point x="495" y="102" type="curve" smooth="yes"/>
      <point x="499" y="123.333"/>
      <point x="503.333" y="140.667"/>
      <point x="508" y="154" type="curve" smooth="yes"/>
      <point x="512.667" y="167.333"/>
      <point x="518.167" y="177.833"/>
      <point x="524.5" y="185.5" type="curve" smooth="yes"/>
      <point x="530.833" y="193.167"/>
      <point x="538.333" y="198.333"/>
      <point x="547" y="201" type="curve" smooth="yes"/>
      <point x="555.667" y="203.667"/>
      <point x="565.667" y="205"/>
      <point x="577" y="205" type="curve" smooth="yes"/>
      <point x="594" y="205" type="line"/>
      <point x="731" y="982" type="line"/>
      <point x="633" y="982" type="line"/>
      <point x="524" y="363" type="line" smooth="yes"/>
      <point x="500.667" y="233"/>
      <point x="455.833" y="136.333"/>
      <point x="389.5" y="73" type="curve" smooth="yes"/>
      <point x="323.167" y="9.66667"/>
      <point x="238.333" y="-22"/>
      <point x="135" y="-22" type="curve" smooth="yes"/>
      <point x="105.667" y="-22"/>
      <point x="80.8333" y="-20.8333"/>
      <point x="60.5" y="-18.5" type="curve" smooth="yes"/>
      <point x="40.1667" y="-16.1667"/>
      <point x="22.5" y="-12.1667"/>
      <point x="7.5" y="-6.5" type="curve" smooth="yes"/>
      <point x="-7.5" y="-0.833333"/>
      <point x="-20.6667" y="6.16667"/>
      <point x="-32" y="14.5" type="curve" smooth="yes"/>
      <point x="-43.3333" y="22.8333"/>
      <point x="-55" y="33"/>
      <point x="-67" y="45" type="curve" smooth="yes"/>
      <point x="-75" y="54.3333"/>
      <point x="-77" y="71"/>
      <point x="-73" y="95" type="curve" smooth="yes"/>
      <point x="-29" y="349" type="line" smooth="yes"/>
      <point x="-25" y="371.667"/>
      <point x="-12.6667" y="387.833"/>
      <point x="8" y="397.5" type="curve" smooth="yes"/>
      <point x="28.6667" y="407.167"/>
      <point x="60.6667" y="412"/>
      <point x="104" y="412" type="curve" smooth="yes"/>
      <point x="146.667" y="412"/>
      <point x="174.5" y="407.167"/>
      <point x="187.5" y="397.5" type="curve" smooth="yes"/>
      <point x="200.5" y="387.833"/>
      <point x="205" y="371.667"/>
      <point x="201" y="349" type="curve" smooth="yes"/>
      <point x="176" y="205" type="line"/>
      <point x="198" y="205"/>
      <point x="217.5" y="219"/>
      <point x="234.5" y="247" type="curve" smooth="yes"/>
      <point x="251.5" y="275"/>
      <point x="265.667" y="320.333"/>
      <point x="277" y="383" type="curve" smooth="yes"/>
      <point x="383" y="982" type="line"/>
      <point x="336" y="982" type="line" smooth="yes"/>
      <point x="324.667" y="982"/>
      <point x="315.333" y="983.333"/>
      <point x="308" y="986" type="curve" smooth="yes"/>
      <point x="300.667" y="988.667"/>
      <point x="295" y="993.667"/>
      <point x="291" y="1001" type="curve" smooth="yes"/>
      <point x="287" y="1008.33"/>
      <point x="285" y="1018.67"/>
      <point x="285" y="1032" type="curve" smooth="yes"/>
      <point x="285" y="1045.33"/>
      <point x="287" y="1062.67"/>
      <point x="291" y="1084" type="curve" smooth="yes"/>
      <point x="295" y="1105.33"/>
      <point x="299.333" y="1122.67"/>
      <point x="304" y="1136" type="curve" smooth="yes"/>
      <point x="308.667" y="1149.33"/>
      <point x="314.167" y="1159.83"/>
      <point x="320.5" y="1167.5" type="curve" smooth="yes"/>
      <point x="326.833" y="1175.17"/>
      <point x="334.167" y="1180.33"/>
      <point x="342.5" y="1183" type="curve" smooth="yes"/>
      <point x="350.833" y="1185.67"/>
      <point x="360.667" y="1187"/>
      <point x="372" y="1187" type="curve" smooth="yes"/>
      <point x="1064" y="1187" type="line" smooth="yes"/>
      <point x="1075.33" y="1187"/>
      <point x="1084.67" y="1185.67"/>
      <point x="1092" y="1183" type="curve" smooth="yes"/>
      <point x="1099.33" y="1180.33"/>
      <point x="1105" y="1175.17"/>
      <point x="1109" y="1167.5" type="curve" smooth="yes"/>
      <point x="1113" y="1159.83"/>
      <point x="1115" y="1149.33"/>
      <point x="1115" y="1136" type="curve" smooth="yes"/>
      <point x="1115" y="1122.67"/>
      <point x="1113" y="1105.33"/>
      <point x="1109" y="1084" type="curve" smooth="yes"/>
      <point x="1105" y="1062.67"/>
      <point x="1100.67" y="1045.33"/>
      <point x="1096" y="1032" type="curve" smooth="yes"/>
      <point x="1091.33" y="1018.67"/>
      <point x="1085.83" y="1008.33"/>
      <point x="1079.5" y="1001" type="curve" smooth="yes"/>
      <point x="1073.17" y="993.667"/>
      <point x="1065.83" y="988.667"/>
      <point x="1057.5" y="986" type="curve" smooth="yes"/>
      <point x="1049.17" y="983.333"/>
      <point x="1039.33" y="982"/>
      <point x="1028" y="982" type="curve" smooth="yes"/>
      <point x="981" y="982" type="line"/>
      <point x="932" y="708" type="line"/>
      <point x="962" y="708" type="line" smooth="yes"/>
      <point x="1008.67" y="708"/>
      <point x="1050.83" y="700.5"/>
      <point x="1088.5" y="685.5" type="curve" smooth="yes"/>
      <point x="1126.17" y="670.5"/>
      <point x="1157.17" y="648.333"/>
      <point x="1181.5" y="619" type="curve" smooth="yes"/>
      <point x="1205.83" y="589.667"/>
      <point x="1222.5" y="552.833"/>
      <point x="1231.5" y="508.5" type="curve" smooth="yes"/>
      <point x="1240.5" y="464.167"/>
      <point x="1240" y="412.667"/>
      <point x="1230" y="354" type="curve" smooth="yes"/>
      <point x="1219.33" y="295.333"/>
      <point x="1201.83" y="243.833"/>
      <point x="1177.5" y="199.5" type="curve" smooth="yes"/>
      <point x="1153.17" y="155.167"/>
      <point x="1123.67" y="118.333"/>
      <point x="1089" y="89" type="curve" smooth="yes"/>
      <point x="1054.33" y="59.6667"/>
      <point x="1015.5" y="37.5"/>
      <point x="972.5" y="22.5" type="curve" smooth="yes"/>
      <point x="929.5" y="7.5"/>
      <point x="884.667" y="0"/>
      <point x="838" y="0" type="curve" smooth="yes"/>
    </contour>
    <contour>
      <point x="847" y="215" type="line" smooth="yes"/>
      <point x="877" y="215"/>
      <point x="902.5" y="226.667"/>
      <point x="923.5" y="250" type="curve" smooth="yes"/>
      <point x="944.5" y="273.333"/>
      <point x="959" y="308"/>
      <point x="967" y="354" type="curve" smooth="yes"/>
      <point x="976.333" y="404"/>
      <point x="974.333" y="440.667"/>
      <point x="961" y="464" type="curve" smooth="yes"/>
      <point x="947.667" y="487.333"/>
      <point x="926.333" y="499"/>
      <point x="897" y="499" type="curve" smooth="yes"/>
      <point x="895" y="499" type="line"/>
      <point x="845" y="215" type="line"/>
    </contour>
  </outline>
</glyph>
<glyph name="Njecyrillic" format="1">
  <advance width="1228"/>
  <unicode hex="040A"/>
  <outline>
    <contour>
      <point x="1024" y="1187" type="line" smooth="yes"/>
      <point x="1035.33" y="1187"/>
      <point x="1044.67" y="1185.67"/>
      <point x="1052" y="1183" type="curve" smooth="yes"/>
      <point x="1059.33" y="1180.33"/>
      <point x="1065" y="1175.17"/>
      <point x="1069" y="1167.5" type="curve" smooth="yes"/>
      <point x="1073" y="1159.83"/>
      <point x="1075" y="1149.33"/>
      <point x="1075" y="1136" type="curve" smooth="yes"/>
      <point x="1075" y="1122.67"/>
      <point x="1073" y="1105.33"/>
      <point x="1069" y="1084" type="curve" smooth="yes"/>
      <point x="1065" y="1062.67"/>
      <point x="1060.67" y="1045.33"/>
      <point x="1056" y="1032" type="curve" smooth="yes"/>
      <point x="1051.33" y="1018.67"/>
      <point x="1045.83" y="1008.33"/>
      <point x="1039.5" y="1001" type="curve" smooth="yes"/>
      <point x="1033.17" y="993.667"/>
      <point x="1025.83" y="988.667"/>
      <point x="1017.5" y="986" type="curve" smooth="yes"/>
      <point x="1009.17" y="983.333"/>
      <point x="999.333" y="982"/>
      <point x="988" y="982" type="curve" smooth="yes"/>
      <point x="941" y="982" type="line"/>
      <point x="892" y="708" type="line"/>
      <point x="922" y="708" type="line" smooth="yes"/>
      <point x="978.667" y="708"/>
      <point x="1028" y="700.5"/>
      <point x="1070" y="685.5" type="curve" smooth="yes"/>
      <point x="1112" y="670.5"/>
      <point x="1145.83" y="648.333"/>
      <point x="1171.5" y="619" type="curve" smooth="yes"/>
      <point x="1197.17" y="589.667"/>
      <point x="1214.17" y="552.833"/>
      <point x="1222.5" y="508.5" type="curve" smooth="yes"/>
      <point x="1230.83" y="464.167"/>
      <point x="1230" y="412.667"/>
      <point x="1220" y="354" type="curve" smooth="yes"/>
      <point x="1198.67" y="236"/>
      <point x="1151.5" y="147.5"/>
      <point x="1078.5" y="88.5" type="curve" smooth="yes"/>
      <point x="1005.5" y="29.5"/>
      <point x="912" y="0"/>
      <point x="798" y="0" type="curve" smooth="yes"/>
      <point x="491" y="0" type="line" smooth="yes"/>
      <point x="479.667" y="0"/>
      <point x="470.167" y="1.33333"/>
      <point x="462.5" y="4" type="curve" smooth="yes"/>
      <point x="454.833" y="6.66667"/>
      <point x="449.167" y="11.6667"/>
      <point x="445.5" y="19" type="curve" smooth="yes"/>
      <point x="441.833" y="26.3333"/>
      <point x="439.833" y="36.6667"/>
      <point x="439.5" y="50" type="curve" smooth="yes"/>
      <point x="439.167" y="63.3333"/>
      <point x="441" y="80.6667"/>
      <point x="445" y="102" type="curve" smooth="yes"/>
      <point x="449" y="123.333"/>
      <point x="453.333" y="140.667"/>
      <point x="458" y="154" type="curve" smooth="yes"/>
      <point x="462.667" y="167.333"/>
      <point x="468.167" y="177.833"/>
      <point x="474.5" y="185.5" type="curve" smooth="yes"/>
      <point x="480.833" y="193.167"/>
      <point x="488.333" y="198.333"/>
      <point x="497" y="201" type="curve" smooth="yes"/>
      <point x="505.667" y="203.667"/>
      <point x="515.667" y="205"/>
      <point x="527" y="205" type="curve" smooth="yes"/>
      <point x="554" y="205" type="line"/>
      <point x="605" y="499" type="line"/>
      <point x="377" y="499" type="line"/>
      <point x="326" y="205" type="line"/>
      <point x="353" y="205" type="line" smooth="yes"/>
      <point x="364.333" y="205"/>
      <point x="373.667" y="203.667"/>
      <point x="381" y="201" type="curve" smooth="yes"/>
      <point x="388.333" y="198.333"/>
      <point x="393.833" y="193.167"/>
      <point x="397.5" y="185.5" type="curve" smooth="yes"/>
      <point x="401.167" y="177.833"/>
      <point x="403" y="167.333"/>
      <point x="403" y="154" type="curve" smooth="yes"/>
      <point x="403" y="140.667"/>
      <point x="401" y="123.333"/>
      <point x="397" y="102" type="curve" smooth="yes"/>
      <point x="393" y="80.6667"/>
      <point x="388.833" y="63.3333"/>
      <point x="384.5" y="50" type="curve" smooth="yes"/>
      <point x="380.167" y="36.6667"/>
      <point x="374.833" y="26.3333"/>
      <point x="368.5" y="19" type="curve" smooth="yes"/>
      <point x="362.167" y="11.6667"/>
      <point x="354.833" y="6.66667"/>
      <point x="346.5" y="4" type="curve" smooth="yes"/>
      <point x="338.167" y="1.33333"/>
      <point x="328.333" y="0"/>
      <point x="317" y="0" type="curve" smooth="yes"/>
      <point x="-7" y="0" type="line" smooth="yes"/>
      <point x="-18.3333" y="0"/>
      <point x="-27.8333" y="1.33333"/>
      <point x="-35.5" y="4" type="curve" smooth="yes"/>
      <point x="-43.1667" y="6.66667"/>
      <point x="-48.8333" y="11.6667"/>
      <point x="-52.5" y="19" type="curve" smooth="yes"/>
      <point x="-56.1667" y="26.3333"/>
      <point x="-58.1667" y="36.6667"/>
      <point x="-58.5" y="50" type="curve" smooth="yes"/>
      <point x="-58.8333" y="63.3333"/>
      <point x="-57" y="80.6667"/>
      <point x="-53" y="102" type="curve" smooth="yes"/>
      <point x="-49" y="123.333"/>
      <point x="-44.6667" y="140.667"/>
      <point x="-40" y="154" type="curve" smooth="yes"/>
      <point x="-35.3333" y="167.333"/>
      <point x="-29.8333" y="177.833"/>
      <point x="-23.5" y="185.5" type="curve" smooth="yes"/>
      <point x="-17.1667" y="193.167"/>
      <point x="-9.66667" y="198.333"/>
      <point x="-1" y="201" type="curve" smooth="yes"/>
      <point x="7.66667" y="203.667"/>
      <point x="17.6667" y="205"/>
      <point x="29" y="205" type="curve" smooth="yes"/>
      <point x="76" y="205" type="line"/>
      <point x="213" y="982" type="line"/>
      <point x="166" y="982" type="line" smooth="yes"/>
      <point x="154.667" y="982"/>
      <point x="145.333" y="983.333"/>
      <point x="138" y="986" type="curve" smooth="yes"/>
      <point x="130.667" y="988.667"/>
      <point x="125" y="993.667"/>
      <point x="121" y="1001" type="curve" smooth="yes"/>
      <point x="117" y="1008.33"/>
      <point x="115" y="1018.67"/>
      <point x="115" y="1032" type="curve" smooth="yes"/>
      <point x="115" y="1045.33"/>
      <point x="117" y="1062.67"/>
      <point x="121" y="1084" type="curve" smooth="yes"/>
      <point x="125" y="1105.33"/>
      <point x="129.333" y="1122.67"/>
      <point x="134" y="1136" type="curve" smooth="yes"/>
      <point x="138.667" y="1149.33"/>
      <point x="144.167" y="1159.83"/>
      <point x="150.5" y="1167.5" type="curve" smooth="yes"/>
      <point x="156.833" y="1175.17"/>
      <point x="164.167" y="1180.33"/>
      <point x="172.5" y="1183" type="curve" smooth="yes"/>
      <point x="180.833" y="1185.67"/>
      <point x="190.667" y="1187"/>
      <point x="202" y="1187" type="curve" smooth="yes"/>
      <point x="526" y="1187" type="line" smooth="yes"/>
      <point x="537.333" y="1187"/>
      <point x="546.667" y="1185.67"/>
      <point x="554" y="1183" type="curve" smooth="yes"/>
      <point x="561.333" y="1180.33"/>
      <point x="567" y="1175.17"/>
      <point x="571" y="1167.5" type="curve" smooth="yes"/>
      <point x="575" y="1159.83"/>
      <point x="577" y="1149.33"/>
      <point x="577" y="1136" type="curve" smooth="yes"/>
      <point x="577" y="1122.67"/>
      <point x="575" y="1105.33"/>
      <point x="571" y="1084" type="curve" smooth="yes"/>
      <point x="567" y="1062.67"/>
      <point x="562.667" y="1045.33"/>
      <point x="558" y="1032" type="curve" smooth="yes"/>
      <point x="553.333" y="1018.67"/>
      <point x="547.833" y="1008.33"/>
      <point x="541.5" y="1001" type="curve" smooth="yes"/>
      <point x="535.167" y="993.667"/>
      <point x="527.833" y="988.667"/>
      <point x="519.5" y="986" type="curve" smooth="yes"/>
      <point x="511.167" y="983.333"/>
      <point x="501.333" y="982"/>
      <point x="490" y="982" type="curve" smooth="yes"/>
      <point x="463" y="982" type="line"/>
      <point x="414" y="708" type="line"/>
      <point x="642" y="708" type="line"/>
      <point x="691" y="982" type="line"/>
      <point x="664" y="982" type="line" smooth="yes"/>
      <point x="652.667" y="982"/>
      <point x="643.333" y="983.333"/>
      <point x="636" y="986" type="curve" smooth="yes"/>
      <point x="628.667" y="988.667"/>
      <point x="623" y="993.667"/>
      <point x="619" y="1001" type="curve" smooth="yes"/>
      <point x="615" y="1008.33"/>
      <point x="613" y="1018.67"/>
      <point x="613" y="1032" type="curve" smooth="yes"/>
      <point x="613" y="1045.33"/>
      <point x="615" y="1062.67"/>
      <point x="619" y="1084" type="curve" smooth="yes"/>
      <point x="623" y="1105.33"/>
      <point x="627.333" y="1122.67"/>
      <point x="632" y="1136" type="curve" smooth="yes"/>
      <point x="636.667" y="1149.33"/>
      <point x="642.167" y="1159.83"/>
      <point x="648.5" y="1167.5" type="curve" smooth="yes"/>
      <point x="654.833" y="1175.17"/>
      <point x="662.167" y="1180.33"/>
      <point x="670.5" y="1183" type="curve" smooth="yes"/>
      <point x="678.833" y="1185.67"/>
      <point x="688.667" y="1187"/>
      <point x="700" y="1187" type="curve" smooth="yes"/>
    </contour>
    <contour>
      <point x="807" y="215" type="line" smooth="yes"/>
      <point x="845.667" y="215"/>
      <point x="878.333" y="226.667"/>
      <point x="905" y="250" type="curve" smooth="yes"/>
      <point x="931.667" y="273.333"/>
      <point x="949" y="308"/>
      <point x="957" y="354" type="curve" smooth="yes"/>
      <point x="966.333" y="404"/>
      <point x="961.5" y="440.667"/>
      <point x="942.5" y="464" type="curve" smooth="yes"/>
      <point x="923.5" y="487.333"/>
      <point x="895" y="499"/>
      <point x="857" y="499" type="curve" smooth="yes"/>
      <point x="855" y="499" type="line"/>
      <point x="805" y="215" type="line"/>
    </contour>
  </outline>
</glyph>
<glyph name="Tshecyrillic" format="1">
  <advance width="1228"/>
  <unicode hex="040B"/>
  <outline>
    <contour>
      <point x="420" y="972" type="line"/>
      <point x="319" y="972" type="line"/>
      <point x="271" y="700" type="line" smooth="yes"/>
      <point x="267" y="677.333"/>
      <point x="255" y="661.167"/>
      <point x="235" y="651.5" type="curve" smooth="yes"/>
      <point x="215" y="641.833"/>
      <point x="186" y="637"/>
      <point x="148" y="637" type="curve" smooth="yes"/>
      <point x="110.667" y="637"/>
      <point x="85.8333" y="641.833"/>
      <point x="73.5" y="651.5" type="curve" smooth="yes"/>
      <point x="61.1667" y="661.167"/>
      <point x="57" y="677.333"/>
      <point x="61" y="700" type="curve" smooth="yes"/>
      <point x="135" y="1122" type="line" smooth="yes"/>
      <point x="139.667" y="1145.33"/>
      <point x="147.833" y="1162"/>
      <point x="159.5" y="1172" type="curve" smooth="yes"/>
      <point x="171.167" y="1182"/>
      <point x="188.667" y="1187"/>
      <point x="212" y="1187" type="curve" smooth="yes"/>
      <point x="954" y="1187" type="line" smooth="yes"/>
      <point x="977.333" y="1187"/>
      <point x="993.167" y="1182"/>
      <point x="1001.5" y="1172" type="curve" smooth="yes"/>
      <point x="1009.83" y="1162"/>
      <point x="1011.67" y="1145.33"/>
      <point x="1007" y="1122" type="curve" smooth="yes"/>
      <point x="951" y="800" type="line" smooth="yes"/>
      <point x="947" y="777.333"/>
      <point x="934.833" y="761.167"/>
      <point x="914.5" y="751.5" type="curve" smooth="yes"/>
      <point x="894.167" y="741.833"/>
      <point x="865" y="737"/>
      <point x="827" y="737" type="curve" smooth="yes"/>
      <point x="789.667" y="737"/>
      <point x="765" y="741.833"/>
      <point x="753" y="751.5" type="curve" smooth="yes"/>
      <point x="741" y="761.167"/>
      <point x="737" y="777.333"/>
      <point x="741" y="800" type="curve" smooth="yes"/>
      <point x="771" y="972" type="line"/>
      <point x="670" y="972" type="line"/>
      <point x="613" y="647" type="line"/>
      <point x="643.667" y="659"/>
      <point x="676.5" y="669"/>
      <point x="711.5" y="677" type="curve" smooth="yes"/>
      <point x="746.5" y="685"/>
      <point x="783.333" y="689"/>
      <point x="822" y="689" type="curve" smooth="yes"/>
      <point x="874" y="689"/>
      <point x="919.5" y="681.333"/>
      <point x="958.5" y="666" type="curve" smooth="yes"/>
      <point x="997.5" y="650.667"/>
      <point x="1029" y="629"/>
      <point x="1053" y="601" type="curve" smooth="yes"/>
      <point x="1077" y="573"/>
      <point x="1093.33" y="538.833"/>
      <point x="1102" y="498.5" type="curve" smooth="yes"/>
      <point x="1110.67" y="458.167"/>
      <point x="1110.67" y="413"/>
      <point x="1102" y="363" type="curve" smooth="yes"/>
      <point x="1074" y="205" type="line"/>
      <point x="1131" y="205" type="line" smooth="yes"/>
      <point x="1142.33" y="205"/>
      <point x="1151.67" y="203.667"/>
      <point x="1159" y="201" type="curve" smooth="yes"/>
      <point x="1166.33" y="198.333"/>
      <point x="1172" y="193.333"/>
      <point x="1176" y="186" type="curve" smooth="yes"/>
      <point x="1180" y="178.667"/>
      <point x="1182" y="168.333"/>
      <point x="1182" y="155" type="curve" smooth="yes"/>
      <point x="1182" y="141.667"/>
      <point x="1180" y="124.333"/>
      <point x="1176" y="103" type="curve" smooth="yes"/>
      <point x="1172" y="81.6667"/>
      <point x="1167.67" y="64.3333"/>
      <point x="1163" y="51" type="curve" smooth="yes"/>
      <point x="1158.33" y="37.6667"/>
      <point x="1152.83" y="27.1667"/>
      <point x="1146.5" y="19.5" type="curve" smooth="yes"/>
      <point x="1140.17" y="11.8333"/>
      <point x="1132.83" y="6.66667"/>
      <point x="1124.5" y="4" type="curve" smooth="yes"/>
      <point x="1116.17" y="1.33333"/>
      <point x="1106.33" y="0"/>
      <point x="1095" y="0" type="curve" smooth="yes"/>
      <point x="731" y="0" type="line" smooth="yes"/>
      <point x="719.667" y="0"/>
      <point x="710.333" y="1.33333"/>
      <point x="703" y="4" type="curve" smooth="yes"/>
      <point x="695.667" y="6.66667"/>
      <point x="690" y="11.8333"/>
      <point x="686" y="19.5" type="curve" smooth="yes"/>
      <point x="682" y="27.1667"/>
      <point x="680" y="37.6667"/>
      <point x="680" y="51" type="curve" smooth="yes"/>
      <point x="680" y="64.3333"/>
      <point x="682" y="81.6667"/>
      <point x="686" y="103" type="curve" smooth="yes"/>
      <point x="690" y="124.333"/>
      <point x="694.333" y="141.667"/>
      <point x="699" y="155" type="curve" smooth="yes"/>
      <point x="703.667" y="168.333"/>
      <point x="709.167" y="178.667"/>
      <point x="715.5" y="186" type="curve" smooth="yes"/>
      <point x="721.833" y="193.333"/>
      <point x="729.167" y="198.333"/>
      <point x="737.5" y="201" type="curve" smooth="yes"/>
      <point x="745.833" y="203.667"/>
      <point x="755.667" y="205"/>
      <point x="767" y="205" type="curve" smooth="yes"/>
      <point x="824" y="205" type="line"/>
      <point x="849" y="348" type="line" smooth="yes"/>
      <point x="855" y="382"/>
      <point x="850.5" y="409.333"/>
      <point x="835.5" y="430" type="curve" smooth="yes"/>
      <point x="820.5" y="450.667"/>
      <point x="794.333" y="461"/>
      <point x="757" y="461" type="curve" smooth="yes"/>
      <point x="723" y="461"/>
      <point x="690.667" y="457.333"/>
      <point x="660" y="450" type="curve" smooth="yes"/>
      <point x="629.333" y="442.667"/>
      <point x="600.333" y="433"/>
      <point x="573" y="421" type="curve"/>
      <point x="535" y="205" type="line"/>
      <point x="592" y="205" type="line" smooth="yes"/>
      <point x="603.333" y="205"/>
      <point x="612.667" y="203.667"/>
      <point x="620" y="201" type="curve" smooth="yes"/>
      <point x="627.333" y="198.333"/>
      <point x="632.833" y="193.167"/>
      <point x="636.5" y="185.5" type="curve" smooth="yes"/>
      <point x="640.167" y="177.833"/>
      <point x="642" y="167.333"/>
      <point x="642" y="154" type="curve" smooth="yes"/>
      <point x="642" y="140.667"/>
      <point x="640" y="123.333"/>
      <point x="636" y="102" type="curve" smooth="yes"/>
      <point x="632" y="80.6667"/>
      <point x="627.833" y="63.3333"/>
      <point x="623.5" y="50" type="curve" smooth="yes"/>
      <point x="619.167" y="36.6667"/>
      <point x="613.833" y="26.3333"/>
      <point x="607.5" y="19" type="curve" smooth="yes"/>
      <point x="601.167" y="11.6667"/>
      <point x="593.833" y="6.66667"/>
      <point x="585.5" y="4" type="curve" smooth="yes"/>
      <point x="577.167" y="1.33333"/>
      <point x="567.333" y="0"/>
      <point x="556" y="0" type="curve" smooth="yes"/>
      <point x="158" y="0" type="line" smooth="yes"/>
      <point x="146.667" y="0"/>
      <point x="137.167" y="1.33333"/>
      <point x="129.5" y="4" type="curve" smooth="yes"/>
      <point x="121.833" y="6.66667"/>
      <point x="116.167" y="11.6667"/>
      <point x="112.5" y="19" type="curve" smooth="yes"/>
      <point x="108.833" y="26.3333"/>
      <point x="106.833" y="36.6667"/>
      <point x="106.5" y="50" type="curve" smooth="yes"/>
      <point x="106.167" y="63.3333"/>
      <point x="108" y="80.6667"/>
      <point x="112" y="102" type="curve" smooth="yes"/>
      <point x="116" y="123.333"/>
      <point x="120.333" y="140.667"/>
      <point x="125" y="154" type="curve" smooth="yes"/>
      <point x="129.667" y="167.333"/>
      <point x="135.167" y="177.833"/>
      <point x="141.5" y="185.5" type="curve" smooth="yes"/>
      <point x="147.833" y="193.167"/>
      <point x="155.333" y="198.333"/>
      <point x="164" y="201" type="curve" smooth="yes"/>
      <point x="172.667" y="203.667"/>
      <point x="182.667" y="205"/>
      <point x="194" y="205" type="curve" smooth="yes"/>
      <point x="285" y="205" type="line"/>
    </contour>
  </outline>
</glyph>
<glyph name="Kjecyrillic" format="1">
  <advance width="1228"/>
  <unicode hex="040C"/>
  <outline>
    <contour>
      <point x="436" y="205" type="line"/>
      <point x="551" y="205" type="line" smooth="yes"/>
      <point x="562.333" y="205"/>
      <point x="571.667" y="203.667"/>
      <point x="579" y="201" type="curve" smooth="yes"/>
      <point x="586.333" y="198.333"/>
      <point x="591.833" y="193.167"/>
      <point x="595.5" y="185.5" type="curve" smooth="yes"/>
      <point x="599.167" y="177.833"/>
      <point x="601" y="167.333"/>
      <point x="601" y="154" type="curve" smooth="yes"/>
      <point x="601" y="140.667"/>
      <point x="599" y="123.333"/>
      <point x="595" y="102" type="curve" smooth="yes"/>
      <point x="591" y="80.6667"/>
      <point x="586.833" y="63.3333"/>
      <point x="582.5" y="50" type="curve" smooth="yes"/>
      <point x="578.167" y="36.6667"/>
      <point x="572.833" y="26.3333"/>
      <point x="566.5" y="19" type="curve" smooth="yes"/>
      <point x="560.167" y="11.6667"/>
      <point x="552.833" y="6.66667"/>
      <point x="544.5" y="4" type="curve" smooth="yes"/>
      <point x="536.167" y="1.33333"/>
      <point x="526.333" y="0"/>
      <point x="515" y="0" type="curve" smooth="yes"/>
      <point x="43" y="0" type="line" smooth="yes"/>
      <point x="31.6667" y="0"/>
      <point x="22.1667" y="1.33333"/>
      <point x="14.5" y="4" type="curve" smooth="yes"/>
      <point x="6.83333" y="6.66667"/>
      <point x="1.16667" y="11.6667"/>
      <point x="-2.5" y="19" type="curve" smooth="yes"/>
      <point x="-6.16667" y="26.3333"/>
      <point x="-8.16667" y="36.6667"/>
      <point x="-8.5" y="50" type="curve" smooth="yes"/>
      <point x="-8.83333" y="63.3333"/>
      <point x="-7" y="80.6667"/>
      <point x="-3" y="102" type="curve" smooth="yes"/>
      <point x="1" y="123.333"/>
      <point x="5.33333" y="140.667"/>
      <point x="10" y="154" type="curve" smooth="yes"/>
      <point x="14.6667" y="167.333"/>
      <point x="20.1667" y="177.833"/>
      <point x="26.5" y="185.5" type="curve" smooth="yes"/>
      <point x="32.8333" y="193.167"/>
      <point x="40.3333" y="198.333"/>
      <point x="49" y="201" type="curve" smooth="yes"/>
      <point x="57.6667" y="203.667"/>
      <point x="67.6667" y="205"/>
      <point x="79" y="205" type="curve" smooth="yes"/>
      <point x="186" y="205" type="line"/>
      <point x="323" y="982" type="line"/>
      <point x="216" y="982" type="line" smooth="yes"/>
      <point x="204.667" y="982"/>
      <point x="195.333" y="983.333"/>
      <point x="188" y="986" type="curve" smooth="yes"/>
      <point x="180.667" y="988.667"/>
      <point x="175" y="993.667"/>
      <point x="171" y="1001" type="curve" smooth="yes"/>
      <point x="167" y="1008.33"/>
      <point x="165" y="1018.67"/>
      <point x="165" y="1032" type="curve" smooth="yes"/>
      <point x="165" y="1045.33"/>
      <point x="167" y="1062.67"/>
      <point x="171" y="1084" type="curve" smooth="yes"/>
      <point x="175" y="1105.33"/>
      <point x="179.333" y="1122.67"/>
      <point x="184" y="1136" type="curve" smooth="yes"/>
      <point x="188.667" y="1149.33"/>
      <point x="194.167" y="1159.83"/>
      <point x="200.5" y="1167.5" type="curve" smooth="yes"/>
      <point x="206.833" y="1175.17"/>
      <point x="214.167" y="1180.33"/>
      <point x="222.5" y="1183" type="curve" smooth="yes"/>
      <point x="230.833" y="1185.67"/>
      <point x="240.667" y="1187"/>
      <point x="252" y="1187" type="curve" smooth="yes"/>
      <point x="656" y="1187" type="line" smooth="yes"/>
      <point x="667.333" y="1187"/>
      <point x="676.667" y="1185.67"/>
      <point x="684" y="1183" type="curve" smooth="yes"/>
      <point x="691.333" y="1180.33"/>
      <point x="697" y="1175.17"/>
      <point x="701" y="1167.5" type="curve" smooth="yes"/>
      <point x="705" y="1159.83"/>
      <point x="707" y="1149.33"/>
      <point x="707" y="1136" type="curve" smooth="yes"/>
      <point x="707" y="1122.67"/>
      <point x="705" y="1105.33"/>
      <point x="701" y="1084" type="curve" smooth="yes"/>
      <point x="697" y="1062.67"/>
      <point x="692.667" y="1045.33"/>
      <point x="688" y="1032" type="curve" smooth="yes"/>
      <point x="683.333" y="1018.67"/>
      <point x="677.833" y="1008.33"/>
      <point x="671.5" y="1001" type="curve" smooth="yes"/>
      <point x="665.167" y="993.667"/>
      <point x="657.833" y="988.667"/>
      <point x="649.5" y="986" type="curve" smooth="yes"/>
      <point x="641.167" y="983.333"/>
      <point x="631.333" y="982"/>
      <point x="620" y="982" type="curve" smooth="yes"/>
      <point x="573" y="982" type="line"/>
      <point x="526" y="719" type="line"/>
      <point x="541" y="719" type="line" smooth="yes"/>
      <point x="565.667" y="719"/>
      <point x="588.667" y="726"/>
      <point x="610" y="740" type="curve" smooth="yes"/>
      <point x="631.333" y="754"/>
      <point x="652" y="772.5"/>
      <point x="672" y="795.5" type="curve" smooth="yes"/>
      <point x="692" y="818.5"/>
      <point x="711.667" y="844.667"/>
      <point x="731" y="874" type="curve" smooth="yes"/>
      <point x="750.333" y="903.333"/>
      <point x="770.333" y="933.333"/>
      <point x="791" y="964" type="curve" smooth="yes"/>
      <point x="811.667" y="994.667"/>
      <point x="833.5" y="1024.67"/>
      <point x="856.5" y="1054" type="curve" smooth="yes"/>
      <point x="879.5" y="1083.33"/>
      <point x="904.833" y="1109.5"/>
      <point x="932.5" y="1132.5" type="curve" smooth="yes"/>
      <point x="960.167" y="1155.5"/>
      <point x="990.333" y="1174"/>
      <point x="1023" y="1188" type="curve" smooth="yes"/>
      <point x="1055.67" y="1202"/>
      <point x="1092" y="1209"/>
      <point x="1132" y="1209" type="curve" smooth="yes"/>
      <point x="1162" y="1209"/>
      <point x="1189.5" y="1203.83"/>
      <point x="1214.5" y="1193.5" type="curve" smooth="yes"/>
      <point x="1239.5" y="1183.17"/>
      <point x="1260" y="1168"/>
      <point x="1276" y="1148" type="curve" smooth="yes"/>
      <point x="1281.33" y="1141.33"/>
      <point x="1284.33" y="1133.83"/>
      <point x="1285" y="1125.5" type="curve" smooth="yes"/>
      <point x="1285.67" y="1117.17"/>
      <point x="1285" y="1107.67"/>
      <point x="1283" y="1097" type="curve" smooth="yes"/>
      <point x="1237" y="838" type="line" smooth="yes"/>
      <point x="1233" y="815.333"/>
      <point x="1220.67" y="799.167"/>
      <point x="1200" y="789.5" type="curve" smooth="yes"/>
      <point x="1179.33" y="779.833"/>
      <point x="1147.33" y="775"/>
      <point x="1104" y="775" type="curve" smooth="yes"/>
      <point x="1061.33" y="775"/>
      <point x="1033.5" y="779.833"/>
      <point x="1020.5" y="789.5" type="curve" smooth="yes"/>
      <point x="1007.5" y="799.167"/>
      <point x="1003" y="815.333"/>
      <point x="1007" y="838" type="curve" smooth="yes"/>
      <point x="1031" y="974" type="line"/>
      <point x="1012.33" y="953.333"/>
      <point x="993.667" y="928.167"/>
      <point x="975" y="898.5" type="curve" smooth="yes"/>
      <point x="956.333" y="868.833"/>
      <point x="936.5" y="838.167"/>
      <point x="915.5" y="806.5" type="curve" smooth="yes"/>
      <point x="894.5" y="774.833"/>
      <point x="872" y="744.333"/>
      <point x="848" y="715" type="curve" smooth="yes"/>
      <point x="824" y="685.667"/>
      <point x="797.667" y="660.667"/>
      <point x="769" y="640" type="curve"/>
      <point x="773" y="640" type="line" smooth="yes"/>
      <point x="816.333" y="640"/>
      <point x="851.5" y="629.333"/>
      <point x="878.5" y="608" type="curve" smooth="yes"/>
      <point x="905.5" y="586.667"/>
      <point x="927.667" y="559.833"/>
      <point x="945" y="527.5" type="curve" smooth="yes"/>
      <point x="962.333" y="495.167"/>
      <point x="976.5" y="460.167"/>
      <point x="987.5" y="422.5" type="curve" smooth="yes"/>
      <point x="998.5" y="384.833"/>
      <point x="1009.67" y="349.833"/>
      <point x="1021" y="317.5" type="curve" smooth="yes"/>
      <point x="1032.33" y="285.167"/>
      <point x="1045.5" y="258.333"/>
      <point x="1060.5" y="237" type="curve" smooth="yes"/>
      <point x="1075.5" y="215.667"/>
      <point x="1095.67" y="205"/>
      <point x="1121" y="205" type="curve" smooth="yes"/>
      <point x="1131" y="205" type="line" smooth="yes"/>
      <point x="1142.33" y="205"/>
      <point x="1151.67" y="203.667"/>
      <point x="1159" y="201" type="curve" smooth="yes"/>
      <point x="1166.33" y="198.333"/>
      <point x="1171.83" y="193.167"/>
      <point x="1175.5" y="185.5" type="curve" smooth="yes"/>
      <point x="1179.17" y="177.833"/>
      <point x="1181" y="167.333"/>
      <point x="1181" y="154" type="curve" smooth="yes"/>
      <point x="1181" y="140.667"/>
      <point x="1179" y="123.333"/>
      <point x="1175" y="102" type="curve" smooth="yes"/>
      <point x="1171" y="80.6667"/>
      <point x="1166.83" y="63.3333"/>
      <point x="1162.5" y="50" type="curve" smooth="yes"/>
      <point x="1158.17" y="36.6667"/>
      <point x="1152.83" y="26.3333"/>
      <point x="1146.5" y="19" type="curve" smooth="yes"/>
      <point x="1140.17" y="11.6667"/>
      <point x="1132.83" y="6.66667"/>
      <point x="1124.5" y="4" type="curve" smooth="yes"/>
      <point x="1116.17" y="1.33333"/>
      <point x="1106.33" y="0"/>
      <point x="1095" y="0" type="curve" smooth="yes"/>
      <point x="966" y="0" type="line" smooth="yes"/>
      <point x="934.667" y="0"/>
      <point x="908" y="7.16667"/>
      <point x="886" y="21.5" type="curve" smooth="yes"/>
      <point x="864" y="35.8333"/>
      <point x="845.167" y="54.8333"/>
      <point x="829.5" y="78.5" type="curve" smooth="yes"/>
      <point x="813.833" y="102.167"/>
      <point x="800.333" y="129.167"/>
      <point x="789" y="159.5" type="curve" smooth="yes"/>
      <point x="777.667" y="189.833"/>
      <point x="767.167" y="220.667"/>
      <point x="757.5" y="252" type="curve" smooth="yes"/>
      <point x="747.833" y="283.333"/>
      <point x="738.167" y="314.167"/>
      <point x="728.5" y="344.5" type="curve" smooth="yes"/>
      <point x="718.833" y="374.833"/>
      <point x="707.833" y="401.833"/>
      <point x="695.5" y="425.5" type="curve" smooth="yes"/>
      <point x="683.167" y="449.167"/>
      <point x="668.333" y="468.167"/>
      <point x="651" y="482.5" type="curve" smooth="yes"/>
      <point x="633.667" y="496.833"/>
      <point x="612.667" y="504"/>
      <point x="588" y="504" type="curve" smooth="yes"/>
      <point x="488" y="504" type="line"/>
    </contour>
    <contour>
      <point x="1116" y="1655" type="line" smooth="yes"/>
      <point x="1134.67" y="1665.67"/>
      <point x="1154.33" y="1664.5"/>
      <point x="1175" y="1651.5" type="curve" smooth="yes"/>
      <point x="1195.67" y="1638.5"/>
      <point x="1216" y="1609.33"/>
      <point x="1236" y="1564" type="curve" smooth="yes"/>
      <point x="1256" y="1518"/>
      <point x="1264.83" y="1483.83"/>
      <point x="1262.5" y="1461.5" type="curve" smooth="yes"/>
      <point x="1260.17" y="1439.17"/>
      <point x="1250.33" y="1425.67"/>
      <point x="1233" y="1421" type="curve" smooth="yes"/>
      <point x="753" y="1296" type="line" smooth="yes"/>
      <point x="737" y="1291.33"/>
      <point x="723" y="1292.83"/>
      <point x="711" y="1300.5" type="curve" smooth="yes"/>
      <point x="699" y="1308.17"/>
      <point x="690.333" y="1319.67"/>
      <point x="685" y="1335" type="curve" smooth="yes"/>
      <point x="679.667" y="1349.67"/>
      <point x="678.833" y="1363.5"/>
      <point x="682.5" y="1376.5" type="curve" smooth="yes"/>
      <point x="686.167" y="1389.5"/>
      <point x="694.667" y="1400"/>
      <point x="708" y="1408" type="curve" smooth="yes"/>
    </contour>
  </outline>
</glyph>
<glyph name="uni040D" format="1">
  <advance width="1228"/>
  <unicode hex="040D"/>
  <outline>
    <contour>
      <point x="865" y="724" type="line"/>
      <point x="377" y="27" type="line" smooth="yes"/>
      <point x="369.667" y="17"/>
      <point x="361" y="10"/>
      <point x="351" y="6" type="curve" smooth="yes"/>
      <point x="341" y="2"/>
      <point x="329.667" y="0"/>
      <point x="317" y="0" type="curve" smooth="yes"/>
      <point x="43" y="0" type="line" smooth="yes"/>
      <point x="31.6667" y="0"/>
      <point x="22.3333" y="1.33333"/>
      <point x="15" y="4" type="curve" smooth="yes"/>
      <point x="7.66667" y="6.66667"/>
      <point x="2" y="11.8333"/>
      <point x="-2" y="19.5" type="curve" smooth="yes"/>
      <point x="-6" y="27.1667"/>
      <point x="-8" y="37.6667"/>
      <point x="-8" y="51" type="curve" smooth="yes"/>
      <point x="-8" y="64.3333"/>
      <point x="-6" y="81.6667"/>
      <point x="-2" y="103" type="curve" smooth="yes"/>
      <point x="2" y="124.333"/>
      <point x="6.33333" y="141.667"/>
      <point x="11" y="155" type="curve" smooth="yes"/>
      <point x="15.6667" y="168.333"/>
      <point x="21.1667" y="178.667"/>
      <point x="27.5" y="186" type="curve" smooth="yes"/>
      <point x="33.8333" y="193.333"/>
      <point x="41.1667" y="198.333"/>
      <point x="49.5" y="201" type="curve" smooth="yes"/>
      <point x="57.8333" y="203.667"/>
      <point x="67.6667" y="205"/>
      <point x="79" y="205" type="curve" smooth="yes"/>
      <point x="136" y="205" type="line"/>
      <point x="273" y="982" type="line"/>
      <point x="216" y="982" type="line" smooth="yes"/>
      <point x="204.667" y="982"/>
      <point x="195.333" y="983.333"/>
      <point x="188" y="986" type="curve" smooth="yes"/>
      <point x="180.667" y="988.667"/>
      <point x="175" y="993.667"/>
      <point x="171" y="1001" type="curve" smooth="yes"/>
      <point x="167" y="1008.33"/>
      <point x="165" y="1018.67"/>
      <point x="165" y="1032" type="curve" smooth="yes"/>
      <point x="165" y="1045.33"/>
      <point x="167" y="1062.67"/>
      <point x="171" y="1084" type="curve" smooth="yes"/>
      <point x="175" y="1105.33"/>
      <point x="179.333" y="1122.67"/>
      <point x="184" y="1136" type="curve" smooth="yes"/>
      <point x="188.667" y="1149.33"/>
      <point x="194.167" y="1159.83"/>
      <point x="200.5" y="1167.5" type="curve" smooth="yes"/>
      <point x="206.833" y="1175.17"/>
      <point x="214.167" y="1180.33"/>
      <point x="222.5" y="1183" type="curve" smooth="yes"/>
      <point x="230.833" y="1185.67"/>
      <point x="240.667" y="1187"/>
      <point x="252" y="1187" type="curve" smooth="yes"/>
      <point x="627" y="1187" type="line" smooth="yes"/>
      <point x="638.333" y="1187"/>
      <point x="647.667" y="1185.67"/>
      <point x="655" y="1183" type="curve" smooth="yes"/>
      <point x="662.333" y="1180.33"/>
      <point x="668" y="1175.17"/>
      <point x="672" y="1167.5" type="curve" smooth="yes"/>
      <point x="676" y="1159.83"/>
      <point x="678" y="1149.33"/>
      <point x="678" y="1136" type="curve" smooth="yes"/>
      <point x="678" y="1122.67"/>
      <point x="676" y="1105.33"/>
      <point x="672" y="1084" type="curve" smooth="yes"/>
      <point x="668" y="1062.67"/>
      <point x="663.667" y="1045.33"/>
      <point x="659" y="1032" type="curve" smooth="yes"/>
      <point x="654.333" y="1018.67"/>
      <point x="648.833" y="1008.33"/>
      <point x="642.5" y="1001" type="curve" smooth="yes"/>
      <point x="636.167" y="993.667"/>
      <point x="628.833" y="988.667"/>
      <point x="620.5" y="986" type="curve" smooth="yes"/>
      <point x="612.167" y="983.333"/>
      <point x="602.333" y="982"/>
      <point x="591" y="982" type="curve" smooth="yes"/>
      <point x="523" y="982" type="line"/>
      <point x="431" y="463" type="line"/>
      <point x="949" y="1160" type="line" smooth="yes"/>
      <point x="956.333" y="1170"/>
      <point x="965.167" y="1177"/>
      <point x="975.5" y="1181" type="curve" smooth="yes"/>
      <point x="985.833" y="1185"/>
      <point x="997.333" y="1187"/>
      <point x="1010" y="1187" type="curve" smooth="yes"/>
      <point x="1254" y="1187" type="line" smooth="yes"/>
      <point x="1265.33" y="1187"/>
      <point x="1274.67" y="1185.67"/>
      <point x="1282" y="1183" type="curve" smooth="yes"/>
      <point x="1289.33" y="1180.33"/>
      <point x="1295" y="1175.17"/>
      <point x="1299" y="1167.5" type="curve" smooth="yes"/>
      <point x="1303" y="1159.83"/>
      <point x="1305" y="1149.33"/>
      <point x="1305" y="1136" type="curve" smooth="yes"/>
      <point x="1305" y="1122.67"/>
      <point x="1303" y="1105.33"/>
      <point x="1299" y="1084" type="curve" smooth="yes"/>
      <point x="1295" y="1062.67"/>
      <point x="1290.67" y="1045.33"/>
      <point x="1286" y="1032" type="curve" smooth="yes"/>
      <point x="1281.33" y="1018.67"/>
      <point x="1275.83" y="1008.33"/>
      <point x="1269.5" y="1001" type="curve" smooth="yes"/>
      <point x="1263.17" y="993.667"/>
      <point x="1255.83" y="988.667"/>
      <point x="1247.5" y="986" type="curve" smooth="yes"/>
      <point x="1239.17" y="983.333"/>
      <point x="1229.33" y="982"/>
      <point x="1218" y="982" type="curve" smooth="yes"/>
      <point x="1161" y="982" type="line"/>
      <point x="1024" y="205" type="line"/>
      <point x="1081" y="205" type="line" smooth="yes"/>
      <point x="1092.33" y="205"/>
      <point x="1101.67" y="203.667"/>
      <point x="1109" y="201" type="curve" smooth="yes"/>
      <point x="1116.33" y="198.333"/>
      <point x="1121.83" y="193.167"/>
      <point x="1125.5" y="185.5" type="curve" smooth="yes"/>
      <point x="1129.17" y="177.833"/>
      <point x="1131" y="167.333"/>
      <point x="1131" y="154" type="curve" smooth="yes"/>
      <point x="1131" y="140.667"/>
      <point x="1129" y="123.333"/>
      <point x="1125" y="102" type="curve" smooth="yes"/>
      <point x="1121" y="80.6667"/>
      <point x="1116.83" y="63.3333"/>
      <point x="1112.5" y="50" type="curve" smooth="yes"/>
      <point x="1108.17" y="36.6667"/>
      <point x="1102.83" y="26.3333"/>
      <point x="1096.5" y="19" type="curve" smooth="yes"/>
      <point x="1090.17" y="11.6667"/>
      <point x="1082.83" y="6.66667"/>
      <point x="1074.5" y="4" type="curve" smooth="yes"/>
      <point x="1066.17" y="1.33333"/>
      <point x="1056.33" y="0"/>
      <point x="1045" y="0" type="curve" smooth="yes"/>
      <point x="671" y="0" type="line" smooth="yes"/>
      <point x="659.667" y="0"/>
      <point x="650.167" y="1.33333"/>
      <point x="642.5" y="4" type="curve" smooth="yes"/>
      <point x="634.833" y="6.66667"/>
      <point x="629.167" y="11.6667"/>
      <point x="625.5" y="19" type="curve" smooth="yes"/>
      <point x="621.833" y="26.3333"/>
      <point x="619.833" y="36.6667"/>
      <point x="619.5" y="50" type="curve" smooth="yes"/>
      <point x="619.167" y="63.3333"/>
      <point x="621" y="80.6667"/>
      <point x="625" y="102" type="curve" smooth="yes"/>
      <point x="629" y="123.333"/>
      <point x="633.333" y="140.667"/>
      <point x="638" y="154" type="curve" smooth="yes"/>
      <point x="642.667" y="167.333"/>
      <point x="648.167" y="177.833"/>
      <point x="654.5" y="185.5" type="curve" smooth="yes"/>
      <point x="660.833" y="193.167"/>
      <point x="668.333" y="198.333"/>
      <point x="677" y="201" type="curve" smooth="yes"/>
      <point x="685.667" y="203.667"/>
      <point x="695.667" y="205"/>
      <point x="707" y="205" type="curve" smooth="yes"/>
      <point x="774" y="205" type="line"/>
    </contour>
    <contour>
      <point x="881" y="1408" type="line" smooth="yes"/>
      <point x="894.333" y="1400"/>
      <point x="902.833" y="1389.5"/>
      <point x="906.5" y="1376.5" type="curve" smooth="yes"/>
      <point x="910.167" y="1363.5"/>
      <point x="909.333" y="1349.67"/>
      <point x="904" y="1335" type="curve" smooth="yes"/>
      <point x="898.667" y="1319.67"/>
      <point x="890" y="1308.17"/>
      <point x="878" y="1300.5" type="curve" smooth="yes"/>
      <point x="866" y="1292.83"/>
      <point x="852" y="1291.33"/>
      <point x="836" y="1296" type="curve" smooth="yes"/>
      <point x="356" y="1421" type="line" smooth="yes"/>
      <point x="338.667" y="1425.67"/>
      <point x="328.833" y="1439.17"/>
      <point x="326.5" y="1461.5" type="curve" smooth="yes"/>
      <point x="324.167" y="1483.83"/>
      <point x="333" y="1518"/>
      <point x="353" y="1564" type="curve" smooth="yes"/>
      <point x="373" y="1609.33"/>
      <point x="393.333" y="1638.5"/>
      <point x="414" y="1651.5" type="curve" smooth="yes"/>
      <point x="434.667" y="1664.5"/>
      <point x="454.333" y="1665.67"/>
      <point x="473" y="1655" type="curve" smooth="yes"/>
    </contour>
  </outline>
</glyph>
<glyph name="Ushortcyrillic" format="1">
  <advance width="1228"/>
  <unicode hex="040E"/>
  <outline>
    <contour>
      <point x="779" y="1254" type="curve" smooth="yes"/>
      <point x="679.667" y="1254"/>
      <point x="604.333" y="1277.17"/>
      <point x="553" y="1323.5" type="curve" smooth="yes"/>
      <point x="501.667" y="1369.83"/>
      <point x="473" y="1432.33"/>
      <point x="467" y="1511" type="curve" smooth="yes"/>
      <point x="465.667" y="1523"/>
      <point x="468.667" y="1534.17"/>
      <point x="476" y="1544.5" type="curve" smooth="yes"/>
      <point x="483.333" y="1554.83"/>
      <point x="493" y="1564"/>
      <point x="505" y="1572" type="curve" smooth="yes"/>
      <point x="517" y="1580"/>
      <point x="530.167" y="1586.33"/>
      <point x="544.5" y="1591" type="curve" smooth="yes"/>
      <point x="558.833" y="1595.67"/>
      <point x="572" y="1598"/>
      <point x="584" y="1598" type="curve" smooth="yes"/>
      <point x="605.333" y="1598"/>
      <point x="619" y="1591.33"/>
      <point x="625" y="1578" type="curve" smooth="yes"/>
      <point x="633" y="1560"/>
      <point x="642.167" y="1543.5"/>
      <point x="652.5" y="1528.5" type="curve" smooth="yes"/>
      <point x="662.833" y="1513.5"/>
      <point x="675.333" y="1500.83"/>
      <point x="690" y="1490.5" type="curve" smooth="yes"/>
      <point x="704.667" y="1480.17"/>
      <point x="722.167" y="1472.17"/>
      <point x="742.5" y="1466.5" type="curve" smooth="yes"/>
      <point x="762.833" y="1460.83"/>
      <point x="787" y="1458"/>
      <point x="815" y="1458" type="curve" smooth="yes"/>
      <point x="843" y="1458"/>
      <point x="868.167" y="1460.83"/>
      <point x="890.5" y="1466.5" type="curve" smooth="yes"/>
      <point x="912.833" y="1472.17"/>
      <point x="933.167" y="1480.17"/>
      <point x="951.5" y="1490.5" type="curve" smooth="yes"/>
      <point x="969.833" y="1500.83"/>
      <point x="986.667" y="1513.5"/>
      <point x="1002" y="1528.5" type="curve" smooth="yes"/>
      <point x="1017.33" y="1543.5"/>
      <point x="1032.33" y="1560"/>
      <point x="1047" y="1578" type="curve" smooth="yes"/>
      <point x="1056.33" y="1591.33"/>
      <point x="1072" y="1598"/>
      <point x="1094" y="1598" type="curve" smooth="yes"/>
      <point x="1106" y="1598"/>
      <point x="1118.33" y="1595.67"/>
      <point x="1131" y="1591" type="curve" smooth="yes"/>
      <point x="1143.67" y="1586.33"/>
      <point x="1154.5" y="1580"/>
      <point x="1163.5" y="1572" type="curve" smooth="yes"/>
      <point x="1172.5" y="1564"/>
      <point x="1179" y="1554.83"/>
      <point x="1183" y="1544.5" type="curve" smooth="yes"/>
      <point x="1187" y="1534.17"/>
      <point x="1186.33" y="1523"/>
      <point x="1181" y="1511" type="curve" smooth="yes"/>
      <point x="1163.67" y="1471.67"/>
      <point x="1142.33" y="1436.17"/>
      <point x="1117" y="1404.5" type="curve" smooth="yes"/>
      <point x="1091.67" y="1372.83"/>
      <point x="1062.33" y="1345.83"/>
      <point x="1029" y="1323.5" type="curve" smooth="yes"/>
      <point x="995.667" y="1301.17"/>
      <point x="958.167" y="1284"/>
      <point x="916.5" y="1272" type="curve" smooth="yes"/>
      <point x="874.833" y="1260"/>
      <point x="829" y="1254"/>
    </contour>
    <contour>
      <point x="176" y="982" type="line" smooth="yes"/>
      <point x="164.667" y="982"/>
      <point x="155.333" y="983.333"/>
      <point x="148" y="986" type="curve" smooth="yes"/>
      <point x="140.667" y="988.667"/>
      <point x="135" y="993.667"/>
      <point x="131" y="1001" type="curve" smooth="yes"/>
      <point x="127" y="1008.33"/>
      <point x="125" y="1018.67"/>
      <point x="125" y="1032" type="curve" smooth="yes"/>
      <point x="125" y="1045.33"/>
      <point x="127" y="1062.67"/>
      <point x="131" y="1084" type="curve" smooth="yes"/>
      <point x="135" y="1105.33"/>
      <point x="139.333" y="1122.67"/>
      <point x="144" y="1136" type="curve" smooth="yes"/>
      <point x="148.667" y="1149.33"/>
      <point x="154.167" y="1159.83"/>
      <point x="160.5" y="1167.5" type="curve" smooth="yes"/>
      <point x="166.833" y="1175.17"/>
      <point x="174.167" y="1180.33"/>
      <point x="182.5" y="1183" type="curve" smooth="yes"/>
      <point x="190.833" y="1185.67"/>
      <point x="200.667" y="1187"/>
      <point x="212" y="1187" type="curve" smooth="yes"/>
      <point x="626" y="1187" type="line" smooth="yes"/>
      <point x="637.333" y="1187"/>
      <point x="646.667" y="1185.67"/>
      <point x="654" y="1183" type="curve" smooth="yes"/>
      <point x="661.333" y="1180.33"/>
      <point x="667" y="1175.17"/>
      <point x="671" y="1167.5" type="curve" smooth="yes"/>
      <point x="675" y="1159.83"/>
      <point x="677" y="1149.33"/>
      <point x="677" y="1136" type="curve" smooth="yes"/>
      <point x="677" y="1122.67"/>
      <point x="675" y="1105.33"/>
      <point x="671" y="1084" type="curve" smooth="yes"/>
      <point x="667" y="1062.67"/>
      <point x="662.667" y="1045.33"/>
      <point x="658" y="1032" type="curve" smooth="yes"/>
      <point x="653.333" y="1018.67"/>
      <point x="647.833" y="1008.33"/>
      <point x="641.5" y="1001" type="curve" smooth="yes"/>
      <point x="635.167" y="993.667"/>
      <point x="627.833" y="988.667"/>
      <point x="619.5" y="986" type="curve" smooth="yes"/>
      <point x="611.167" y="983.333"/>
      <point x="601.333" y="982"/>
      <point x="590" y="982" type="curve" smooth="yes"/>
      <point x="531" y="982" type="line"/>
      <point x="659" y="551" type="line"/>
      <point x="915" y="982" type="line"/>
      <point x="864" y="982" type="line" smooth="yes"/>
      <point x="852.667" y="982"/>
      <point x="843.333" y="983.333"/>
      <point x="836" y="986" type="curve" smooth="yes"/>
      <point x="828.667" y="988.667"/>
      <point x="823" y="993.667"/>
      <point x="819" y="1001" type="curve" smooth="yes"/>
      <point x="815" y="1008.33"/>
      <point x="813" y="1018.67"/>
      <point x="813" y="1032" type="curve" smooth="yes"/>
      <point x="813" y="1045.33"/>
      <point x="815" y="1062.67"/>
      <point x="819" y="1084" type="curve" smooth="yes"/>
      <point x="823" y="1105.33"/>
      <point x="827.333" y="1122.67"/>
      <point x="832" y="1136" type="curve" smooth="yes"/>
      <point x="836.667" y="1149.33"/>
      <point x="842.167" y="1159.83"/>
      <point x="848.5" y="1167.5" type="curve" smooth="yes"/>
      <point x="854.833" y="1175.17"/>
      <point x="862.167" y="1180.33"/>
      <point x="870.5" y="1183" type="curve" smooth="yes"/>
      <point x="878.833" y="1185.67"/>
      <point x="888.667" y="1187"/>
      <point x="900" y="1187" type="curve" smooth="yes"/>
      <point x="1294" y="1187" type="line" smooth="yes"/>
      <point x="1305.33" y="1187"/>
      <point x="1314.67" y="1185.67"/>
      <point x="1322" y="1183" type="curve" smooth="yes"/>
      <point x="1329.33" y="1180.33"/>
      <point x="1335" y="1175.17"/>
      <point x="1339" y="1167.5" type="curve" smooth="yes"/>
      <point x="1343" y="1159.83"/>
      <point x="1345" y="1149.33"/>
      <point x="1345" y="1136" type="curve" smooth="yes"/>
      <point x="1345" y="1122.67"/>
      <point x="1343" y="1105.33"/>
      <point x="1339" y="1084" type="curve" smooth="yes"/>
      <point x="1335" y="1062.67"/>
      <point x="1330.67" y="1045.33"/>
      <point x="1326" y="1032" type="curve" smooth="yes"/>
      <point x="1321.33" y="1018.67"/>
      <point x="1315.83" y="1008.33"/>
      <point x="1309.5" y="1001" type="curve" smooth="yes"/>
      <point x="1303.17" y="993.667"/>
      <point x="1295.83" y="988.667"/>
      <point x="1287.5" y="986" type="curve" smooth="yes"/>
      <point x="1279.17" y="983.333"/>
      <point x="1269.33" y="982"/>
      <point x="1258" y="982" type="curve" smooth="yes"/>
      <point x="1190" y="982" type="line"/>
      <point x="828" y="363" type="line" smooth="yes"/>
      <point x="792.667" y="303"/>
      <point x="759.167" y="249.167"/>
      <point x="727.5" y="201.5" type="curve" smooth="yes"/>
      <point x="695.833" y="153.833"/>
      <point x="662" y="113.5"/>
      <point x="626" y="80.5" type="curve" smooth="yes"/>
      <point x="590" y="47.5"/>
      <point x="549.667" y="22.1667"/>
      <point x="505" y="4.5" type="curve" smooth="yes"/>
      <point x="460.333" y="-13.1667"/>
      <point x="407" y="-22"/>
      <point x="345" y="-22" type="curve" smooth="yes"/>
      <point x="315.667" y="-22"/>
      <point x="290.333" y="-20.8333"/>
      <point x="269" y="-18.5" type="curve" smooth="yes"/>
      <point x="247.667" y="-16.1667"/>
      <point x="229" y="-12.1667"/>
      <point x="213" y="-6.5" type="curve" smooth="yes"/>
      <point x="197" y="-0.833333"/>
      <point x="182.667" y="6.16667"/>
      <point x="170" y="14.5" type="curve" smooth="yes"/>
      <point x="157.333" y="22.8333"/>
      <point x="145" y="33"/>
      <point x="133" y="45" type="curve" smooth="yes"/>
      <point x="124.333" y="53.6667"/>
      <point x="122" y="70.3333"/>
      <point x="126" y="95" type="curve" smooth="yes"/>
      <point x="171" y="349" type="line" smooth="yes"/>
      <point x="175" y="371.667"/>
      <point x="187.333" y="387.833"/>
      <point x="208" y="397.5" type="curve" smooth="yes"/>
      <point x="228.667" y="407.167"/>
      <point x="260.667" y="412"/>
      <point x="304" y="412" type="curve" smooth="yes"/>
      <point x="346.667" y="412"/>
      <point x="374.5" y="407.167"/>
      <point x="387.5" y="397.5" type="curve" smooth="yes"/>
      <point x="400.5" y="387.833"/>
      <point x="405" y="371.667"/>
      <point x="401" y="349" type="curve" smooth="yes"/>
      <point x="376" y="205" type="line"/>
      <point x="399.333" y="205"/>
      <point x="419.667" y="209.667"/>
      <point x="437" y="219" type="curve" smooth="yes"/>
      <point x="454.333" y="228.333"/>
      <point x="469.667" y="242.333"/>
      <point x="483" y="261" type="curve"/>
      <point x="223" y="982" type="line"/>
    </contour>
  </outline>
</glyph>
<glyph name="Dzhecyrillic" format="1">
  <advance width="1228"/>
  <unicode hex="040F"/>
  <outline>
    <contour>
      <point x="386" y="205" type="line"/>
      <point x="774" y="205" type="line"/>
      <point x="911" y="982" type="line"/>
      <point x="844" y="982" type="line" smooth="yes"/>
      <point x="832.667" y="982"/>
      <point x="823.333" y="983.333"/>
      <point x="816" y="986" type="curve" smooth="yes"/>
      <point x="808.667" y="988.667"/>
      <point x="803" y="993.833"/>
      <point x="799" y="1001.5" type="curve" smooth="yes"/>
      <point x="795" y="1009.17"/>
      <point x="793" y="1019.67"/>
      <point x="793" y="1033" type="curve" smooth="yes"/>
      <point x="793" y="1046.33"/>
      <point x="795" y="1063.67"/>
      <point x="799" y="1085" type="curve" smooth="yes"/>
      <point x="803" y="1106.33"/>
      <point x="807.333" y="1123.67"/>
      <point x="812" y="1137" type="curve" smooth="yes"/>
      <point x="816.667" y="1150.33"/>
      <point x="822.167" y="1160.67"/>
      <point x="828.5" y="1168" type="curve" smooth="yes"/>
      <point x="834.833" y="1175.33"/>
      <point x="842.167" y="1180.33"/>
      <point x="850.5" y="1183" type="curve" smooth="yes"/>
      <point x="858.833" y="1185.67"/>
      <point x="868.667" y="1187"/>
      <point x="880" y="1187" type="curve" smooth="yes"/>
      <point x="1254" y="1187" type="line" smooth="yes"/>
      <point x="1265.33" y="1187"/>
      <point x="1274.67" y="1185.67"/>
      <point x="1282" y="1183" type="curve" smooth="yes"/>
      <point x="1289.33" y="1180.33"/>
      <point x="1295" y="1175.33"/>
      <point x="1299" y="1168" type="curve" smooth="yes"/>
      <point x="1303" y="1160.67"/>
      <point x="1305" y="1150.33"/>
      <point x="1305" y="1137" type="curve" smooth="yes"/>
      <point x="1305" y="1123.67"/>
      <point x="1303" y="1106.33"/>
      <point x="1299" y="1085" type="curve" smooth="yes"/>
      <point x="1295" y="1063.67"/>
      <point x="1290.67" y="1046.33"/>
      <point x="1286" y="1033" type="curve" smooth="yes"/>
      <point x="1281.33" y="1019.67"/>
      <point x="1275.83" y="1009.17"/>
      <point x="1269.5" y="1001.5" type="curve" smooth="yes"/>
      <point x="1263.17" y="993.833"/>
      <point x="1255.83" y="988.667"/>
      <point x="1247.5" y="986" type="curve" smooth="yes"/>
      <point x="1239.17" y="983.333"/>
      <point x="1229.33" y="982"/>
      <point x="1218" y="982" type="curve" smooth="yes"/>
      <point x="1161" y="982" type="line"/>
      <point x="1024" y="205" type="line"/>
      <point x="1081" y="205" type="line" smooth="yes"/>
      <point x="1092.33" y="205"/>
      <point x="1101.67" y="203.667"/>
      <point x="1109" y="201" type="curve" smooth="yes"/>
      <point x="1116.33" y="198.333"/>
      <point x="1122" y="193.333"/>
      <point x="1126" y="186" type="curve" smooth="yes"/>
      <point x="1130" y="178.667"/>
      <point x="1132" y="168.333"/>
      <point x="1132" y="155" type="curve" smooth="yes"/>
      <point x="1132" y="141.667"/>
      <point x="1130" y="124.333"/>
      <point x="1126" y="103" type="curve" smooth="yes"/>
      <point x="1122" y="81.6667"/>
      <point x="1117.67" y="64.3333"/>
      <point x="1113" y="51" type="curve" smooth="yes"/>
      <point x="1108.33" y="37.6667"/>
      <point x="1102.83" y="27.1667"/>
      <point x="1096.5" y="19.5" type="curve" smooth="yes"/>
      <point x="1090.17" y="11.8333"/>
      <point x="1082.83" y="6.66667"/>
      <point x="1074.5" y="4" type="curve" smooth="yes"/>
      <point x="1066.17" y="1.33333"/>
      <point x="1056.33" y="0"/>
      <point x="1045" y="0" type="curve" smooth="yes"/>
      <point x="659" y="0" type="line"/>
      <point x="621" y="-212" type="line" smooth="yes"/>
      <point x="617" y="-234.667"/>
      <point x="604.5" y="-250.833"/>
      <point x="583.5" y="-260.5" type="curve" smooth="yes"/>
      <point x="562.5" y="-270.167"/>
      <point x="530.667" y="-275"/>
      <point x="488" y="-275" type="curve" smooth="yes"/>
      <point x="445.333" y="-275"/>
      <point x="417.5" y="-270.167"/>
      <point x="404.5" y="-260.5" type="curve" smooth="yes"/>
      <point x="391.5" y="-250.833"/>
      <point x="387" y="-234.667"/>
      <point x="391" y="-212" type="curve" smooth="yes"/>
      <point x="429" y="0" type="line"/>
      <point x="43" y="0" type="line" smooth="yes"/>
      <point x="31.6667" y="0"/>
      <point x="22.3333" y="1.33333"/>
      <point x="15" y="4" type="curve" smooth="yes"/>
      <point x="7.66667" y="6.66667"/>
      <point x="2" y="11.8333"/>
      <point x="-2" y="19.5" type="curve" smooth="yes"/>
      <point x="-6" y="27.1667"/>
      <point x="-8" y="37.6667"/>
      <point x="-8" y="51" type="curve" smooth="yes"/>
      <point x="-8" y="64.3333"/>
      <point x="-6" y="81.6667"/>
      <point x="-2" y="103" type="curve" smooth="yes"/>
      <point x="2" y="124.333"/>
      <point x="6.33333" y="141.667"/>
      <point x="11" y="155" type="curve" smooth="yes"/>
      <point x="15.6667" y="168.333"/>
      <point x="21.1667" y="178.667"/>
      <point x="27.5" y="186" type="curve" smooth="yes"/>
      <point x="33.8333" y="193.333"/>
      <point x="41.1667" y="198.333"/>
      <point x="49.5" y="201" type="curve" smooth="yes"/>
      <point x="57.8333" y="203.667"/>
      <point x="67.6667" y="205"/>
      <point x="79" y="205" type="curve" smooth="yes"/>
      <point x="136" y="205" type="line"/>
      <point x="273" y="982" type="line"/>
      <point x="216" y="982" type="line" smooth="yes"/>
      <point x="204.667" y="982"/>
      <point x="195.333" y="983.333"/>
      <point x="188" y="986" type="curve" smooth="yes"/>
      <point x="180.667" y="988.667"/>
      <point x="175" y="993.833"/>
      <point x="171" y="1001.5" type="curve" smooth="yes"/>
      <point x="167" y="1009.17"/>
      <point x="165" y="1019.67"/>
      <point x="165" y="1033" type="curve" smooth="yes"/>
      <point x="165" y="1046.33"/>
      <point x="167" y="1063.67"/>
      <point x="171" y="1085" type="curve" smooth="yes"/>
      <point x="175" y="1106.33"/>
      <point x="179.333" y="1123.67"/>
      <point x="184" y="1137" type="curve" smooth="yes"/>
      <point x="188.667" y="1150.33"/>
      <point x="194.167" y="1160.67"/>
      <point x="200.5" y="1168" type="curve" smooth="yes"/>
      <point x="206.833" y="1175.33"/>
      <point x="214.167" y="1180.33"/>
      <point x="222.5" y="1183" type="curve" smooth="yes"/>
      <point x="230.833" y="1185.67"/>
      <point x="240.667" y="1187"/>
      <point x="252" y="1187" type="curve" smooth="yes"/>
      <point x="626" y="1187" type="line" smooth="yes"/>
      <point x="637.333" y="1187"/>
      <point x="646.667" y="1185.67"/>
      <point x="654" y="1183" type="curve" smooth="yes"/>
      <point x="661.333" y="1180.33"/>
      <point x="667" y="1175.33"/>
      <point x="671" y="1168" type="curve" smooth="yes"/>
      <point x="675" y="1160.67"/>
      <point x="677" y="1150.33"/>
      <point x="677" y="1137" type="curve" smooth="yes"/>
      <point x="677" y="1123.67"/>
      <point x="675" y="1106.33"/>
      <point x="671" y="1085" type="curve" smooth="yes"/>
      <point x="667" y="1063.67"/>
      <point x="662.667" y="1046.33"/>
      <point x="658" y="1033" type="curve" smooth="yes"/>
      <point x="653.333" y="1019.67"/>
      <point x="647.833" y="1009.17"/>
      <point x="641.5" y="1001.5" type="curve" smooth="yes"/>
      <point x="635.167" y="993.833"/>
      <point x="627.833" y="988.667"/>
      <point x="619.5" y="986" type="curve" smooth="yes"/>
      <point x="611.167" y="983.333"/>
      <point x="601.333" y="982"/>
      <point x="590" y="982" type="curve" smooth="yes"/>
      <point x="523" y="982" type="line"/>
    </contour>
  </outline>
</glyph>
<glyph name="Acyrillic" format="1">
  <advance width="1228"/>
  <unicode hex="0410"/>
  <outline>
    <contour>
      <point x="489" y="982" type="line"/>
      <point x="326" y="982" type="line" smooth="yes"/>
      <point x="314.667" y="982"/>
      <point x="305.333" y="983.333"/>
      <point x="298" y="986" type="curve" smooth="yes"/>
      <point x="290.667" y="988.667"/>
      <point x="285" y="993.833"/>
      <point x="281" y="1001.5" type="curve" smooth="yes"/>
      <point x="277" y="1009.17"/>
      <point x="275" y="1019.67"/>
      <point x="275" y="1033" type="curve" smooth="yes"/>
      <point x="275" y="1046.33"/>
      <point x="277" y="1063.67"/>
      <point x="281" y="1085" type="curve" smooth="yes"/>
      <point x="285" y="1106.33"/>
      <point x="289.333" y="1123.67"/>
      <point x="294" y="1137" type="curve" smooth="yes"/>
      <point x="298.667" y="1150.33"/>
      <point x="304.167" y="1160.67"/>
      <point x="310.5" y="1168" type="curve" smooth="yes"/>
      <point x="316.833" y="1175.33"/>
      <point x="324.167" y="1180.33"/>
      <point x="332.5" y="1183" type="curve" smooth="yes"/>
      <point x="340.833" y="1185.67"/>
      <point x="350.667" y="1187"/>
      <point x="362" y="1187" type="curve" smooth="yes"/>
      <point x="832" y="1187" type="line" smooth="yes"/>
      <point x="858.667" y="1187"/>
      <point x="879.333" y="1182"/>
      <point x="894" y="1172" type="curve" smooth="yes"/>
      <point x="908.667" y="1162"/>
      <point x="917.667" y="1145.33"/>
      <point x="921" y="1122" type="curve" smooth="yes"/>
      <point x="1050" y="205" type="line"/>
      <point x="1141" y="205" type="line" smooth="yes"/>
      <point x="1151.67" y="205"/>
      <point x="1160.83" y="203.667"/>
      <point x="1168.5" y="201" type="curve" smooth="yes"/>
      <point x="1176.17" y="198.333"/>
      <point x="1182" y="193.333"/>
      <point x="1186" y="186" type="curve" smooth="yes"/>
      <point x="1190" y="178.667"/>
      <point x="1192" y="168.333"/>
      <point x="1192" y="155" type="curve" smooth="yes"/>
      <point x="1192" y="141.667"/>
      <point x="1190" y="124.333"/>
      <point x="1186" y="103" type="curve" smooth="yes"/>
      <point x="1182" y="81.6667"/>
      <point x="1177.67" y="64.3333"/>
      <point x="1173" y="51" type="curve" smooth="yes"/>
      <point x="1168.33" y="37.6667"/>
      <point x="1162.83" y="27.1667"/>
      <point x="1156.5" y="19.5" type="curve" smooth="yes"/>
      <point x="1150.17" y="11.8333"/>
      <point x="1142.83" y="6.66667"/>
      <point x="1134.5" y="4" type="curve" smooth="yes"/>
      <point x="1126.17" y="1.33333"/>
      <point x="1116.33" y="0"/>
      <point x="1105" y="0" type="curve" smooth="yes"/>
      <point x="681" y="0" type="line" smooth="yes"/>
      <point x="669.667" y="0"/>
      <point x="660.333" y="1.33333"/>
      <point x="653" y="4" type="curve" smooth="yes"/>
      <point x="645.667" y="6.66667"/>
      <point x="640" y="11.8333"/>
      <point x="636" y="19.5" type="curve" smooth="yes"/>
      <point x="632" y="27.1667"/>
      <point x="630" y="37.6667"/>
      <point x="630" y="51" type="curve" smooth="yes"/>
      <point x="630" y="64.3333"/>
      <point x="632" y="81.6667"/>
      <point x="636" y="103" type="curve" smooth="yes"/>
      <point x="640" y="124.333"/>
      <point x="644.333" y="141.667"/>
      <point x="649" y="155" type="curve" smooth="yes"/>
      <point x="653.667" y="168.333"/>
      <point x="659.167" y="178.667"/>
      <point x="665.5" y="186" type="curve" smooth="yes"/>
      <point x="671.833" y="193.333"/>
      <point x="679.167" y="198.333"/>
      <point x="687.5" y="201" type="curve" smooth="yes"/>
      <point x="695.833" y="203.667"/>
      <point x="705.667" y="205"/>
      <point x="717" y="205" type="curve" smooth="yes"/>
      <point x="807" y="205" type="line"/>
      <point x="787" y="350" type="line"/>
      <point x="423" y="350" type="line"/>
      <point x="353" y="205" type="line"/>
      <point x="423" y="205" type="line" smooth="yes"/>
      <point x="433.667" y="205"/>
      <point x="442.833" y="203.667"/>
      <point x="450.5" y="201" type="curve" smooth="yes"/>
      <point x="458.167" y="198.333"/>
      <point x="464" y="193.333"/>
      <point x="468" y="186" type="curve" smooth="yes"/>
      <point x="472" y="178.667"/>
      <point x="474" y="168.333"/>
      <point x="474" y="155" type="curve" smooth="yes"/>
      <point x="474" y="141.667"/>
      <point x="472" y="124.333"/>
      <point x="468" y="103" type="curve" smooth="yes"/>
      <point x="464" y="81.6667"/>
      <point x="459.667" y="64.3333"/>
      <point x="455" y="51" type="curve" smooth="yes"/>
      <point x="450.333" y="37.6667"/>
      <point x="444.833" y="27.1667"/>
      <point x="438.5" y="19.5" type="curve" smooth="yes"/>
      <point x="432.167" y="11.8333"/>
      <point x="424.833" y="6.66667"/>
      <point x="416.5" y="4" type="curve" smooth="yes"/>
      <point x="408.167" y="1.33333"/>
      <point x="398.333" y="0"/>
      <point x="387" y="0" type="curve" smooth="yes"/>
      <point x="-17" y="0" type="line" smooth="yes"/>
      <point x="-28.3333" y="0"/>
      <point x="-37.6667" y="1.33333"/>
      <point x="-45" y="4" type="curve" smooth="yes"/>
      <point x="-52.3333" y="6.66667"/>
      <point x="-57.8333" y="11.8333"/>
      <point x="-61.5" y="19.5" type="curve" smooth="yes"/>
      <point x="-65.1667" y="27.1667"/>
      <point x="-67" y="37.6667"/>
      <point x="-67" y="51" type="curve" smooth="yes"/>
      <point x="-67" y="64.3333"/>
      <point x="-65.3333" y="81.6667"/>
      <point x="-62" y="103" type="curve" smooth="yes"/>
      <point x="-58" y="124.333"/>
      <point x="-53.6667" y="141.667"/>
      <point x="-49" y="155" type="curve" smooth="yes"/>
      <point x="-44.3333" y="168.333"/>
      <point x="-38.8333" y="178.667"/>
      <point x="-32.5" y="186" type="curve" smooth="yes"/>
      <point x="-26.1667" y="193.333"/>
      <point x="-18.8333" y="198.333"/>
      <point x="-10.5" y="201" type="curve" smooth="yes"/>
      <point x="-2.16667" y="203.667"/>
      <point x="7.66667" y="205"/>
      <point x="19" y="205" type="curve" smooth="yes"/>
      <point x="99" y="205" type="line"/>
    </contour>
    <contour>
      <point x="766" y="555" type="line"/>
      <point x="722" y="982" type="line"/>
      <point x="716" y="982" type="line"/>
      <point x="517" y="555" type="line"/>
    </contour>
  </outline>
</glyph>
<glyph name="Becyrillic" format="1">
  <advance width="1228"/>
  <unicode hex="0411"/>
  <outline>
    <contour>
      <point x="593" y="982" type="line"/>
      <point x="544" y="708" type="line"/>
      <point x="764" y="708" type="line" smooth="yes"/>
      <point x="900.667" y="708"/>
      <point x="1001.17" y="678.333"/>
      <point x="1065.5" y="619" type="curve" smooth="yes"/>
      <point x="1129.83" y="559.667"/>
      <point x="1151.67" y="471.333"/>
      <point x="1131" y="354" type="curve" smooth="yes"/>
      <point x="1109.67" y="236"/>
      <point x="1057" y="147.5"/>
      <point x="973" y="88.5" type="curve" smooth="yes"/>
      <point x="889" y="29.5"/>
      <point x="778" y="0"/>
      <point x="640" y="0" type="curve" smooth="yes"/>
      <point x="63" y="0" type="line" smooth="yes"/>
      <point x="51.6667" y="0"/>
      <point x="42.1667" y="1.33333"/>
      <point x="34.5" y="4" type="curve" smooth="yes"/>
      <point x="26.8333" y="6.66667"/>
      <point x="21.1667" y="11.6667"/>
      <point x="17.5" y="19" type="curve" smooth="yes"/>
      <point x="13.8333" y="26.3333"/>
      <point x="11.8333" y="36.6667"/>
      <point x="11.5" y="50" type="curve" smooth="yes"/>
      <point x="11.1667" y="63.3333"/>
      <point x="13" y="80.6667"/>
      <point x="17" y="102" type="curve" smooth="yes"/>
      <point x="21" y="123.333"/>
      <point x="25.3333" y="140.667"/>
      <point x="30" y="154" type="curve" smooth="yes"/>
      <point x="34.6667" y="167.333"/>
      <point x="40.1667" y="177.833"/>
      <point x="46.5" y="185.5" type="curve" smooth="yes"/>
      <point x="52.8333" y="193.167"/>
      <point x="60.3333" y="198.333"/>
      <point x="69" y="201" type="curve" smooth="yes"/>
      <point x="77.6667" y="203.667"/>
      <point x="87.6667" y="205"/>
      <point x="99" y="205" type="curve" smooth="yes"/>
      <point x="206" y="205" type="line"/>
      <point x="343" y="982" type="line"/>
      <point x="236" y="982" type="line" smooth="yes"/>
      <point x="224.667" y="982"/>
      <point x="215.333" y="983.333"/>
      <point x="208" y="986" type="curve" smooth="yes"/>
      <point x="200.667" y="988.667"/>
      <point x="195" y="993.667"/>
      <point x="191" y="1001" type="curve" smooth="yes"/>
      <point x="187" y="1008.33"/>
      <point x="185" y="1018.67"/>
      <point x="185" y="1032" type="curve" smooth="yes"/>
      <point x="185" y="1045.33"/>
      <point x="187" y="1062.67"/>
      <point x="191" y="1084" type="curve" smooth="yes"/>
      <point x="195" y="1105.33"/>
      <point x="199.333" y="1122.67"/>
      <point x="204" y="1136" type="curve" smooth="yes"/>
      <point x="208.667" y="1149.33"/>
      <point x="214.167" y="1159.83"/>
      <point x="220.5" y="1167.5" type="curve" smooth="yes"/>
      <point x="226.833" y="1175.17"/>
      <point x="234.167" y="1180.33"/>
      <point x="242.5" y="1183" type="curve" smooth="yes"/>
      <point x="250.833" y="1185.67"/>
      <point x="260.667" y="1187"/>
      <point x="272" y="1187" type="curve" smooth="yes"/>
      <point x="1164" y="1187" type="line" smooth="yes"/>
      <point x="1187.33" y="1187"/>
      <point x="1203.17" y="1182"/>
      <point x="1211.5" y="1172" type="curve" smooth="yes"/>
      <point x="1219.83" y="1162"/>
      <point x="1221.67" y="1145.33"/>
      <point x="1217" y="1122" type="curve" smooth="yes"/>
      <point x="1168" y="840" type="line" smooth="yes"/>
      <point x="1164" y="817.333"/>
      <point x="1151.5" y="801.167"/>
      <point x="1130.5" y="791.5" type="curve" smooth="yes"/>
      <point x="1109.5" y="781.833"/>
      <point x="1077.67" y="777"/>
      <point x="1035" y="777" type="curve" smooth="yes"/>
      <point x="992.333" y="777"/>
      <point x="964.5" y="781.833"/>
      <point x="951.5" y="791.5" type="curve" smooth="yes"/>
      <point x="938.5" y="801.167"/>
      <point x="934" y="817.333"/>
      <point x="938" y="840" type="curve" smooth="yes"/>
      <point x="963" y="982" type="line"/>
    </contour>
    <contour>
      <point x="649" y="215" type="line" smooth="yes"/>
      <point x="715.667" y="215"/>
      <point x="766.833" y="226.667"/>
      <point x="802.5" y="250" type="curve" smooth="yes"/>
      <point x="838.167" y="273.333"/>
      <point x="860" y="308"/>
      <point x="868" y="354" type="curve" smooth="yes"/>
      <point x="877.333" y="404"/>
      <point x="868.167" y="440.667"/>
      <point x="840.5" y="464" type="curve" smooth="yes"/>
      <point x="812.833" y="487.333"/>
      <point x="765.667" y="499"/>
      <point x="699" y="499" type="curve" smooth="yes"/>
      <point x="507" y="499" type="line"/>
      <point x="457" y="215" type="line"/>
    </contour>
  </outline>
</glyph>
<glyph name="Vecyrillic" format="1">
  <advance width="1228"/>
  <unicode hex="0412"/>
  <outline>
    <contour>
      <point x="343" y="982" type="line"/>
      <point x="236" y="982" type="line" smooth="yes"/>
      <point x="224.667" y="982"/>
      <point x="215.333" y="983.333"/>
      <point x="208" y="986" type="curve" smooth="yes"/>
      <point x="200.667" y="988.667"/>
      <point x="195" y="993.667"/>
      <point x="191" y="1001" type="curve" smooth="yes"/>
      <point x="187" y="1008.33"/>
      <point x="185" y="1018.67"/>
      <point x="185" y="1032" type="curve" smooth="yes"/>
      <point x="185" y="1045.33"/>
      <point x="187" y="1062.67"/>
      <point x="191" y="1084" type="curve" smooth="yes"/>
      <point x="195" y="1105.33"/>
      <point x="199.333" y="1122.67"/>
      <point x="204" y="1136" type="curve" smooth="yes"/>
      <point x="208.667" y="1149.33"/>
      <point x="214.167" y="1159.83"/>
      <point x="220.5" y="1167.5" type="curve" smooth="yes"/>
      <point x="226.833" y="1175.17"/>
      <point x="234.167" y="1180.33"/>
      <point x="242.5" y="1183" type="curve" smooth="yes"/>
      <point x="250.833" y="1185.67"/>
      <point x="260.667" y="1187"/>
      <point x="272" y="1187" type="curve" smooth="yes"/>
      <point x="773" y="1187" type="line" smooth="yes"/>
      <point x="837" y="1187"/>
      <point x="892.5" y="1180.33"/>
      <point x="939.5" y="1167" type="curve" smooth="yes"/>
      <point x="986.5" y="1153.67"/>
      <point x="1025.5" y="1134.83"/>
      <point x="1056.5" y="1110.5" type="curve" smooth="yes"/>
      <point x="1087.5" y="1086.17"/>
      <point x="1110.67" y="1057.17"/>
      <point x="1126" y="1023.5" type="curve" smooth="yes"/>
      <point x="1141.33" y="989.833"/>
      <point x="1149" y="953"/>
      <point x="1149" y="913" type="curve" smooth="yes"/>
      <point x="1149" y="777.667"/>
      <point x="1082.67" y="681.667"/>
      <point x="950" y="625" type="curve"/>
      <point x="1008.67" y="608.333"/>
      <point x="1053.67" y="580.833"/>
      <point x="1085" y="542.5" type="curve" smooth="yes"/>
      <point x="1116.33" y="504.167"/>
      <point x="1132" y="454.667"/>
      <point x="1132" y="394" type="curve" smooth="yes"/>
      <point x="1132" y="370"/>
      <point x="1129.67" y="345.667"/>
      <point x="1125" y="321" type="curve" smooth="yes"/>
      <point x="1120.33" y="296.333"/>
      <point x="1113.5" y="272"/>
      <point x="1104.5" y="248" type="curve" smooth="yes"/>
      <point x="1095.5" y="224"/>
      <point x="1084" y="201"/>
      <point x="1070" y="179" type="curve" smooth="yes"/>
      <point x="1056" y="157"/>
      <point x="1039.67" y="137"/>
      <point x="1021" y="119" type="curve" smooth="yes"/>
      <point x="979" y="78.3333"/>
      <point x="926.167" y="48.3333"/>
      <point x="862.5" y="29" type="curve" smooth="yes"/>
      <point x="798.833" y="9.66667"/>
      <point x="724.667" y="0"/>
      <point x="640" y="0" type="curve" smooth="yes"/>
      <point x="63" y="0" type="line" smooth="yes"/>
      <point x="51.6667" y="0"/>
      <point x="42.1667" y="1.33333"/>
      <point x="34.5" y="4" type="curve" smooth="yes"/>
      <point x="26.8333" y="6.66667"/>
      <point x="21" y="11.6667"/>
      <point x="17" y="19" type="curve" smooth="yes"/>
      <point x="13" y="26.3333"/>
      <point x="11" y="36.6667"/>
      <point x="11" y="50" type="curve" smooth="yes"/>
      <point x="11" y="63.3333"/>
      <point x="13" y="80.6667"/>
      <point x="17" y="102" type="curve" smooth="yes"/>
      <point x="21" y="123.333"/>
      <point x="25.3333" y="140.667"/>
      <point x="30" y="154" type="curve" smooth="yes"/>
      <point x="34.6667" y="167.333"/>
      <point x="40.1667" y="177.833"/>
      <point x="46.5" y="185.5" type="curve" smooth="yes"/>
      <point x="52.8333" y="193.167"/>
      <point x="60.3333" y="198.333"/>
      <point x="69" y="201" type="curve" smooth="yes"/>
      <point x="77.6667" y="203.667"/>
      <point x="87.6667" y="205"/>
      <point x="99" y="205" type="curve" smooth="yes"/>
      <point x="206" y="205" type="line"/>
    </contour>
    <contour>
      <point x="650" y="215" type="line" smooth="yes"/>
      <point x="731.333" y="215"/>
      <point x="789.333" y="232.333"/>
      <point x="824" y="267" type="curve" smooth="yes"/>
      <point x="839.333" y="281.667"/>
      <point x="851" y="299.333"/>
      <point x="859" y="320" type="curve" smooth="yes"/>
      <point x="867" y="340.667"/>
      <point x="871" y="362.667"/>
      <point x="871" y="386" type="curve" smooth="yes"/>
      <point x="871" y="461.333"/>
      <point x="813.667" y="499"/>
      <point x="699" y="499" type="curve" smooth="yes"/>
      <point x="507" y="499" type="line"/>
      <point x="458" y="215" type="line"/>
    </contour>
    <contour>
      <point x="688" y="714" type="line" smooth="yes"/>
      <point x="764.667" y="714"/>
      <point x="819.667" y="731.667"/>
      <point x="853" y="767" type="curve" smooth="yes"/>
      <point x="865" y="780.333"/>
      <point x="874.333" y="796.667"/>
      <point x="881" y="816" type="curve" smooth="yes"/>
      <point x="887.667" y="835.333"/>
      <point x="891" y="855"/>
      <point x="891" y="875" type="curve" smooth="yes"/>
      <point x="891" y="909"/>
      <point x="878.167" y="933.667"/>
      <point x="852.5" y="949" type="curve" smooth="yes"/>
      <point x="826.833" y="964.333"/>
      <point x="787" y="972"/>
      <point x="733" y="972" type="curve" smooth="yes"/>
      <point x="591" y="972" type="line"/>
      <point x="546" y="714" type="line"/>
    </contour>
  </outline>
</glyph>
<glyph name="Gecyrillic" format="1">
  <advance width="1228"/>
  <unicode hex="0413"/>
  <outline>
    <contour>
      <point x="353" y="982" type="line"/>
      <point x="226" y="982" type="line" smooth="yes"/>
      <point x="214.667" y="982"/>
      <point x="205.333" y="983.333"/>
      <point x="198" y="986" type="curve" smooth="yes"/>
      <point x="190.667" y="988.667"/>
      <point x="185" y="993.667"/>
      <point x="181" y="1001" type="curve" smooth="yes"/>
      <point x="177" y="1008.33"/>
      <point x="175" y="1018.67"/>
      <point x="175" y="1032" type="curve" smooth="yes"/>
      <point x="175" y="1045.33"/>
      <point x="177" y="1062.67"/>
      <point x="181" y="1084" type="curve" smooth="yes"/>
      <point x="185" y="1105.33"/>
      <point x="189.333" y="1122.67"/>
      <point x="194" y="1136" type="curve" smooth="yes"/>
      <point x="198.667" y="1149.33"/>
      <point x="204.167" y="1159.83"/>
      <point x="210.5" y="1167.5" type="curve" smooth="yes"/>
      <point x="216.833" y="1175.17"/>
      <point x="224.167" y="1180.33"/>
      <point x="232.5" y="1183" type="curve" smooth="yes"/>
      <point x="240.833" y="1185.67"/>
      <point x="250.667" y="1187"/>
      <point x="262" y="1187" type="curve" smooth="yes"/>
      <point x="1194" y="1187" type="line" smooth="yes"/>
      <point x="1217.33" y="1187"/>
      <point x="1233.17" y="1182"/>
      <point x="1241.5" y="1172" type="curve" smooth="yes"/>
      <point x="1249.83" y="1162"/>
      <point x="1251.67" y="1145.33"/>
      <point x="1247" y="1122" type="curve" smooth="yes"/>
      <point x="1173" y="700" type="line" smooth="yes"/>
      <point x="1169" y="677.333"/>
      <point x="1156.5" y="661.167"/>
      <point x="1135.5" y="651.5" type="curve" smooth="yes"/>
      <point x="1114.5" y="641.833"/>
      <point x="1082.67" y="637"/>
      <point x="1040" y="637" type="curve" smooth="yes"/>
      <point x="997.333" y="637"/>
      <point x="969.5" y="641.833"/>
      <point x="956.5" y="651.5" type="curve" smooth="yes"/>
      <point x="943.5" y="661.167"/>
      <point x="939" y="677.333"/>
      <point x="943" y="700" type="curve" smooth="yes"/>
      <point x="991" y="972" type="line"/>
      <point x="601" y="972" type="line"/>
      <point x="466" y="205" type="line"/>
      <point x="623" y="205" type="line" smooth="yes"/>
      <point x="634.333" y="205"/>
      <point x="643.667" y="203.667"/>
      <point x="651" y="201" type="curve" smooth="yes"/>
      <point x="658.333" y="198.333"/>
      <point x="663.833" y="193.167"/>
      <point x="667.5" y="185.5" type="curve" smooth="yes"/>
      <point x="671.167" y="177.833"/>
      <point x="673" y="167.333"/>
      <point x="673" y="154" type="curve" smooth="yes"/>
      <point x="673" y="140.667"/>
      <point x="671" y="123.333"/>
      <point x="667" y="102" type="curve" smooth="yes"/>
      <point x="663" y="80.6667"/>
      <point x="658.833" y="63.3333"/>
      <point x="654.5" y="50" type="curve" smooth="yes"/>
      <point x="650.167" y="36.6667"/>
      <point x="644.833" y="26.3333"/>
      <point x="638.5" y="19" type="curve" smooth="yes"/>
      <point x="632.167" y="11.6667"/>
      <point x="624.833" y="6.66667"/>
      <point x="616.5" y="4" type="curve" smooth="yes"/>
      <point x="608.167" y="1.33333"/>
      <point x="598.333" y="0"/>
      <point x="587" y="0" type="curve" smooth="yes"/>
      <point x="53" y="0" type="line" smooth="yes"/>
      <point x="41.6667" y="0"/>
      <point x="32.1667" y="1.33333"/>
      <point x="24.5" y="4" type="curve" smooth="yes"/>
      <point x="16.8333" y="6.66667"/>
      <point x="11.1667" y="11.6667"/>
      <point x="7.5" y="19" type="curve" smooth="yes"/>
      <point x="3.83333" y="26.3333"/>
      <point x="1.83333" y="36.6667"/>
      <point x="1.5" y="50" type="curve" smooth="yes"/>
      <point x="1.16667" y="63.3333"/>
      <point x="3" y="80.6667"/>
      <point x="7" y="102" type="curve" smooth="yes"/>
      <point x="11" y="123.333"/>
      <point x="15.3333" y="140.667"/>
      <point x="20" y="154" type="curve" smooth="yes"/>
      <point x="24.6667" y="167.333"/>
      <point x="30.1667" y="177.833"/>
      <point x="36.5" y="185.5" type="curve" smooth="yes"/>
      <point x="42.8333" y="193.167"/>
      <point x="50.3333" y="198.333"/>
      <point x="59" y="201" type="curve" smooth="yes"/>
      <point x="67.6667" y="203.667"/>
      <point x="77.6667" y="205"/>
      <point x="89" y="205" type="curve" smooth="yes"/>
      <point x="216" y="205" type="line"/>
    </contour>
  </outline>
</glyph>
<glyph name="Decyrillic" format="1">
  <advance width="1228"/>
  <unicode hex="0414"/>
  <outline>
    <contour>
      <point x="119" y="205" type="line" smooth="yes"/>
      <point x="131" y="205.667"/>
      <point x="147" y="209.833"/>
      <point x="167" y="217.5" type="curve" smooth="yes"/>
      <point x="187" y="225.167"/>
      <point x="207.5" y="238"/>
      <point x="228.5" y="256" type="curve" smooth="yes"/>
      <point x="249.5" y="274"/>
      <point x="269.167" y="297.333"/>
      <point x="287.5" y="326" type="curve" smooth="yes"/>
      <point x="305.833" y="354.667"/>
      <point x="318.667" y="390.333"/>
      <point x="326" y="433" type="curve" smooth="yes"/>
      <point x="423" y="982" type="line"/>
      <point x="366" y="982" type="line" smooth="yes"/>
      <point x="354.667" y="982"/>
      <point x="345.333" y="983.333"/>
      <point x="338" y="986" type="curve" smooth="yes"/>
      <point x="330.667" y="988.667"/>
      <point x="325" y="993.667"/>
      <point x="321" y="1001" type="curve" smooth="yes"/>
      <point x="317" y="1008.33"/>
      <point x="315" y="1018.67"/>
      <point x="315" y="1032" type="curve" smooth="yes"/>
      <point x="315" y="1045.33"/>
      <point x="317" y="1062.67"/>
      <point x="321" y="1084" type="curve" smooth="yes"/>
      <point x="325" y="1105.33"/>
      <point x="329.333" y="1122.67"/>
      <point x="334" y="1136" type="curve" smooth="yes"/>
      <point x="338.667" y="1149.33"/>
      <point x="344.167" y="1159.83"/>
      <point x="350.5" y="1167.5" type="curve" smooth="yes"/>
      <point x="356.833" y="1175.17"/>
      <point x="364.167" y="1180.33"/>
      <point x="372.5" y="1183" type="curve" smooth="yes"/>
      <point x="380.833" y="1185.67"/>
      <point x="390.667" y="1187"/>
      <point x="402" y="1187" type="curve" smooth="yes"/>
      <point x="1254" y="1187" type="line" smooth="yes"/>
      <point x="1265.33" y="1187"/>
      <point x="1274.67" y="1185.67"/>
      <point x="1282" y="1183" type="curve" smooth="yes"/>
      <point x="1289.33" y="1180.33"/>
      <point x="1295" y="1175.17"/>
      <point x="1299" y="1167.5" type="curve" smooth="yes"/>
      <point x="1303" y="1159.83"/>
      <point x="1305" y="1149.33"/>
      <point x="1305" y="1136" type="curve" smooth="yes"/>
      <point x="1305" y="1122.67"/>
      <point x="1303" y="1105.33"/>
      <point x="1299" y="1084" type="curve" smooth="yes"/>
      <point x="1295" y="1062.67"/>
      <point x="1290.67" y="1045.33"/>
      <point x="1286" y="1032" type="curve" smooth="yes"/>
      <point x="1281.33" y="1018.67"/>
      <point x="1275.83" y="1008.33"/>
      <point x="1269.5" y="1001" type="curve" smooth="yes"/>
      <point x="1263.17" y="993.667"/>
      <point x="1255.83" y="988.667"/>
      <point x="1247.5" y="986" type="curve" smooth="yes"/>
      <point x="1239.17" y="983.333"/>
      <point x="1229.33" y="982"/>
      <point x="1218" y="982" type="curve" smooth="yes"/>
      <point x="1161" y="982" type="line"/>
      <point x="1024" y="205" type="line"/>
      <point x="1109" y="205" type="line" smooth="yes"/>
      <point x="1132.33" y="205"/>
      <point x="1148" y="200"/>
      <point x="1156" y="190" type="curve" smooth="yes"/>
      <point x="1164" y="180"/>
      <point x="1166" y="163.333"/>
      <point x="1162" y="140" type="curve" smooth="yes"/>
      <point x="1095" y="-242" type="line" smooth="yes"/>
      <point x="1091" y="-264.667"/>
      <point x="1078.5" y="-280.833"/>
      <point x="1057.5" y="-290.5" type="curve" smooth="yes"/>
      <point x="1036.5" y="-300.167"/>
      <point x="1004.67" y="-305"/>
      <point x="962" y="-305" type="curve" smooth="yes"/>
      <point x="919.333" y="-305"/>
      <point x="891.5" y="-300.167"/>
      <point x="878.5" y="-290.5" type="curve" smooth="yes"/>
      <point x="865.5" y="-280.833"/>
      <point x="861" y="-264.667"/>
      <point x="865" y="-242" type="curve" smooth="yes"/>
      <point x="908" y="0" type="line"/>
      <point x="210" y="0" type="line"/>
      <point x="167" y="-242" type="line" smooth="yes"/>
      <point x="165" y="-253.333"/>
      <point x="161.667" y="-263"/>
      <point x="157" y="-271" type="curve" smooth="yes"/>
      <point x="152.333" y="-279"/>
      <point x="145.5" y="-285.5"/>
      <point x="136.5" y="-290.5" type="curve" smooth="yes"/>
      <point x="127.5" y="-295.5"/>
      <point x="115.833" y="-299.167"/>
      <point x="101.5" y="-301.5" type="curve" smooth="yes"/>
      <point x="87.1667" y="-303.833"/>
      <point x="69.3333" y="-305"/>
      <point x="48" y="-305" type="curve" smooth="yes"/>
      <point x="5.33333" y="-305"/>
      <point x="-24.6667" y="-300.167"/>
      <point x="-42" y="-290.5" type="curve" smooth="yes"/>
      <point x="-59.3333" y="-280.833"/>
      <point x="-66.3333" y="-264.667"/>
      <point x="-63" y="-242" type="curve" smooth="yes"/>
      <point x="4" y="140" type="line" smooth="yes"/>
      <point x="8" y="163.333"/>
      <point x="16" y="180"/>
      <point x="28" y="190" type="curve" smooth="yes"/>
      <point x="40" y="200"/>
      <point x="57.6667" y="205"/>
      <point x="81" y="205" type="curve" smooth="yes"/>
    </contour>
    <contour>
      <point x="585" y="483" type="line" smooth="yes"/>
      <point x="573.667" y="420.333"/>
      <point x="557.333" y="366"/>
      <point x="536" y="320" type="curve" smooth="yes"/>
      <point x="514.667" y="274"/>
      <point x="488.333" y="235.667"/>
      <point x="457" y="205" type="curve"/>
      <point x="774" y="205" type="line"/>
      <point x="911" y="982" type="line"/>
      <point x="673" y="982" type="line"/>
    </contour>
  </outline>
</glyph>
<glyph name="Iecyrillic" format="1">
  <advance width="1228"/>
  <unicode hex="0415"/>
  <outline>
    <contour>
      <point x="323" y="982" type="line"/>
      <point x="226" y="982" type="line" smooth="yes"/>
      <point x="214.667" y="982"/>
      <point x="205.333" y="983.333"/>
      <point x="198" y="986" type="curve" smooth="yes"/>
      <point x="190.667" y="988.667"/>
      <point x="185" y="993.667"/>
      <point x="181" y="1001" type="curve" smooth="yes"/>
      <point x="177" y="1008.33"/>
      <point x="175" y="1018.67"/>
      <point x="175" y="1032" type="curve" smooth="yes"/>
      <point x="175" y="1045.33"/>
      <point x="177" y="1062.67"/>
      <point x="181" y="1084" type="curve" smooth="yes"/>
      <point x="185" y="1105.33"/>
      <point x="189.333" y="1122.67"/>
      <point x="194" y="1136" type="curve" smooth="yes"/>
      <point x="198.667" y="1149.33"/>
      <point x="204.167" y="1159.83"/>
      <point x="210.5" y="1167.5" type="curve" smooth="yes"/>
      <point x="216.833" y="1175.17"/>
      <point x="224.167" y="1180.33"/>
      <point x="232.5" y="1183" type="curve" smooth="yes"/>
      <point x="240.833" y="1185.67"/>
      <point x="250.667" y="1187"/>
      <point x="262" y="1187" type="curve" smooth="yes"/>
      <point x="1174" y="1187" type="line" smooth="yes"/>
      <point x="1197.33" y="1187"/>
      <point x="1213" y="1182"/>
      <point x="1221" y="1172" type="curve" smooth="yes"/>
      <point x="1229" y="1162"/>
      <point x="1231" y="1145.33"/>
      <point x="1227" y="1122" type="curve" smooth="yes"/>
      <point x="1174" y="820" type="line" smooth="yes"/>
      <point x="1170" y="797.333"/>
      <point x="1157.5" y="781.167"/>
      <point x="1136.5" y="771.5" type="curve" smooth="yes"/>
      <point x="1115.5" y="761.833"/>
      <point x="1083.67" y="757"/>
      <point x="1041" y="757" type="curve" smooth="yes"/>
      <point x="998.333" y="757"/>
      <point x="970.5" y="761.833"/>
      <point x="957.5" y="771.5" type="curve" smooth="yes"/>
      <point x="944.5" y="781.167"/>
      <point x="940" y="797.333"/>
      <point x="944" y="820" type="curve" smooth="yes"/>
      <point x="971" y="972" type="line"/>
      <point x="571" y="972" type="line"/>
      <point x="526" y="719" type="line"/>
      <point x="770" y="719" type="line" smooth="yes"/>
      <point x="792" y="719"/>
      <point x="806.833" y="711.667"/>
      <point x="814.5" y="697" type="curve" smooth="yes"/>
      <point x="822.167" y="682.333"/>
      <point x="822" y="653.667"/>
      <point x="814" y="611" type="curve" smooth="yes"/>
      <point x="810" y="589.667"/>
      <point x="805.667" y="572.167"/>
      <point x="801" y="558.5" type="curve" smooth="yes"/>
      <point x="796.333" y="544.833"/>
      <point x="790.667" y="534"/>
      <point x="784" y="526" type="curve" smooth="yes"/>
      <point x="777.333" y="518"/>
      <point x="769.833" y="512.333"/>
      <point x="761.5" y="509" type="curve" smooth="yes"/>
      <point x="753.167" y="505.667"/>
      <point x="743.333" y="504"/>
      <point x="732" y="504" type="curve" smooth="yes"/>
      <point x="488" y="504" type="line"/>
      <point x="437" y="215" type="line"/>
      <point x="847" y="215" type="line"/>
      <point x="883" y="417" type="line" smooth="yes"/>
      <point x="887" y="439.667"/>
      <point x="899.333" y="455.833"/>
      <point x="920" y="465.5" type="curve" smooth="yes"/>
      <point x="940.667" y="475.167"/>
      <point x="974" y="480"/>
      <point x="1020" y="480" type="curve" smooth="yes"/>
      <point x="1042.67" y="480"/>
      <point x="1061.17" y="478.833"/>
      <point x="1075.5" y="476.5" type="curve" smooth="yes"/>
      <point x="1089.83" y="474.167"/>
      <point x="1100.83" y="470.5"/>
      <point x="1108.5" y="465.5" type="curve" smooth="yes"/>
      <point x="1116.17" y="460.5"/>
      <point x="1121" y="454"/>
      <point x="1123" y="446" type="curve" smooth="yes"/>
      <point x="1125" y="438"/>
      <point x="1125" y="428.333"/>
      <point x="1123" y="417" type="curve" smooth="yes"/>
      <point x="1061" y="65" type="line" smooth="yes"/>
      <point x="1057" y="41.6667"/>
      <point x="1049.17" y="25"/>
      <point x="1037.5" y="15" type="curve" smooth="yes"/>
      <point x="1025.83" y="5"/>
      <point x="1008.33" y="0"/>
      <point x="985" y="0" type="curve" smooth="yes"/>
      <point x="53" y="0" type="line" smooth="yes"/>
      <point x="41.6667" y="0"/>
      <point x="32.1667" y="1.33333"/>
      <point x="24.5" y="4" type="curve" smooth="yes"/>
      <point x="16.8333" y="6.66667"/>
      <point x="11" y="11.6667"/>
      <point x="7" y="19" type="curve" smooth="yes"/>
      <point x="3" y="26.3333"/>
      <point x="1" y="36.6667"/>
      <point x="1" y="50" type="curve" smooth="yes"/>
      <point x="1" y="63.3333"/>
      <point x="3" y="80.6667"/>
      <point x="7" y="102" type="curve" smooth="yes"/>
      <point x="11" y="123.333"/>
      <point x="15.3333" y="140.667"/>
      <point x="20" y="154" type="curve" smooth="yes"/>
      <point x="24.6667" y="167.333"/>
      <point x="30.1667" y="177.833"/>
      <point x="36.5" y="185.5" type="curve" smooth="yes"/>
      <point x="42.8333" y="193.167"/>
      <point x="50.3333" y="198.333"/>
      <point x="59" y="201" type="curve" smooth="yes"/>
      <point x="67.6667" y="203.667"/>
      <point x="77.6667" y="205"/>
      <point x="89" y="205" type="curve" smooth="yes"/>
      <point x="186" y="205" type="line"/>
    </contour>
  </outline>
</glyph>
<glyph name="Zhecyrillic" format="1">
  <advance width="1228"/>
  <unicode hex="0416"/>
  <outline>
    <contour>
      <point x="1193" y="775" type="curve" smooth="yes"/>
      <point x="1158.33" y="775"/>
      <point x="1135.83" y="779.833"/>
      <point x="1125.5" y="789.5" type="curve" smooth="yes"/>
      <point x="1115.17" y="799.167"/>
      <point x="1112" y="815.333"/>
      <point x="1116" y="838" type="curve" smooth="yes"/>
      <point x="1140" y="974" type="line"/>
      <point x="1124.67" y="950"/>
      <point x="1110.17" y="921.333"/>
      <point x="1096.5" y="888" type="curve" smooth="yes"/>
      <point x="1082.83" y="854.667"/>
      <point x="1068.33" y="821.667"/>
      <point x="1053" y="789" type="curve" smooth="yes"/>
      <point x="1037.67" y="756.333"/>
      <point x="1020.33" y="726.333"/>
      <point x="1001" y="699" type="curve" smooth="yes"/>
      <point x="981.667" y="671.667"/>
      <point x="958.667" y="652"/>
      <point x="932" y="640" type="curve"/>
      <point x="956.667" y="640"/>
      <point x="976.833" y="629.167"/>
      <point x="992.5" y="607.5" type="curve" smooth="yes"/>
      <point x="1008.17" y="585.833"/>
      <point x="1021" y="558.833"/>
      <point x="1031" y="526.5" type="curve" smooth="yes"/>
      <point x="1041" y="494.167"/>
      <point x="1049.17" y="459.333"/>
      <point x="1055.5" y="422" type="curve" smooth="yes"/>
      <point x="1061.83" y="384.667"/>
      <point x="1068.17" y="349.833"/>
      <point x="1074.5" y="317.5" type="curve" smooth="yes"/>
      <point x="1080.83" y="285.167"/>
      <point x="1088.33" y="258.333"/>
      <point x="1097" y="237" type="curve" smooth="yes"/>
      <point x="1105.67" y="215.667"/>
      <point x="1117.33" y="205"/>
      <point x="1132" y="205" type="curve" smooth="yes"/>
      <point x="1142" y="205" type="line" smooth="yes"/>
      <point x="1152.67" y="205"/>
      <point x="1161.83" y="203.667"/>
      <point x="1169.5" y="201" type="curve" smooth="yes"/>
      <point x="1177.17" y="198.333"/>
      <point x="1182.83" y="193.167"/>
      <point x="1186.5" y="185.5" type="curve" smooth="yes"/>
      <point x="1190.17" y="177.833"/>
      <point x="1192" y="167.333"/>
      <point x="1192" y="154" type="curve" smooth="yes"/>
      <point x="1192" y="140.667"/>
      <point x="1190" y="123.333"/>
      <point x="1186" y="102" type="curve" smooth="yes"/>
      <point x="1182" y="80.6667"/>
      <point x="1177.83" y="63.3333"/>
      <point x="1173.5" y="50" type="curve" smooth="yes"/>
      <point x="1169.17" y="36.6667"/>
      <point x="1163.83" y="26.3333"/>
      <point x="1157.5" y="19" type="curve" smooth="yes"/>
      <point x="1151.17" y="11.6667"/>
      <point x="1143.83" y="6.66667"/>
      <point x="1135.5" y="4" type="curve" smooth="yes"/>
      <point x="1127.17" y="1.33333"/>
      <point x="1117.33" y="0"/>
      <point x="1106" y="0" type="curve" smooth="yes"/>
      <point x="967" y="0" type="line" smooth="yes"/>
      <point x="947.667" y="0"/>
      <point x="931.833" y="7.16667"/>
      <point x="919.5" y="21.5" type="curve" smooth="yes"/>
      <point x="907.167" y="35.8333"/>
      <point x="896.833" y="54.8333"/>
      <point x="888.5" y="78.5" type="curve" smooth="yes"/>
      <point x="880.167" y="102.167"/>
      <point x="873.5" y="129.167"/>
      <point x="868.5" y="159.5" type="curve" smooth="yes"/>
      <point x="863.5" y="189.833"/>
      <point x="859" y="220.667"/>
      <point x="855" y="252" type="curve" smooth="yes"/>
      <point x="851" y="283.333"/>
      <point x="847" y="314.167"/>
      <point x="843" y="344.5" type="curve" smooth="yes"/>
      <point x="839" y="374.833"/>
      <point x="834" y="401.833"/>
      <point x="828" y="425.5" type="curve" smooth="yes"/>
      <point x="822" y="449.167"/>
      <point x="814.167" y="468.167"/>
      <point x="804.5" y="482.5" type="curve" smooth="yes"/>
      <point x="794.833" y="496.833"/>
      <point x="782.333" y="504"/>
      <point x="767" y="504" type="curve" smooth="yes"/>
      <point x="757" y="504" type="line"/>
      <point x="705" y="205" type="line"/>
      <point x="722" y="205" type="line" smooth="yes"/>
      <point x="733.333" y="205"/>
      <point x="742.667" y="203.667"/>
      <point x="750" y="201" type="curve" smooth="yes"/>
      <point x="757.333" y="198.333"/>
      <point x="762.833" y="193.167"/>
      <point x="766.5" y="185.5" type="curve" smooth="yes"/>
      <point x="770.167" y="177.833"/>
      <point x="772" y="167.333"/>
      <point x="772" y="154" type="curve" smooth="yes"/>
      <point x="772" y="140.667"/>
      <point x="770" y="123.333"/>
      <point x="766" y="102" type="curve" smooth="yes"/>
      <point x="762" y="80.6667"/>
      <point x="757.833" y="63.3333"/>
      <point x="753.5" y="50" type="curve" smooth="yes"/>
      <point x="749.167" y="36.6667"/>
      <point x="743.833" y="26.3333"/>
      <point x="737.5" y="19" type="curve" smooth="yes"/>
      <point x="731.167" y="11.6667"/>
      <point x="723.833" y="6.66667"/>
      <point x="715.5" y="4" type="curve" smooth="yes"/>
      <point x="707.167" y="1.33333"/>
      <point x="697.333" y="0"/>
      <point x="686" y="0" type="curve" smooth="yes"/>
      <point x="402" y="0" type="line" smooth="yes"/>
      <point x="390.667" y="0"/>
      <point x="381.167" y="1.33333"/>
      <point x="373.5" y="4" type="curve" smooth="yes"/>
      <point x="365.833" y="6.66667"/>
      <point x="360.167" y="11.6667"/>
      <point x="356.5" y="19" type="curve" smooth="yes"/>
      <point x="352.833" y="26.3333"/>
      <point x="350.833" y="36.6667"/>
      <point x="350.5" y="50" type="curve" smooth="yes"/>
      <point x="350.167" y="63.3333"/>
      <point x="352" y="80.6667"/>
      <point x="356" y="102" type="curve" smooth="yes"/>
      <point x="360" y="123.333"/>
      <point x="364.333" y="140.667"/>
      <point x="369" y="154" type="curve" smooth="yes"/>
      <point x="373.667" y="167.333"/>
      <point x="379.167" y="177.833"/>
      <point x="385.5" y="185.5" type="curve" smooth="yes"/>
      <point x="391.833" y="193.167"/>
      <point x="399.333" y="198.333"/>
      <point x="408" y="201" type="curve" smooth="yes"/>
      <point x="416.667" y="203.667"/>
      <point x="426.667" y="205"/>
      <point x="438" y="205" type="curve" smooth="yes"/>
      <point x="455" y="205" type="line"/>
      <point x="507" y="504" type="line"/>
      <point x="497" y="504" type="line" smooth="yes"/>
      <point x="481.667" y="504"/>
      <point x="466.667" y="496.833"/>
      <point x="452" y="482.5" type="curve" smooth="yes"/>
      <point x="437.333" y="468.167"/>
      <point x="422.833" y="449.167"/>
      <point x="408.5" y="425.5" type="curve" smooth="yes"/>
      <point x="394.167" y="401.833"/>
      <point x="379.667" y="374.833"/>
      <point x="365" y="344.5" type="curve" smooth="yes"/>
      <point x="350.333" y="314.167"/>
      <point x="335.5" y="283.333"/>
      <point x="320.5" y="252" type="curve" smooth="yes"/>
      <point x="305.5" y="220.667"/>
      <point x="290.333" y="189.833"/>
      <point x="275" y="159.5" type="curve" smooth="yes"/>
      <point x="259.667" y="129.167"/>
      <point x="243.667" y="102.167"/>
      <point x="227" y="78.5" type="curve" smooth="yes"/>
      <point x="210.333" y="54.8333"/>
      <point x="193.167" y="35.8333"/>
      <point x="175.5" y="21.5" type="curve" smooth="yes"/>
      <point x="157.833" y="7.16667"/>
      <point x="139.667" y="0"/>
      <point x="121" y="0" type="curve" smooth="yes"/>
      <point x="-18" y="0" type="line" smooth="yes"/>
      <point x="-29.3333" y="0"/>
      <point x="-38.6667" y="1.33333"/>
      <point x="-46" y="4" type="curve" smooth="yes"/>
      <point x="-53.3333" y="6.66667"/>
      <point x="-59" y="11.6667"/>
      <point x="-63" y="19" type="curve" smooth="yes"/>
      <point x="-67" y="26.3333"/>
      <point x="-69" y="36.6667"/>
      <point x="-69" y="50" type="curve" smooth="yes"/>
      <point x="-69" y="63.3333"/>
      <point x="-67.3333" y="80.6667"/>
      <point x="-64" y="102" type="curve" smooth="yes"/>
      <point x="-60" y="123.333"/>
      <point x="-55.6667" y="140.667"/>
      <point x="-51" y="154" type="curve" smooth="yes"/>
      <point x="-46.3333" y="167.333"/>
      <point x="-40.6667" y="177.833"/>
      <point x="-34" y="185.5" type="curve" smooth="yes"/>
      <point x="-27.3333" y="193.167"/>
      <point x="-19.8333" y="198.333"/>
      <point x="-11.5" y="201" type="curve" smooth="yes"/>
      <point x="-3.16667" y="203.667"/>
      <point x="6.66667" y="205"/>
      <point x="18" y="205" type="curve" smooth="yes"/>
      <point x="28" y="205" type="line" smooth="yes"/>
      <point x="42.6667" y="205"/>
      <point x="58" y="215.667"/>
      <point x="74" y="237" type="curve" smooth="yes"/>
      <point x="90" y="258.333"/>
      <point x="107" y="285.167"/>
      <point x="125" y="317.5" type="curve" smooth="yes"/>
      <point x="143" y="349.833"/>
      <point x="161.667" y="384.667"/>
      <point x="181" y="422" type="curve" smooth="yes"/>
      <point x="200.333" y="459.333"/>
      <point x="220.5" y="494.167"/>
      <point x="241.5" y="526.5" type="curve" smooth="yes"/>
      <point x="262.5" y="558.833"/>
      <point x="284.5" y="585.833"/>
      <point x="307.5" y="607.5" type="curve" smooth="yes"/>
      <point x="330.5" y="629.167"/>
      <point x="354.333" y="640"/>
      <point x="379" y="640" type="curve"/>
      <point x="364.333" y="648"/>
      <point x="352.5" y="659.667"/>
      <point x="343.5" y="675" type="curve" smooth="yes"/>
      <point x="334.5" y="690.333"/>
      <point x="327.5" y="707.667"/>
      <point x="322.5" y="727" type="curve" smooth="yes"/>
      <point x="317.5" y="746.333"/>
      <point x="313.833" y="767.167"/>
      <point x="311.5" y="789.5" type="curve" smooth="yes"/>
      <point x="309.167" y="811.833"/>
      <point x="307.167" y="834"/>
      <point x="305.5" y="856" type="curve" smooth="yes"/>
      <point x="303.833" y="878"/>
      <point x="302" y="899.167"/>
      <point x="300" y="919.5" type="curve" smooth="yes"/>
      <point x="298" y="939.833"/>
      <point x="294.667" y="958"/>
      <point x="290" y="974" type="curve"/>
      <point x="266" y="838" type="line" smooth="yes"/>
      <point x="262" y="815.333"/>
      <point x="253.167" y="799.167"/>
      <point x="239.5" y="789.5" type="curve" smooth="yes"/>
      <point x="225.833" y="779.833"/>
      <point x="201.667" y="775"/>
      <point x="167" y="775" type="curve" smooth="yes"/>
      <point x="131" y="775"/>
      <point x="105.833" y="779.833"/>
      <point x="91.5" y="789.5" type="curve" smooth="yes"/>
      <point x="77.1667" y="799.167"/>
      <point x="72" y="815.333"/>
      <point x="76" y="838" type="curve" smooth="yes"/>
      <point x="122" y="1097" type="line" smooth="yes"/>
      <point x="124" y="1107.67"/>
      <point x="126.833" y="1117.33"/>
      <point x="130.5" y="1126" type="curve" smooth="yes"/>
      <point x="134.167" y="1134.67"/>
      <point x="139.667" y="1142"/>
      <point x="147" y="1148" type="curve" smooth="yes"/>
      <point x="157.667" y="1157.33"/>
      <point x="168" y="1165.67"/>
      <point x="178" y="1173" type="curve" smooth="yes"/>
      <point x="188" y="1180.33"/>
      <point x="198.5" y="1186.67"/>
      <point x="209.5" y="1192" type="curve" smooth="yes"/>
      <point x="220.5" y="1197.33"/>
      <point x="232.667" y="1201.5"/>
      <point x="246" y="1204.5" type="curve" smooth="yes"/>
      <point x="259.333" y="1207.5"/>
      <point x="275" y="1209"/>
      <point x="293" y="1209" type="curve" smooth="yes"/>
      <point x="331" y="1209"/>
      <point x="362.167" y="1202"/>
      <point x="386.5" y="1188" type="curve" smooth="yes"/>
      <point x="410.833" y="1174"/>
      <point x="430.333" y="1155.5"/>
      <point x="445" y="1132.5" type="curve" smooth="yes"/>
      <point x="459.667" y="1109.5"/>
      <point x="470.333" y="1083.33"/>
      <point x="477" y="1054" type="curve" smooth="yes"/>
      <point x="483.667" y="1024.67"/>
      <point x="488.333" y="994.667"/>
      <point x="491" y="964" type="curve" smooth="yes"/>
      <point x="493.667" y="933.333"/>
      <point x="495.333" y="903.333"/>
      <point x="496" y="874" type="curve" smooth="yes"/>
      <point x="496.667" y="844.667"/>
      <point x="498" y="818.5"/>
      <point x="500" y="795.5" type="curve" smooth="yes"/>
      <point x="502" y="772.5"/>
      <point x="505.833" y="754"/>
      <point x="511.5" y="740" type="curve" smooth="yes"/>
      <point x="517.167" y="726"/>
      <point x="526.667" y="719"/>
      <point x="540" y="719" type="curve" smooth="yes"/>
      <point x="545" y="719" type="line"/>
      <point x="592" y="982" type="line"/>
      <point x="575" y="982" type="line" smooth="yes"/>
      <point x="563.667" y="982"/>
      <point x="554.333" y="983.333"/>
      <point x="547" y="986" type="curve" smooth="yes"/>
      <point x="539.667" y="988.667"/>
      <point x="534" y="993.833"/>
      <point x="530" y="1001.5" type="curve" smooth="yes"/>
      <point x="526" y="1009.17"/>
      <point x="524" y="1019.67"/>
      <point x="524" y="1033" type="curve" smooth="yes"/>
      <point x="524" y="1046.33"/>
      <point x="526" y="1063.67"/>
      <point x="530" y="1085" type="curve" smooth="yes"/>
      <point x="534" y="1106.33"/>
      <point x="538.333" y="1123.67"/>
      <point x="543" y="1137" type="curve" smooth="yes"/>
      <point x="547.667" y="1150.33"/>
      <point x="553.167" y="1160.67"/>
      <point x="559.5" y="1168" type="curve" smooth="yes"/>
      <point x="565.833" y="1175.33"/>
      <point x="573.167" y="1180.33"/>
      <point x="581.5" y="1183" type="curve" smooth="yes"/>
      <point x="589.833" y="1185.67"/>
      <point x="599.667" y="1187"/>
      <point x="611" y="1187" type="curve" smooth="yes"/>
      <point x="895" y="1187" type="line" smooth="yes"/>
      <point x="906.333" y="1187"/>
      <point x="915.667" y="1185.67"/>
      <point x="923" y="1183" type="curve" smooth="yes"/>
      <point x="930.333" y="1180.33"/>
      <point x="936" y="1175.33"/>
      <point x="940" y="1168" type="curve" smooth="yes"/>
      <point x="944" y="1160.67"/>
      <point x="946" y="1150.33"/>
      <point x="946" y="1137" type="curve" smooth="yes"/>
      <point x="946" y="1123.67"/>
      <point x="944" y="1106.33"/>
      <point x="940" y="1085" type="curve" smooth="yes"/>
      <point x="936" y="1063.67"/>
      <point x="931.667" y="1046.33"/>
      <point x="927" y="1033" type="curve" smooth="yes"/>
      <point x="922.333" y="1019.67"/>
      <point x="916.833" y="1009.17"/>
      <point x="910.5" y="1001.5" type="curve" smooth="yes"/>
      <point x="904.167" y="993.833"/>
      <point x="896.833" y="988.667"/>
      <point x="888.5" y="986" type="curve" smooth="yes"/>
      <point x="880.167" y="983.333"/>
      <point x="870.333" y="982"/>
      <point x="859" y="982" type="curve" smooth="yes"/>
      <point x="842" y="982" type="line"/>
      <point x="795" y="719" type="line"/>
      <point x="800" y="719" type="line" smooth="yes"/>
      <point x="813.333" y="719"/>
      <point x="825.333" y="726"/>
      <point x="836" y="740" type="curve" smooth="yes"/>
      <point x="846.667" y="754"/>
      <point x="857.167" y="772.5"/>
      <point x="867.5" y="795.5" type="curve" smooth="yes"/>
      <point x="877.833" y="818.5"/>
      <point x="888.5" y="844.667"/>
      <point x="899.5" y="874" type="curve" smooth="yes"/>
      <point x="910.5" y="903.333"/>
      <point x="922.667" y="933.333"/>
      <point x="936" y="964" type="curve" smooth="yes"/>
      <point x="949.333" y="994.667"/>
      <point x="964.667" y="1024.67"/>
      <point x="982" y="1054" type="curve" smooth="yes"/>
      <point x="999.333" y="1083.33"/>
      <point x="1019.33" y="1109.5"/>
      <point x="1042" y="1132.5" type="curve" smooth="yes"/>
      <point x="1064.67" y="1155.5"/>
      <point x="1090.67" y="1174"/>
      <point x="1120" y="1188" type="curve" smooth="yes"/>
      <point x="1149.33" y="1202"/>
      <point x="1183" y="1209"/>
      <point x="1221" y="1209" type="curve" smooth="yes"/>
      <point x="1239" y="1209"/>
      <point x="1254" y="1207.5"/>
      <point x="1266" y="1204.5" type="curve" smooth="yes"/>
      <point x="1278" y="1201.5"/>
      <point x="1288.67" y="1197.33"/>
      <point x="1298" y="1192" type="curve" smooth="yes"/>
      <point x="1307.33" y="1186.67"/>
      <point x="1315.5" y="1180.33"/>
      <point x="1322.5" y="1173" type="curve" smooth="yes"/>
      <point x="1329.5" y="1165.67"/>
      <point x="1337" y="1157.33"/>
      <point x="1345" y="1148" type="curve" smooth="yes"/>
      <point x="1350.33" y="1142"/>
      <point x="1353.33" y="1134.67"/>
      <point x="1354" y="1126" type="curve" smooth="yes"/>
      <point x="1354.67" y="1117.33"/>
      <point x="1354" y="1107.67"/>
      <point x="1352" y="1097" type="curve" smooth="yes"/>
      <point x="1306" y="838" type="line" smooth="yes"/>
      <point x="1302" y="815.333"/>
      <point x="1291.17" y="799.167"/>
      <point x="1273.5" y="789.5" type="curve" smooth="yes"/>
      <point x="1255.83" y="779.833"/>
      <point x="1229" y="775"/>
    </contour>
  </outline>
</glyph>
<glyph name="Zecyrillic" format="1">
  <advance width="1228"/>
  <unicode hex="0417"/>
  <outline>
    <contour>
      <point x="729" y="992" type="curve" smooth="yes"/>
      <point x="685.667" y="992"/>
      <point x="646.833" y="986.5"/>
      <point x="612.5" y="975.5" type="curve" smooth="yes"/>
      <point x="578.167" y="964.5"/>
      <point x="548.333" y="949"/>
      <point x="523" y="929" type="curve" smooth="yes"/>
      <point x="497.667" y="909"/>
      <point x="477" y="884.833"/>
      <point x="461" y="856.5" type="curve" smooth="yes"/>
      <point x="445" y="828.167"/>
      <point x="434" y="796.667"/>
      <point x="428" y="762" type="curve" smooth="yes"/>
      <point x="426" y="750.667"/>
      <point x="422.667" y="741"/>
      <point x="418" y="733" type="curve" smooth="yes"/>
      <point x="413.333" y="725"/>
      <point x="406.167" y="718.5"/>
      <point x="396.5" y="713.5" type="curve" smooth="yes"/>
      <point x="386.833" y="708.5"/>
      <point x="374.167" y="704.833"/>
      <point x="358.5" y="702.5" type="curve" smooth="yes"/>
      <point x="342.833" y="700.167"/>
      <point x="323" y="699"/>
      <point x="299" y="699" type="curve" smooth="yes"/>
      <point x="251" y="699"/>
      <point x="217.833" y="703.833"/>
      <point x="199.5" y="713.5" type="curve" smooth="yes"/>
      <point x="181.167" y="723.167"/>
      <point x="174" y="739.333"/>
      <point x="178" y="762" type="curve" smooth="yes"/>
      <point x="246" y="1146" type="line" smooth="yes"/>
      <point x="248" y="1157.33"/>
      <point x="251.333" y="1167"/>
      <point x="256" y="1175" type="curve" smooth="yes"/>
      <point x="260.667" y="1183"/>
      <point x="267.5" y="1189.5"/>
      <point x="276.5" y="1194.5" type="curve" smooth="yes"/>
      <point x="285.5" y="1199.5"/>
      <point x="297.167" y="1203.17"/>
      <point x="311.5" y="1205.5" type="curve" smooth="yes"/>
      <point x="325.833" y="1207.83"/>
      <point x="343.667" y="1209"/>
      <point x="365" y="1209" type="curve" smooth="yes"/>
      <point x="407.667" y="1209"/>
      <point x="437.833" y="1204.17"/>
      <point x="455.5" y="1194.5" type="curve" smooth="yes"/>
      <point x="473.167" y="1184.83"/>
      <point x="480" y="1168.67"/>
      <point x="476" y="1146" type="curve" smooth="yes"/>
      <point x="464" y="1083" type="line"/>
      <point x="480.667" y="1102.33"/>
      <point x="500.5" y="1119.67"/>
      <point x="523.5" y="1135" type="curve" smooth="yes"/>
      <point x="546.5" y="1150.33"/>
      <point x="571.5" y="1163.5"/>
      <point x="598.5" y="1174.5" type="curve" smooth="yes"/>
      <point x="625.5" y="1185.5"/>
      <point x="654.167" y="1194"/>
      <point x="684.5" y="1200" type="curve" smooth="yes"/>
      <point x="714.833" y="1206"/>
      <point x="745.667" y="1209"/>
      <point x="777" y="1209" type="curve" smooth="yes"/>
      <point x="843" y="1209"/>
      <point x="902.333" y="1201.67"/>
      <point x="955" y="1187" type="curve" smooth="yes"/>
      <point x="1007.67" y="1172.33"/>
      <point x="1051.33" y="1150.67"/>
      <point x="1086" y="1122" type="curve" smooth="yes"/>
      <point x="1120.67" y="1093.33"/>
      <point x="1145.5" y="1057.83"/>
      <point x="1160.5" y="1015.5" type="curve" smooth="yes"/>
      <point x="1175.5" y="973.167"/>
      <point x="1178" y="924.333"/>
      <point x="1168" y="869" type="curve" smooth="yes"/>
      <point x="1156.67" y="808.333"/>
      <point x="1129.83" y="758.167"/>
      <point x="1087.5" y="718.5" type="curve" smooth="yes"/>
      <point x="1045.17" y="678.833"/>
      <point x="990.667" y="647.333"/>
      <point x="924" y="624" type="curve"/>
      <point x="958" y="612"/>
      <point x="988" y="597.333"/>
      <point x="1014" y="580" type="curve" smooth="yes"/>
      <point x="1040" y="562.667"/>
      <point x="1061.17" y="543"/>
      <point x="1077.5" y="521" type="curve" smooth="yes"/>
      <point x="1093.83" y="499"/>
      <point x="1105.17" y="474.167"/>
      <point x="1111.5" y="446.5" type="curve" smooth="yes"/>
      <point x="1117.83" y="418.833"/>
      <point x="1118" y="388.667"/>
      <point x="1112" y="356" type="curve" smooth="yes"/>
      <point x="1100.67" y="292.667"/>
      <point x="1078.33" y="237.333"/>
      <point x="1045" y="190" type="curve" smooth="yes"/>
      <point x="1011.67" y="142.667"/>
      <point x="968.833" y="103.333"/>
      <point x="916.5" y="72" type="curve" smooth="yes"/>
      <point x="864.167" y="40.6667"/>
      <point x="803.167" y="17.1667"/>
      <point x="733.5" y="1.5" type="curve" smooth="yes"/>
      <point x="663.833" y="-14.1667"/>
      <point x="587.333" y="-22"/>
      <point x="504" y="-22" type="curve" smooth="yes"/>
      <point x="432" y="-22"/>
      <point x="362" y="-13"/>
      <point x="294" y="5" type="curve" smooth="yes"/>
      <point x="226" y="23"/>
      <point x="159.667" y="49.3333"/>
      <point x="95" y="84" type="curve" smooth="yes"/>
      <point x="75.6667" y="94.6667"/>
      <point x="64.3333" y="110.667"/>
      <point x="61" y="132" type="curve" smooth="yes"/>
      <point x="57.6667" y="153.333"/>
      <point x="66.6667" y="184.333"/>
      <point x="88" y="225" type="curve" smooth="yes"/>
      <point x="109.333" y="265"/>
      <point x="130.333" y="290"/>
      <point x="151" y="300" type="curve" smooth="yes"/>
      <point x="171.667" y="310"/>
      <point x="191" y="310"/>
      <point x="209" y="300" type="curve" smooth="yes"/>
      <point x="235.667" y="285.333"/>
      <point x="261.833" y="272.167"/>
      <point x="287.5" y="260.5" type="curve" smooth="yes"/>
      <point x="313.167" y="248.833"/>
      <point x="339.5" y="238.833"/>
      <point x="366.5" y="230.5" type="curve" smooth="yes"/>
      <point x="393.5" y="222.167"/>
      <point x="421.5" y="215.833"/>
      <point x="450.5" y="211.5" type="curve" smooth="yes"/>
      <point x="479.5" y="207.167"/>
      <point x="510.667" y="205"/>
      <point x="544" y="205" type="curve" smooth="yes"/>
      <point x="637.333" y="205"/>
      <point x="708.667" y="218.333"/>
      <point x="758" y="245" type="curve" smooth="yes"/>
      <point x="807.333" y="271.667"/>
      <point x="836.333" y="309.333"/>
      <point x="845" y="358" type="curve" smooth="yes"/>
      <point x="862.333" y="454.667"/>
      <point x="794" y="503"/>
      <point x="640" y="503" type="curve" smooth="yes"/>
      <point x="537" y="503" type="line" smooth="yes"/>
      <point x="514.333" y="503"/>
      <point x="499.5" y="510.333"/>
      <point x="492.5" y="525" type="curve" smooth="yes"/>
      <point x="485.5" y="539.667"/>
      <point x="485.667" y="568"/>
      <point x="493" y="610" type="curve" smooth="yes"/>
      <point x="497" y="631.333"/>
      <point x="501.333" y="649"/>
      <point x="506" y="663" type="curve" smooth="yes"/>
      <point x="510.667" y="677"/>
      <point x="516.167" y="688"/>
      <point x="522.5" y="696" type="curve" smooth="yes"/>
      <point x="528.833" y="704"/>
      <point x="536.333" y="709.667"/>
      <point x="545" y="713" type="curve" smooth="yes"/>
      <point x="553.667" y="716.333"/>
      <point x="563.667" y="718"/>
      <point x="575" y="718" type="curve" smooth="yes"/>
      <point x="651" y="718" type="line" smooth="yes"/>
      <point x="731.667" y="718"/>
      <point x="793" y="728.667"/>
      <point x="835" y="750" type="curve" smooth="yes"/>
      <point x="877" y="771.333"/>
      <point x="902.333" y="806"/>
      <point x="911" y="854" type="curve" smooth="yes"/>
      <point x="915" y="876.667"/>
      <point x="913.333" y="896.667"/>
      <point x="906" y="914" type="curve" smooth="yes"/>
      <point x="898.667" y="931.333"/>
      <point x="886.667" y="945.833"/>
      <point x="870" y="957.5" type="curve" smooth="yes"/>
      <point x="853.333" y="969.167"/>
      <point x="833" y="977.833"/>
      <point x="809" y="983.5" type="curve" smooth="yes"/>
      <point x="785" y="989.167"/>
      <point x="758.333" y="992"/>
    </contour>
  </outline>
</glyph>
<glyph name="Iishortcyrillic" format="1">
  <advance width="1228"/>
  <unicode hex="0419"/>
  <outline>
    <contour>
      <point x="865" y="724" type="line"/>
      <point x="377" y="27" type="line" smooth="yes"/>
      <point x="369.667" y="17"/>
      <point x="361" y="10"/>
      <point x="351" y="6" type="curve" smooth="yes"/>
      <point x="341" y="2"/>
      <point x="329.667" y="0"/>
      <point x="317" y="0" type="curve" smooth="yes"/>
      <point x="43" y="0" type="line" smooth="yes"/>
      <point x="31.6667" y="0"/>
      <point x="22.3333" y="1.33333"/>
      <point x="15" y="4" type="curve" smooth="yes"/>
      <point x="7.66667" y="6.66667"/>
      <point x="2" y="11.8333"/>
      <point x="-2" y="19.5" type="curve" smooth="yes"/>
      <point x="-6" y="27.1667"/>
      <point x="-8" y="37.6667"/>
      <point x="-8" y="51" type="curve" smooth="yes"/>
      <point x="-8" y="64.3333"/>
      <point x="-6" y="81.6667"/>
      <point x="-2" y="103" type="curve" smooth="yes"/>
      <point x="2" y="124.333"/>
      <point x="6.33333" y="141.667"/>
      <point x="11" y="155" type="curve" smooth="yes"/>
      <point x="15.6667" y="168.333"/>
      <point x="21.1667" y="178.667"/>
      <point x="27.5" y="186" type="curve" smooth="yes"/>
      <point x="33.8333" y="193.333"/>
      <point x="41.1667" y="198.333"/>
      <point x="49.5" y="201" type="curve" smooth="yes"/>
      <point x="57.8333" y="203.667"/>
      <point x="67.6667" y="205"/>
      <point x="79" y="205" type="curve" smooth="yes"/>
      <point x="136" y="205" type="line"/>
      <point x="273" y="982" type="line"/>
      <point x="216" y="982" type="line" smooth="yes"/>
      <point x="204.667" y="982"/>
      <point x="195.333" y="983.333"/>
      <point x="188" y="986" type="curve" smooth="yes"/>
      <point x="180.667" y="988.667"/>
      <point x="175" y="993.667"/>
      <point x="171" y="1001" type="curve" smooth="yes"/>
      <point x="167" y="1008.33"/>
      <point x="165" y="1018.67"/>
      <point x="165" y="1032" type="curve" smooth="yes"/>
      <point x="165" y="1045.33"/>
      <point x="167" y="1062.67"/>
      <point x="171" y="1084" type="curve" smooth="yes"/>
      <point x="175" y="1105.33"/>
      <point x="179.333" y="1122.67"/>
      <point x="184" y="1136" type="curve" smooth="yes"/>
      <point x="188.667" y="1149.33"/>
      <point x="194.167" y="1159.83"/>
      <point x="200.5" y="1167.5" type="curve" smooth="yes"/>
      <point x="206.833" y="1175.17"/>
      <point x="214.167" y="1180.33"/>
      <point x="222.5" y="1183" type="curve" smooth="yes"/>
      <point x="230.833" y="1185.67"/>
      <point x="240.667" y="1187"/>
      <point x="252" y="1187" type="curve" smooth="yes"/>
      <point x="627" y="1187" type="line" smooth="yes"/>
      <point x="638.333" y="1187"/>
      <point x="647.667" y="1185.67"/>
      <point x="655" y="1183" type="curve" smooth="yes"/>
      <point x="662.333" y="1180.33"/>
      <point x="668" y="1175.17"/>
      <point x="672" y="1167.5" type="curve" smooth="yes"/>
      <point x="676" y="1159.83"/>
      <point x="678" y="1149.33"/>
      <point x="678" y="1136" type="curve" smooth="yes"/>
      <point x="678" y="1122.67"/>
      <point x="676" y="1105.33"/>
      <point x="672" y="1084" type="curve" smooth="yes"/>
      <point x="668" y="1062.67"/>
      <point x="663.667" y="1045.33"/>
      <point x="659" y="1032" type="curve" smooth="yes"/>
      <point x="654.333" y="1018.67"/>
      <point x="648.833" y="1008.33"/>
      <point x="642.5" y="1001" type="curve" smooth="yes"/>
      <point x="636.167" y="993.667"/>
      <point x="628.833" y="988.667"/>
      <point x="620.5" y="986" type="curve" smooth="yes"/>
      <point x="612.167" y="983.333"/>
      <point x="602.333" y="982"/>
      <point x="591" y="982" type="curve" smooth="yes"/>
      <point x="523" y="982" type="line"/>
      <point x="431" y="463" type="line"/>
      <point x="949" y="1160" type="line" smooth="yes"/>
      <point x="956.333" y="1170"/>
      <point x="965.167" y="1177"/>
      <point x="975.5" y="1181" type="curve" smooth="yes"/>
      <point x="985.833" y="1185"/>
      <point x="997.333" y="1187"/>
      <point x="1010" y="1187" type="curve" smooth="yes"/>
      <point x="1254" y="1187" type="line" smooth="yes"/>
      <point x="1265.33" y="1187"/>
      <point x="1274.67" y="1185.67"/>
      <point x="1282" y="1183" type="curve" smooth="yes"/>
      <point x="1289.33" y="1180.33"/>
      <point x="1295" y="1175.17"/>
      <point x="1299" y="1167.5" type="curve" smooth="yes"/>
      <point x="1303" y="1159.83"/>
      <point x="1305" y="1149.33"/>
      <point x="1305" y="1136" type="curve" smooth="yes"/>
      <point x="1305" y="1122.67"/>
      <point x="1303" y="1105.33"/>
      <point x="1299" y="1084" type="curve" smooth="yes"/>
      <point x="1295" y="1062.67"/>
      <point x="1290.67" y="1045.33"/>
      <point x="1286" y="1032" type="curve" smooth="yes"/>
      <point x="1281.33" y="1018.67"/>
      <point x="1275.83" y="1008.33"/>
      <point x="1269.5" y="1001" type="curve" smooth="yes"/>
      <point x="1263.17" y="993.667"/>
      <point x="1255.83" y="988.667"/>
      <point x="1247.5" y="986" type="curve" smooth="yes"/>
      <point x="1239.17" y="983.333"/>
      <point x="1229.33" y="982"/>
      <point x="1218" y="982" type="curve" smooth="yes"/>
      <point x="1161" y="982" type="line"/>
      <point x="1024" y="205" type="line"/>
      <point x="1081" y="205" type="line" smooth="yes"/>
      <point x="1092.33" y="205"/>
      <point x="1101.67" y="203.667"/>
      <point x="1109" y="201" type="curve" smooth="yes"/>
      <point x="1116.33" y="198.333"/>
      <point x="1121.83" y="193.167"/>
      <point x="1125.5" y="185.5" type="curve" smooth="yes"/>
      <point x="1129.17" y="177.833"/>
      <point x="1131" y="167.333"/>
      <point x="1131" y="154" type="curve" smooth="yes"/>
      <point x="1131" y="140.667"/>
      <point x="1129" y="123.333"/>
      <point x="1125" y="102" type="curve" smooth="yes"/>
      <point x="1121" y="80.6667"/>
      <point x="1116.83" y="63.3333"/>
      <point x="1112.5" y="50" type="curve" smooth="yes"/>
      <point x="1108.17" y="36.6667"/>
      <point x="1102.83" y="26.3333"/>
      <point x="1096.5" y="19" type="curve" smooth="yes"/>
      <point x="1090.17" y="11.6667"/>
      <point x="1082.83" y="6.66667"/>
      <point x="1074.5" y="4" type="curve" smooth="yes"/>
      <point x="1066.17" y="1.33333"/>
      <point x="1056.33" y="0"/>
      <point x="1045" y="0" type="curve" smooth="yes"/>
      <point x="671" y="0" type="line" smooth="yes"/>
      <point x="659.667" y="0"/>
      <point x="650.167" y="1.33333"/>
      <point x="642.5" y="4" type="curve" smooth="yes"/>
      <point x="634.833" y="6.66667"/>
      <point x="629.167" y="11.6667"/>
      <point x="625.5" y="19" type="curve" smooth="yes"/>
      <point x="621.833" y="26.3333"/>
      <point x="619.833" y="36.6667"/>
      <point x="619.5" y="50" type="curve" smooth="yes"/>
      <point x="619.167" y="63.3333"/>
      <point x="621" y="80.6667"/>
      <point x="625" y="102" type="curve" smooth="yes"/>
      <point x="629" y="123.333"/>
      <point x="633.333" y="140.667"/>
      <point x="638" y="154" type="curve" smooth="yes"/>
      <point x="642.667" y="167.333"/>
      <point x="648.167" y="177.833"/>
      <point x="654.5" y="185.5" type="curve" smooth="yes"/>
      <point x="660.833" y="193.167"/>
      <point x="668.333" y="198.333"/>
      <point x="677" y="201" type="curve" smooth="yes"/>
      <point x="685.667" y="203.667"/>
      <point x="695.667" y="205"/>
      <point x="707" y="205" type="curve" smooth="yes"/>
      <point x="774" y="205" type="line"/>
    </contour>
    <contour>
      <point x="765" y="1254" type="curve" smooth="yes"/>
      <point x="665.667" y="1254"/>
      <point x="590.333" y="1277.17"/>
      <point x="539" y="1323.5" type="curve" smooth="yes"/>
      <point x="487.667" y="1369.83"/>
      <point x="459" y="1432.33"/>
      <point x="453" y="1511" type="curve" smooth="yes"/>
      <point x="451.667" y="1523"/>
      <point x="454.667" y="1534.17"/>
      <point x="462" y="1544.5" type="curve" smooth="yes"/>
      <point x="469.333" y="1554.83"/>
      <point x="479" y="1564"/>
      <point x="491" y="1572" type="curve" smooth="yes"/>
      <point x="503" y="1580"/>
      <point x="516.167" y="1586.33"/>
      <point x="530.5" y="1591" type="curve" smooth="yes"/>
      <point x="544.833" y="1595.67"/>
      <point x="558" y="1598"/>
      <point x="570" y="1598" type="curve" smooth="yes"/>
      <point x="591.333" y="1598"/>
      <point x="605" y="1591.33"/>
      <point x="611" y="1578" type="curve" smooth="yes"/>
      <point x="619" y="1560"/>
      <point x="628.167" y="1543.5"/>
      <point x="638.5" y="1528.5" type="curve" smooth="yes"/>
      <point x="648.833" y="1513.5"/>
      <point x="661.333" y="1500.83"/>
      <point x="676" y="1490.5" type="curve" smooth="yes"/>
      <point x="690.667" y="1480.17"/>
      <point x="708.167" y="1472.17"/>
      <point x="728.5" y="1466.5" type="curve" smooth="yes"/>
      <point x="748.833" y="1460.83"/>
      <point x="773" y="1458"/>
      <point x="801" y="1458" type="curve" smooth="yes"/>
      <point x="829" y="1458"/>
      <point x="854.167" y="1460.83"/>
      <point x="876.5" y="1466.5" type="curve" smooth="yes"/>
      <point x="898.833" y="1472.17"/>
      <point x="919.167" y="1480.17"/>
      <point x="937.5" y="1490.5" type="curve" smooth="yes"/>
      <point x="955.833" y="1500.83"/>
      <point x="972.667" y="1513.5"/>
      <point x="988" y="1528.5" type="curve" smooth="yes"/>
      <point x="1003.33" y="1543.5"/>
      <point x="1018.33" y="1560"/>
      <point x="1033" y="1578" type="curve" smooth="yes"/>
      <point x="1042.33" y="1591.33"/>
      <point x="1058" y="1598"/>
      <point x="1080" y="1598" type="curve" smooth="yes"/>
      <point x="1092" y="1598"/>
      <point x="1104.33" y="1595.67"/>
      <point x="1117" y="1591" type="curve" smooth="yes"/>
      <point x="1129.67" y="1586.33"/>
      <point x="1140.5" y="1580"/>
      <point x="1149.5" y="1572" type="curve" smooth="yes"/>
      <point x="1158.5" y="1564"/>
      <point x="1165" y="1554.83"/>
      <point x="1169" y="1544.5" type="curve" smooth="yes"/>
      <point x="1173" y="1534.17"/>
      <point x="1172.33" y="1523"/>
      <point x="1167" y="1511" type="curve" smooth="yes"/>
      <point x="1149.67" y="1471.67"/>
      <point x="1128.33" y="1436.17"/>
      <point x="1103" y="1404.5" type="curve" smooth="yes"/>
      <point x="1077.67" y="1372.83"/>
      <point x="1048.33" y="1345.83"/>
      <point x="1015" y="1323.5" type="curve" smooth="yes"/>
      <point x="981.667" y="1301.17"/>
      <point x="944.167" y="1284"/>
      <point x="902.5" y="1272" type="curve" smooth="yes"/>
      <point x="860.833" y="1260"/>
      <point x="815" y="1254"/>
    </contour>
  </outline>
</glyph>
